<svg width="1108" height="851" viewBox="0 0 1108 851" fill="none" xmlns="http://www.w3.org/2000/svg">
<rect width="1108" height="851" fill="#EDF2F8"/>
<circle cx="443" cy="424" r="413" fill="url(#paint0_radial)"/>
<g opacity="0.4">
<g opacity="0.4">
<g opacity="0.4">
<path opacity="0.4" d="M784.4 372.7L750.9 314.7L784.4 256.7H851.3L884.8 314.7L851.3 372.7H784.4Z" stroke="#424242" stroke-width="6" stroke-miterlimit="10"/>
</g>
</g>
</g>
<g opacity="0.4">
<g opacity="0.4">
<g opacity="0.4">
<path opacity="0.4" d="M668.4 305.8L635 247.8L668.4 189.8H735.3L768.8 247.8L735.3 305.8H668.4Z" fill="#424242" stroke="#424242" stroke-width="6" stroke-miterlimit="10"/>
</g>
<g opacity="0.4">
<path opacity="0.4" d="M668.4 172L635 114L668.4 56H735.3L768.8 114L735.3 172H668.4Z" stroke="#424242" stroke-width="6" stroke-miterlimit="10"/>
</g>
</g>
<g opacity="0.4">
<g opacity="0.4">
<path opacity="0.4" d="M552.4 372.7L519 314.7L552.4 256.7H619.3L652.8 314.7L619.3 372.7H552.4Z" stroke="#424242" stroke-width="6" stroke-miterlimit="10"/>
</g>
<g opacity="0.4">
<path opacity="0.4" d="M552.4 238.9L519 180.9L552.4 122.9H619.3L652.8 180.9L619.3 238.9H552.4Z" fill="#424242" stroke="#424242" stroke-width="6" stroke-miterlimit="10"/>
</g>
</g>
</g>
<g opacity="0.4">
<g opacity="0.4">
<g opacity="0.4">
<path opacity="0.4" d="M436.5 439.6L403 381.6L436.5 323.6H503.4L536.8 381.6L503.4 439.6H436.5Z" fill="#424242" stroke="#424242" stroke-width="6" stroke-miterlimit="10"/>
</g>
<g opacity="0.4">
<path opacity="0.4" d="M436.5 305.8L403 247.8L436.5 189.8H503.4L536.8 247.8L503.4 305.8H436.5Z" stroke="#424242" stroke-width="6" stroke-miterlimit="10"/>
</g>
<g opacity="0.4">
<path opacity="0.4" d="M436.5 172L403 114L436.5 56H503.4L536.8 114L503.4 172H436.5Z" stroke="#424242" stroke-width="6" stroke-miterlimit="10"/>
</g>
</g>
<g opacity="0.4">
<g opacity="0.4">
<path opacity="0.4" d="M320.5 238.9L287 180.9L320.5 122.9H387.4L420.8 180.9L387.4 238.9H320.5Z" fill="#424242" stroke="#424242" stroke-width="6" stroke-miterlimit="10"/>
</g>
</g>
</g>
<g opacity="0.4">
<g opacity="0.4">
<g opacity="0.4">
<path opacity="0.4" d="M204.5 439.6L171 381.6L204.5 323.6H271.4L304.9 381.6L271.4 439.6H204.5Z" fill="#424242" stroke="#424242" stroke-width="6" stroke-miterlimit="10"/>
</g>
<g opacity="0.4">
<path opacity="0.4" d="M204.5 305.8L171 247.8L204.5 189.8H271.4L304.9 247.8L271.4 305.8H204.5Z" stroke="#424242" stroke-width="6" stroke-miterlimit="10"/>
</g>
</g>
</g>
<path d="M349.375 493.07H358.651L355.559 693H352.467L349.375 493.07Z" fill="#444E59"/>
<path d="M358.651 493.07H385.446L382.354 645.594L355.559 693L358.651 493.07Z" fill="#CECECE"/>
<path d="M807.978 493.07H742.022V693H807.978V493.07Z" fill="#444E59"/>
<path d="M742.021 493.07H715.227V645.594L742.021 693V493.07Z" fill="#CECECE"/>
<rect x="303" y="479.672" width="555.476" height="13.3974" rx="6.69869" fill="#AB784B"/>
<path d="M339.07 457H822.406L853.323 479.672H308.153L339.07 457Z" fill="#D2D2D2"/>
<path d="M499.892 447.618H402.488C400.59 447.618 399 446.079 399 444.13V431.307C399 429.409 400.539 427.819 402.488 427.819H499.892C501.79 427.819 503.38 429.358 503.38 431.307V444.13C503.38 446.079 501.841 447.618 499.892 447.618Z" fill="#50B56F"/>
<path d="M499.892 447.618H402.488C400.59 447.618 399 446.079 399 444.13V431.307C399 429.409 400.539 427.819 402.488 427.819H499.892C501.79 427.819 503.38 429.358 503.38 431.307V444.13C503.38 446.079 501.841 447.618 499.892 447.618Z" stroke="#1F3969" stroke-width="4" stroke-miterlimit="10" stroke-linecap="round" stroke-linejoin="round"/>
<path opacity="0.28" d="M502.242 427.87H486.854V435.564C486.854 440.386 490.752 444.335 495.625 444.335H505.73C505.73 444.284 505.73 444.232 505.73 444.181V431.358C505.73 429.409 504.191 427.87 502.242 427.87Z" fill="#1F3969" stroke="#1F3969" stroke-width="4" stroke-miterlimit="10" stroke-linecap="round" stroke-linejoin="round"/>
<path d="M527.333 451.619H414.49C415.157 453.26 415.516 455.312 415.516 457.466C415.516 459.62 415.157 461.621 414.49 463.313H527.282C526.615 461.672 526.256 459.62 526.256 457.466C526.308 455.26 526.667 453.26 527.333 451.619Z" fill="#CECECE"/>
<path d="M530.411 448.49H411.464V451.567H530.411V448.49Z" fill="#5F5AFF"/>
<path d="M530.411 448.49H411.464V451.567H530.411V448.49Z" stroke="#1F3969" stroke-width="4" stroke-miterlimit="10" stroke-linecap="round" stroke-linejoin="round"/>
<path d="M530.411 463.262H411.464V466.339H530.411V463.262Z" fill="#F6F9FD"/>
<path d="M530.411 463.262H411.464V466.339H530.411V463.262Z" fill="#5F5AFF"/>
<path d="M530.411 463.262H411.464V466.339H530.411V463.262Z" stroke="#1F3969" stroke-width="4" stroke-miterlimit="10" stroke-linecap="round" stroke-linejoin="round"/>
<path d="M591.85 455.414L590.311 438.129H564.972L563.434 455.414C563.075 459.415 560.664 463.262 556.868 466.339V466.391H598.415V466.339C594.619 463.262 592.209 459.415 591.85 455.414Z" fill="#BFCFE2"/>
<path opacity="0.28" d="M564.973 438.129L564.049 448.49H591.234L590.311 438.129H564.973Z" fill="#1F3969" stroke="#1F3969" stroke-width="4" stroke-miterlimit="10" stroke-linecap="round" stroke-linejoin="round"/>
<path d="M591.85 455.414L590.311 438.129H564.972L563.434 455.414C563.075 459.415 560.664 463.262 556.868 466.339V466.391H598.415V466.339C594.619 463.262 592.209 459.415 591.85 455.414Z" stroke="#1F3969" stroke-width="4" stroke-miterlimit="10" stroke-linecap="round" stroke-linejoin="round"/>
<path d="M658.683 440.693H496.599C493.214 440.693 490.444 437.923 490.444 434.538V328.876C490.444 325.491 493.214 322.721 496.599 322.721H658.683C662.069 322.721 664.838 325.491 664.838 328.876V434.538C664.838 437.975 662.069 440.693 658.683 440.693Z" fill="white"/>
<path d="M658.683 440.693H496.599C493.214 440.693 490.444 437.923 490.444 434.538V328.876C490.444 325.491 493.214 322.721 496.599 322.721H658.683C662.069 322.721 664.838 325.491 664.838 328.876V434.538C664.838 437.975 662.069 440.693 658.683 440.693Z" fill="#BFCFE2"/>
<path d="M658.683 440.693H496.599C493.214 440.693 490.444 437.923 490.444 434.538V328.876C490.444 325.491 493.214 322.721 496.599 322.721H658.683C662.069 322.721 664.838 325.491 664.838 328.876V434.538C664.838 437.975 662.069 440.693 658.683 440.693Z" stroke="#1F3969" stroke-width="4" stroke-miterlimit="10" stroke-linecap="round" stroke-linejoin="round"/>
<path d="M656.147 421.011V331.455L499.193 331.455V421.011H656.147Z" fill="#F6F9FD"/>
<path opacity="0.28" d="M504.807 322.721V393.812C504.807 396.069 506.653 397.915 508.91 397.915H605.904C608.161 397.915 610.007 396.069 610.007 393.812V322.721H504.807Z" fill="#1F3969" stroke="#1F3969" stroke-width="4" stroke-miterlimit="10" stroke-linecap="round" stroke-linejoin="round"/>
<path d="M656.147 421.011V331.455L499.193 331.455V421.011H656.147Z" stroke="#1F3969" stroke-width="4" stroke-miterlimit="10" stroke-linecap="round" stroke-linejoin="round"/>
<path d="M570.769 430.794H584.566" stroke="#1F3969" stroke-width="4" stroke-miterlimit="10" stroke-linecap="round" stroke-linejoin="round"/>
<path d="M610.52 392.273H513.526C511.269 392.273 509.423 390.427 509.423 388.17V312.155C509.423 309.898 511.269 308.051 513.526 308.051H610.52C612.777 308.051 614.623 309.898 614.623 312.155V388.221C614.623 390.478 612.777 392.273 610.52 392.273Z" fill="#2D425E"/>
<path d="M614.623 318.002H509.423V312.103C509.423 309.847 511.269 308 513.526 308H610.52C612.777 308 614.623 309.847 614.623 312.103V318.002Z" stroke="#1F3969" stroke-width="4" stroke-miterlimit="10" stroke-linecap="round" stroke-linejoin="round"/>
<path d="M614.623 319.951H509.423V312.103C509.423 309.847 511.269 308 513.526 308H610.52C612.777 308 614.623 309.847 614.623 312.103V319.951Z" fill="#D0DDF0"/>
<path d="M614.623 319.951H509.423V312.103C509.423 309.847 511.269 308 513.526 308H610.52C612.777 308 614.623 309.847 614.623 312.103V319.951Z" stroke="#1F3969" stroke-width="4" stroke-miterlimit="10" stroke-linecap="round" stroke-linejoin="round"/>
<path d="M614.623 319.951H509.423V312.103C509.423 309.847 511.269 308 513.526 308H610.52C612.777 308 614.623 309.847 614.623 312.103V319.951Z" stroke="#1F3969" stroke-width="4" stroke-miterlimit="10" stroke-linecap="round" stroke-linejoin="round"/>
<path d="M610.52 392.273H513.526C511.269 392.273 509.423 390.427 509.423 388.17V312.155C509.423 309.898 511.269 308.051 513.526 308.051H610.52C612.777 308.051 614.623 309.898 614.623 312.155V388.221C614.623 390.478 612.777 392.273 610.52 392.273Z" stroke="#1F3969" stroke-width="4" stroke-miterlimit="10" stroke-linecap="round" stroke-linejoin="round"/>
<path opacity="0.28" d="M661.145 410.431H601.646C599.389 410.431 597.543 408.584 597.543 406.327V343.289C597.543 341.032 599.389 339.186 601.646 339.186H661.145C663.402 339.186 665.249 341.032 665.249 343.289V406.327C665.249 408.636 663.402 410.431 661.145 410.431Z" fill="#1F3969" stroke="#1F3969" stroke-width="4" stroke-miterlimit="10" stroke-linecap="round" stroke-linejoin="round"/>
<path d="M665.249 406.84H605.75C603.493 406.84 601.646 404.994 601.646 402.737V339.699C601.646 337.442 603.493 335.595 605.75 335.595H665.249C667.506 335.595 669.352 337.442 669.352 339.699V402.737C669.352 405.045 667.506 406.84 665.249 406.84Z" fill="#2AA1FF"/>
<path d="M665.249 406.84H605.75C603.493 406.84 601.646 404.994 601.646 402.737V339.699C601.646 337.442 603.493 335.595 605.75 335.595H665.249C667.506 335.595 669.352 337.442 669.352 339.699V402.737C669.352 405.045 667.506 406.84 665.249 406.84Z" stroke="#1F3969" stroke-width="4" stroke-miterlimit="10" stroke-linecap="round" stroke-linejoin="round"/>
<path opacity="0.34" d="M656.375 355.138H614.521C613.033 355.138 611.854 353.958 611.854 352.47V348.47C611.854 346.982 613.033 345.802 614.521 345.802H656.375C657.863 345.802 659.042 346.982 659.042 348.47V352.47C659.042 353.958 657.863 355.138 656.375 355.138Z" stroke="white" stroke-width="2" stroke-miterlimit="10" stroke-linecap="round" stroke-linejoin="round"/>
<g opacity="0.34">
<path opacity="0.34" d="M638.013 370.166H614.623C613.136 370.166 611.956 368.987 611.956 367.499V363.498C611.956 362.011 613.136 360.831 614.623 360.831H638.013C639.5 360.831 640.68 362.011 640.68 363.498V367.499C640.628 368.987 639.449 370.166 638.013 370.166Z" stroke="white" stroke-width="2" stroke-miterlimit="10" stroke-linecap="round" stroke-linejoin="round"/>
<path opacity="0.34" d="M656.427 370.166H647.348C645.86 370.166 644.681 368.987 644.681 367.499V363.498C644.681 362.011 645.86 360.831 647.348 360.831H656.427C657.914 360.831 659.094 362.011 659.094 363.498V367.499C659.094 368.987 657.914 370.166 656.427 370.166Z" stroke="white" stroke-width="2" stroke-miterlimit="10" stroke-linecap="round" stroke-linejoin="round"/>
</g>
<path d="M611.905 385.759H659.042" stroke="white" stroke-width="2" stroke-miterlimit="10" stroke-linecap="round" stroke-linejoin="round"/>
<path d="M611.905 391.299H659.042" stroke="white" stroke-width="2" stroke-miterlimit="10" stroke-linecap="round" stroke-linejoin="round"/>
<path d="M611.905 396.838H640.628" stroke="white" stroke-width="2" stroke-miterlimit="10" stroke-linecap="round" stroke-linejoin="round"/>
<path d="M519.733 316.053C520.866 316.053 521.785 315.134 521.785 314.001C521.785 312.868 520.866 311.95 519.733 311.95C518.6 311.95 517.681 312.868 517.681 314.001C517.681 315.134 518.6 316.053 519.733 316.053Z" fill="#1F3969"/>
<path d="M526.862 316.053C527.995 316.053 528.914 315.134 528.914 314.001C528.914 312.868 527.995 311.95 526.862 311.95C525.729 311.95 524.811 312.868 524.811 314.001C524.811 315.134 525.729 316.053 526.862 316.053Z" fill="#1F3969"/>
<path d="M533.992 316.053C535.125 316.053 536.043 315.134 536.043 314.001C536.043 312.868 535.125 311.95 533.992 311.95C532.859 311.95 531.94 312.868 531.94 314.001C531.94 315.134 532.859 316.053 533.992 316.053Z" fill="#1F3969"/>
<path d="M569.845 329.44H576.513" stroke="white" stroke-width="4" stroke-miterlimit="10" stroke-linecap="round" stroke-linejoin="round"/>
<path d="M536.043 329.44H564.921" stroke="#7BFFA0" stroke-width="4" stroke-miterlimit="10" stroke-linecap="round" stroke-linejoin="round"/>
<path d="M521.784 329.44H531.94" stroke="#9169FF" stroke-width="4" stroke-miterlimit="10" stroke-linecap="round" stroke-linejoin="round"/>
<path d="M535.018 379.963H557.073" stroke="#9169FF" stroke-width="4" stroke-miterlimit="10" stroke-linecap="round" stroke-linejoin="round"/>
<path d="M521.784 379.963H528.914" stroke="#7BFFA0" stroke-width="4" stroke-miterlimit="10" stroke-linecap="round" stroke-linejoin="round"/>
<path d="M564.921 335.749H569.076" stroke="white" stroke-width="4" stroke-miterlimit="10" stroke-linecap="round" stroke-linejoin="round"/>
<path d="M546.045 335.749H559.997" stroke="#9169FF" stroke-width="4" stroke-miterlimit="10" stroke-linecap="round" stroke-linejoin="round"/>
<path d="M526.862 335.749H541.07" stroke="#FFC47D" stroke-width="4" stroke-miterlimit="10" stroke-linecap="round" stroke-linejoin="round"/>
<path d="M548.867 342.058H561.126" stroke="white" stroke-width="4" stroke-miterlimit="10" stroke-linecap="round" stroke-linejoin="round"/>
<path d="M533.479 342.058H545.02" stroke="#FF5757" stroke-width="4" stroke-miterlimit="10" stroke-linecap="round" stroke-linejoin="round"/>
<path d="M550.508 348.367H553.022" stroke="white" stroke-width="4" stroke-miterlimit="10" stroke-linecap="round" stroke-linejoin="round"/>
<path d="M540.352 348.367H546.045" stroke="#9169FF" stroke-width="4" stroke-miterlimit="10" stroke-linecap="round" stroke-linejoin="round"/>
<path d="M526.862 348.367H536.044" stroke="#7BFFA0" stroke-width="4" stroke-miterlimit="10" stroke-linecap="round" stroke-linejoin="round"/>
<path d="M546.559 354.727H562.921" stroke="#FFC47D" stroke-width="4" stroke-miterlimit="10" stroke-linecap="round" stroke-linejoin="round"/>
<path d="M526.862 354.727H541.532" stroke="#FF5757" stroke-width="4" stroke-miterlimit="10" stroke-linecap="round" stroke-linejoin="round"/>
<path d="M565.485 361.036H574.359" stroke="#9169FF" stroke-width="4" stroke-miterlimit="10" stroke-linecap="round" stroke-linejoin="round"/>
<path d="M546.559 361.036H560.767" stroke="#FF5757" stroke-width="4" stroke-miterlimit="10" stroke-linecap="round" stroke-linejoin="round"/>
<path d="M533.479 361.036H541.532" stroke="#7BFFA0" stroke-width="4" stroke-miterlimit="10" stroke-linecap="round" stroke-linejoin="round"/>
<path d="M553.021 367.345H560.767" stroke="white" stroke-width="4" stroke-miterlimit="10" stroke-linecap="round" stroke-linejoin="round"/>
<path d="M533.479 367.345H547.687" stroke="#9169FF" stroke-width="4" stroke-miterlimit="10" stroke-linecap="round" stroke-linejoin="round"/>
<path d="M573.179 373.654H582.053" stroke="white" stroke-width="4" stroke-miterlimit="10" stroke-linecap="round" stroke-linejoin="round"/>
<path d="M546.045 373.654H568.358" stroke="#FFC47D" stroke-width="4" stroke-miterlimit="10" stroke-linecap="round" stroke-linejoin="round"/>
<path d="M526.862 373.654H541.07" stroke="white" stroke-width="4" stroke-miterlimit="10" stroke-linecap="round" stroke-linejoin="round"/>
<path d="M415.772 455.158H526.307" stroke="#1F3969" stroke-width="2" stroke-miterlimit="10" stroke-linecap="round" stroke-linejoin="round"/>
<path d="M415.772 459.261H526.307" stroke="#1F3969" stroke-width="2" stroke-miterlimit="10" stroke-linecap="round" stroke-linejoin="round"/>
<path d="M527.333 451.619H414.49C415.157 453.26 415.516 455.312 415.516 457.466C415.516 459.62 415.157 461.621 414.49 463.313H527.282C526.615 461.672 526.256 459.62 526.256 457.466C526.308 455.26 526.667 453.26 527.333 451.619Z" stroke="#1F3969" stroke-width="4" stroke-miterlimit="10" stroke-linecap="round" stroke-linejoin="round"/>
<path d="M616.425 465.434H539.667V467H616.425V465.434Z" fill="#1F3969"/>
<path d="M616.425 465.434H539.667V467H616.425V465.434Z" stroke="#1F3969" stroke-width="4" stroke-miterlimit="10" stroke-linecap="round" stroke-linejoin="round"/>
<path d="M460.177 404.451H421.766C421.29 404.451 420.861 404.594 420.527 404.927L411.234 413.029C410.376 413.791 410.376 415.126 411.234 415.84L420.527 424.085C420.861 424.371 421.29 424.657 421.766 424.657H460.177C462.369 424.657 464.18 422.655 464.18 420.463V408.311C464.133 406.214 462.369 404.451 460.177 404.451ZM420.718 416.793C419.431 416.793 418.335 415.745 418.335 414.411C418.335 413.076 419.383 412.028 420.718 412.028C422.052 412.028 423.101 413.076 423.101 414.411C423.101 415.745 422.052 416.793 420.718 416.793Z" fill="white"/>
<path d="M441.782 404.451H430.583V424.704H441.782V404.451Z" fill="#F09F54"/>
<path d="M452.981 404.451H441.782V424.704H452.981V404.451Z" fill="#ED8B3B"/>
<path d="M459.176 424.704H452.981V404.451H459.367C461.988 404.451 464.18 406.595 464.18 409.264V419.748C464.133 422.465 461.893 424.704 459.176 424.704Z" fill="#FF6C37"/>
<path opacity="0.4" d="M461.226 405.451C461.035 405.404 460.844 405.404 460.654 405.404H422.243C421.766 405.404 421.337 405.547 421.004 405.88L411.711 413.982C410.853 414.744 410.853 416.079 411.711 416.794L417.525 421.893L423.815 423.465C424.101 423.561 424.435 423.561 424.769 423.561C425.388 423.561 425.96 423.418 426.532 423.132L460.749 405.69C460.892 405.642 461.083 405.547 461.226 405.451ZM421.194 417.747C419.908 417.747 418.812 416.698 418.812 415.364C418.812 414.029 419.86 412.981 421.194 412.981C422.529 412.981 423.577 414.029 423.577 415.364C423.577 416.698 422.529 417.747 421.194 417.747Z" fill="#848484"/>
<path d="M460.177 404.451H421.766C421.29 404.451 420.861 404.594 420.527 404.927L411.234 413.029C410.376 413.791 410.376 415.126 411.234 415.84L420.527 424.085C420.861 424.371 421.29 424.657 421.766 424.657H460.177C462.369 424.657 464.18 422.655 464.18 420.463V408.311C464.133 406.214 462.369 404.451 460.177 404.451ZM420.718 416.793C419.431 416.793 418.335 415.745 418.335 414.411C418.335 413.076 419.383 412.028 420.718 412.028C422.052 412.028 423.101 413.076 423.101 414.411C423.101 415.745 422.052 416.793 420.718 416.793Z" stroke="#1F3969" stroke-width="4" stroke-miterlimit="10" stroke-linecap="round" stroke-linejoin="round"/>
<path d="M441.782 404.451H430.583V424.704H441.782V404.451Z" stroke="#1F3969" stroke-width="4" stroke-miterlimit="10" stroke-linecap="round" stroke-linejoin="round"/>
<path d="M452.981 404.451H441.782V424.704H452.981V404.451Z" stroke="#1F3969" stroke-width="4" stroke-miterlimit="10" stroke-linecap="round" stroke-linejoin="round"/>
<path d="M459.176 424.704H452.981V404.451H459.367C461.988 404.451 464.18 406.595 464.18 409.264V419.748C464.133 422.465 461.893 424.704 459.176 424.704Z" stroke="#1F3969" stroke-width="4" stroke-miterlimit="10" stroke-linecap="round" stroke-linejoin="round"/>
<path d="M450.265 385.197L416.048 402.64C415.619 402.83 415.333 403.211 415.142 403.64L410.567 415.078C410.138 416.126 410.758 417.318 411.854 417.604L423.816 420.654C424.244 420.749 424.721 420.701 425.15 420.511L459.367 403.069C461.321 402.068 462.083 399.685 461.083 397.779L455.555 386.961C454.554 384.959 452.171 384.197 450.265 385.197Z" fill="white"/>
<path d="M443.82 388.462L433.843 393.552L442.94 411.382L452.917 406.292L443.82 388.462Z" fill="#8D91DB"/>
<path d="M450.265 385.197L416.048 402.64C415.619 402.83 415.333 403.211 415.142 403.64L410.567 415.078C410.138 416.126 410.758 417.318 411.854 417.604L423.816 420.654C424.244 420.749 424.721 420.701 425.15 420.511L459.367 403.069C461.321 402.068 462.083 399.685 461.083 397.779L455.555 386.961C454.554 384.959 452.171 384.197 450.265 385.197Z" stroke="#1F3969" stroke-width="4" stroke-miterlimit="10" stroke-linecap="round" stroke-linejoin="round"/>
<path d="M419.669 414.792C421.196 414.792 422.433 413.554 422.433 412.028C422.433 410.501 421.196 409.264 419.669 409.264C418.143 409.264 416.905 410.501 416.905 412.028C416.905 413.554 418.143 414.792 419.669 414.792Z" fill="#444E59"/>
<path d="M433.822 393.578L423.846 398.668L432.943 416.498L442.919 411.408L433.822 393.578Z" fill="#BECCD5" stroke="#1F3969" stroke-width="4" stroke-miterlimit="10" stroke-linecap="round" stroke-linejoin="round"/>
<path d="M433.822 393.578L423.846 398.668L432.943 416.498L442.919 411.408L433.822 393.578Z" stroke="#1F3969" stroke-width="4" stroke-miterlimit="10" stroke-linecap="round" stroke-linejoin="round"/>
<path d="M443.82 388.462L433.843 393.552L442.94 411.382L452.917 406.292L443.82 388.462Z" stroke="#1F3969" stroke-width="4" stroke-miterlimit="10" stroke-linecap="round" stroke-linejoin="round"/>
<path d="M458.604 403.402L452.886 406.309L443.783 388.486L449.502 385.579C451.837 384.387 454.696 385.293 455.936 387.676L460.701 397.016C461.893 399.351 460.939 402.211 458.604 403.402Z" fill="#6567C3"/>
<path d="M458.604 403.402L452.886 406.309L443.783 388.486L449.502 385.579C451.837 384.387 454.696 385.293 455.936 387.676L460.701 397.016C461.893 399.351 460.939 402.211 458.604 403.402Z" stroke="#1F3969" stroke-width="4" stroke-miterlimit="10" stroke-linecap="round" stroke-linejoin="round"/>
<path d="M504.936 466.138H478.608C476.457 466.138 474.696 464.378 474.696 462.226V409.453C474.696 407.302 476.457 405.541 478.608 405.541H504.936C507.088 405.541 508.848 407.302 508.848 409.453V462.226C508.848 464.417 507.088 466.138 504.936 466.138Z" fill="white"/>
<path d="M509.396 423.732H474.696V409.375C474.696 407.263 476.418 405.541 478.53 405.541H505.327C507.557 405.541 509.357 407.38 509.357 409.571V423.732H509.396Z" fill="#6567C3"/>
<path d="M504.936 466.138H478.608C476.457 466.138 474.696 464.378 474.696 462.226V409.453C474.696 407.302 476.457 405.541 478.608 405.541H504.936C507.088 405.541 508.848 407.302 508.848 409.453V462.226C508.848 464.417 507.088 466.138 504.936 466.138Z" stroke="#1F3969" stroke-width="4" stroke-miterlimit="10" stroke-linecap="round" stroke-linejoin="round"/>
<path d="M504.975 466.138H478.725C476.495 466.138 474.657 464.3 474.657 462.07V454.559H508.848V462.266C508.848 464.417 507.087 466.138 504.975 466.138Z" fill="#BBBFC2"/>
<path d="M505.053 466.138H478.725C476.495 466.138 474.657 464.3 474.657 462.07V454.559H508.848V462.344C508.848 464.456 507.126 466.138 505.053 466.138Z" stroke="#1F3969" stroke-width="4" stroke-miterlimit="10" stroke-linecap="round" stroke-linejoin="round"/>
<path d="M492.026 462.07C493.107 462.07 493.982 461.194 493.982 460.114C493.982 459.034 493.107 458.158 492.026 458.158C490.946 458.158 490.07 459.034 490.07 460.114C490.07 461.194 490.946 462.07 492.026 462.07Z" fill="#444E59"/>
<path opacity="0.3" d="M482.403 429.796H501.689" stroke="#1F3969" stroke-width="4" stroke-miterlimit="10" stroke-linecap="round" stroke-linejoin="round"/>
<path opacity="0.3" d="M486.236 435.859H498.364" stroke="#1F3969" stroke-width="4" stroke-miterlimit="10" stroke-linecap="round" stroke-linejoin="round"/>
<path opacity="0.3" d="M482.403 441.375H501.689" stroke="#1F3969" stroke-width="4" stroke-miterlimit="10" stroke-linecap="round" stroke-linejoin="round"/>
<path opacity="0.62" d="M492.026 420.407C494.446 420.407 496.407 418.445 496.407 416.026C496.407 413.606 494.446 411.644 492.026 411.644C489.606 411.644 487.645 413.606 487.645 416.026C487.645 418.445 489.606 420.407 492.026 420.407Z" fill="white"/>
<path d="M498.364 447.439C498.364 448.652 497.386 449.63 496.173 449.63H487.919C486.706 449.63 485.728 448.652 485.728 447.439C485.728 446.226 486.706 445.248 487.919 445.248H496.173C497.386 445.209 498.364 446.187 498.364 447.439Z" fill="#ED8B3B"/>
<path d="M745.299 458.402H636.614V393.091C636.614 391.163 638.184 389.593 640.113 389.593H741.845C743.729 389.593 745.254 391.118 745.254 393.002V458.402H745.299Z" fill="#BBBFC2"/>
<path d="M745.568 458.536H636.928V393.047C636.928 391.073 638.543 389.458 640.516 389.458H741.98C743.954 389.458 745.568 391.073 745.568 393.047V458.536Z" stroke="#1F3969" stroke-width="4" stroke-miterlimit="10" stroke-linecap="round" stroke-linejoin="round"/>
<path opacity="0.71" d="M739.615 452.761V395.256H642.951V452.761H739.615Z" fill="#5D5D5D"/>
<path opacity="0.32" d="M666.578 441.805H658.235C657.741 441.805 657.337 441.401 657.337 440.908V412.335C657.337 411.841 657.741 411.437 658.235 411.437H666.578C667.071 411.437 667.475 411.841 667.475 412.335V440.953C667.475 441.401 667.071 441.805 666.578 441.805Z" fill="#848484"/>
<path opacity="0.32" d="M726.819 447.591H678.644C677.657 447.591 676.85 446.784 676.85 445.797V408.97C676.85 407.984 677.657 407.176 678.644 407.176H726.819C727.806 407.176 728.613 407.984 728.613 408.97V445.797C728.613 446.784 727.851 447.591 726.819 447.591Z" fill="#848484"/>
<path d="M739.53 452.49V395.478H642.955V452.49H739.53Z" stroke="#1F3969" stroke-width="4" stroke-miterlimit="10" stroke-linecap="round" stroke-linejoin="round"/>
<path d="M757.41 458.536H625.041V462.752C625.041 464.726 626.656 466.341 628.629 466.341H753.822C755.796 466.341 757.41 464.726 757.41 462.752V458.536Z" fill="white"/>
<path opacity="0.8" d="M630.11 466.61H752.387C754.854 466.61 756.872 464.726 757.321 462.169H625.131C625.579 464.726 627.643 466.61 630.11 466.61Z" fill="#BBBFC2"/>
<path d="M757.41 458.536H625.041V462.752C625.041 464.726 626.656 466.341 628.629 466.341H753.822C755.796 466.341 757.41 464.726 757.41 462.752V458.536Z" stroke="#1F3969" stroke-width="4" stroke-miterlimit="10" stroke-linecap="round" stroke-linejoin="round"/>
<path d="M665.053 409.15H654.96V419.242H665.053V409.15Z" fill="#F09F54"/>
<path d="M665.232 409.24H655.139V419.332H665.232V409.24Z" stroke="#1F3969" stroke-width="4" stroke-miterlimit="10" stroke-linecap="round" stroke-linejoin="round"/>
<path d="M665.232 409.24H655.139V419.332H665.232V409.24Z" stroke="#1F3969" stroke-width="4" stroke-miterlimit="10" stroke-linecap="round" stroke-linejoin="round"/>
<path d="M665.053 419.242H654.96V429.335H665.053V419.242Z" fill="#8D91DB"/>
<path d="M665.232 419.377H655.139V429.47H665.232V419.377Z" stroke="#1F3969" stroke-width="4" stroke-miterlimit="10" stroke-linecap="round" stroke-linejoin="round"/>
<path d="M665.053 429.335H654.96V439.427H665.053V429.335Z" fill="#6567C3"/>
<path d="M665.232 429.47H655.139V439.562H665.232V429.47Z" stroke="#1F3969" stroke-width="4" stroke-miterlimit="10" stroke-linecap="round" stroke-linejoin="round"/>
<path d="M723.903 444.496H675.683C674.697 444.496 673.889 443.689 673.889 442.702V405.875C673.889 404.889 674.697 404.081 675.683 404.081H723.903C724.89 404.081 725.698 404.889 725.698 405.875V442.702C725.698 443.734 724.89 444.496 723.903 444.496Z" fill="white"/>
<path d="M723.903 444.496H675.683C674.697 444.496 673.889 443.689 673.889 442.702V405.875C673.889 404.889 674.697 404.081 675.683 404.081H723.903C724.89 404.081 725.698 404.889 725.698 405.875V442.702C725.698 443.734 724.89 444.496 723.903 444.496Z" stroke="#1F3969" stroke-width="4" stroke-miterlimit="10" stroke-linecap="round" stroke-linejoin="round"/>
<g opacity="0.3">
<g opacity="0.3">
<path opacity="0.3" d="M710.536 433.865V434.538H709.863" stroke="#1F3969" stroke-width="2" stroke-linejoin="round"/>
<path opacity="0.3" d="M709.011 434.538H690.217" stroke="#1F3969" stroke-width="2" stroke-linejoin="round" stroke-dasharray="2.86 2.86"/>
<path opacity="0.3" d="M689.768 434.538H689.095V433.865" stroke="#1F3969" stroke-width="2" stroke-linejoin="round"/>
<path opacity="0.3" d="M689.095 432.923V415.43" stroke="#1F3969" stroke-width="2" stroke-linejoin="round" stroke-dasharray="3 3"/>
<path opacity="0.3" d="M689.095 414.981V414.308H689.768" stroke="#1F3969" stroke-width="2" stroke-linejoin="round"/>
<path opacity="0.3" d="M690.62 414.308H709.415" stroke="#1F3969" stroke-width="2" stroke-linejoin="round" stroke-dasharray="2.86 2.86"/>
<path opacity="0.3" d="M709.863 414.308H710.536V414.981" stroke="#1F3969" stroke-width="2" stroke-linejoin="round"/>
<path opacity="0.3" d="M710.536 415.878V433.417" stroke="#1F3969" stroke-width="2" stroke-linejoin="round" stroke-dasharray="3 3"/>
</g>
</g>
<path d="M690.8 412.738H687.615V415.923H690.8V412.738Z" fill="white"/>
<path d="M690.62 412.604H687.48V415.744H690.62V412.604Z" stroke="#1F3969" stroke-miterlimit="10" stroke-linejoin="round"/>
<path d="M690.8 432.923H687.615V436.108H690.8V432.923Z" fill="white"/>
<path d="M690.62 432.834H687.48V435.974H690.62V432.834Z" stroke="#1F3969" stroke-miterlimit="10" stroke-linejoin="round"/>
<path d="M712.151 412.738H708.966V415.923H712.151V412.738Z" fill="white"/>
<path d="M712.106 412.604H708.966V415.744H712.106V412.604Z" stroke="#1F3969" stroke-miterlimit="10" stroke-linejoin="round"/>
<path d="M712.151 432.923H708.966V436.108H712.151V432.923Z" fill="white"/>
<path d="M712.107 432.834H708.967V435.974H712.107V432.834Z" stroke="#1F3969" stroke-miterlimit="10" stroke-linejoin="round"/>
<path d="M660.208 424.58L663.393 431.398L666.488 433.013L668.641 430.86L667.071 427.72L660.208 424.58Z" fill="white"/>
<path d="M660.208 424.58L663.393 431.398L666.488 433.013L668.641 430.86L667.071 427.72L660.208 424.58Z" stroke="#1F3969" stroke-miterlimit="10" stroke-linejoin="round"/>
<path d="M664.245 429.29C664.716 429.29 665.097 428.909 665.097 428.438C665.097 427.967 664.716 427.586 664.245 427.586C663.774 427.586 663.393 427.967 663.393 428.438C663.393 428.909 663.774 429.29 664.245 429.29Z" fill="#444E59"/>
<path d="M660.208 424.58L663.752 428.124" stroke="#1F3969" stroke-miterlimit="10" stroke-linecap="round" stroke-linejoin="round"/>
<path d="M668.654 430.825L666.498 432.981L668.052 434.535L670.209 432.379L668.654 430.825Z" fill="white"/>
<path d="M668.654 430.825L666.498 432.981L668.052 434.535L670.209 432.379L668.654 430.825Z" stroke="#1F3969" stroke-miterlimit="10" stroke-linejoin="round"/>
<path d="M772.668 409.823L767.675 410.409L772.017 447.394L777.01 446.808L772.668 409.823Z" fill="#FFA364"/>
<path d="M772.675 409.862L767.682 410.448L768.125 414.218L773.117 413.632L772.675 409.862Z" fill="#2AA1FF"/>
<path d="M772.675 409.862L767.682 410.448L768.125 414.218L773.117 413.632L772.675 409.862Z" stroke="#1F3969" stroke-width="4" stroke-miterlimit="10" stroke-linecap="round" stroke-linejoin="round"/>
<path d="M772.668 409.823L767.675 410.409L772.017 447.394L777.01 446.808L772.668 409.823Z" stroke="#1F3969" stroke-width="4" stroke-miterlimit="10" stroke-linecap="round" stroke-linejoin="round"/>
<path d="M786.357 417.398L781.36 416.855L777.335 453.874L782.332 454.417L786.357 417.398Z" fill="#FF5252"/>
<path d="M786.357 417.398L781.36 416.855L777.335 453.874L782.332 454.417L786.357 417.398Z" stroke="#1F3969" stroke-width="4" stroke-miterlimit="10" stroke-linecap="round" stroke-linejoin="round"/>
<path d="M786.394 417.407L781.397 416.864L780.987 420.637L785.984 421.18L786.394 417.407Z" fill="#2D425E"/>
<path d="M786.394 417.407L781.397 416.864L780.987 420.637L785.984 421.18L786.394 417.407Z" stroke="#1F3969" stroke-width="4" stroke-miterlimit="10" stroke-linecap="round" stroke-linejoin="round"/>
<path d="M789.466 466.516H769.309L766.026 435.638H792.749L789.466 466.516Z" fill="#6567C3"/>
<path d="M766.026 435.638L766.077 436.202H786.44L783.209 466.516H789.466L792.749 435.638H766.026Z" fill="#6567C3"/>
<path d="M789.466 466.516H769.309L766.026 435.638H792.749L789.466 466.516Z" stroke="#1F3969" stroke-width="4" stroke-miterlimit="10" stroke-linecap="round" stroke-linejoin="round"/>
<path d="M318.539 178.024C317.087 177.905 315.633 178.23 314.37 178.955C313.13 179.805 312.348 181.293 311.55 182.677C308.5 188.034 304.37 192.699 299.422 196.377C295.818 199.017 291.237 202.309 291.853 207.176C292.178 208.784 292.772 210.325 293.61 211.735C296.934 218.446 306.006 223.632 305.114 231.29C308.417 225.761 303.999 223.026 307.302 217.497C308.875 214.864 311.607 211.891 313.982 213.545C314.777 214.099 315.3 215.092 316.128 215.578C318.103 216.737 320.205 214.52 321.954 212.951C327.984 207.537 336.56 208.955 344.064 210.642C347.606 211.438 351.498 212.483 353.592 215.869C356.345 220.321 350.976 225.129 349.619 230.162C349.508 230.591 349.503 231.04 349.604 231.472C349.705 231.903 349.908 232.303 350.198 232.639C350.487 232.974 350.853 233.235 351.265 233.398C351.677 233.561 352.122 233.622 352.562 233.575C354.814 233.353 357.481 233.171 357.615 232.183C360.448 232.284 363.919 231.963 365.133 229.013C365.504 227.846 365.7 226.63 365.714 225.406C366.16 220.451 368.263 215.93 369.656 211.214C371.049 206.498 371.655 200.971 369.304 196.79C368.465 195.399 367.427 194.137 366.224 193.046C352.882 180.134 335.339 178.005 318.539 178.024Z" fill="#2F2E41"/>
<path d="M308.015 240.963C308.015 240.963 310.917 265.143 300.278 267.078C289.638 269.012 309.95 301.898 309.95 301.898L358.312 307.702L346.705 269.012C346.705 269.012 338.967 266.111 343.803 246.766C348.639 227.421 308.015 240.963 308.015 240.963Z" fill="#FFC897"/>
<path d="M427.469 555.798L430.371 600.29L452.618 590.618L443.912 553.863L427.469 555.798Z" fill="#FFC897"/>
<path d="M278.515 656.39L282.384 709.588H302.695L296.892 656.39H278.515Z" fill="#FFC897"/>
<path d="M279.889 697.964C277.556 701.134 278.024 705.665 275.958 709.014C274.167 711.917 270.791 713.44 268.551 716.012C267.837 716.867 267.199 717.784 266.647 718.751C264.569 722.232 262.88 726.693 264.927 730.193C266.573 733.008 270.034 734.108 273.207 734.858C277.219 735.805 281.387 736.564 285.444 735.84C289.502 735.115 293.468 732.631 294.914 728.771C295.199 727.801 295.537 726.847 295.927 725.914C298.126 721.584 305.025 721.537 307.276 717.234C308.851 714.223 307.403 710.582 305.955 707.508L301.535 698.116C300.068 694.999 294.121 696.792 291.02 696.045C286.977 695.071 282.797 693.998 279.889 697.964Z" fill="#2F2E41"/>
<path d="M264.006 453.271C264.006 453.271 264.974 509.37 270.777 527.748C276.58 546.125 275.613 547.092 274.646 549.994C273.679 552.896 272.711 550.961 272.711 555.798C272.711 560.634 270.777 637.045 272.711 643.816C274.646 650.586 266.908 662.193 272.711 663.161C278.515 664.128 305.597 663.161 306.565 657.357C307.532 651.554 298.827 649.619 302.696 645.75C306.565 641.881 312.368 562.568 312.368 562.568L325.909 507.436L351.058 478.419L376.5 474.5L404.255 478.419L420.698 542.256C420.698 542.256 413.928 560.634 418.764 560.634C423.6 560.634 452.617 566.437 452.617 545.158C452.617 523.879 442.945 461.008 441.01 459.074C439.076 457.14 441.978 450.369 439.076 447.467C436.174 444.565 402.321 424.254 389.747 420.385C377.173 416.516 359.534 411.911 359.534 411.911L264.006 453.271Z" fill="#2F2E41"/>
<path d="M452.617 582.88C452.617 582.88 438.109 578.044 431.338 592.552C424.567 607.061 427.469 610.93 427.469 610.93C427.469 610.93 449.716 618.668 453.585 614.799C455.268 613.116 460.613 612.531 466.115 612.407C474.495 612.219 476.724 600.364 468.81 597.603C468.574 597.521 468.335 597.449 468.093 597.389C460.355 595.454 452.617 582.88 452.617 582.88Z" fill="#2F2E41"/>
<path d="M329.779 256.922C345.804 256.922 358.796 243.931 358.796 227.905C358.796 211.879 345.804 198.888 329.779 198.888C313.753 198.888 300.762 211.879 300.762 227.905C300.762 243.931 313.753 256.922 329.779 256.922Z" fill="#FFC897"/>
<path d="M292.056 279.168C292.056 279.168 339.451 288.841 351.058 273.365C362.665 257.889 367.501 316.89 367.501 316.89L373.304 378.793L364.599 412.647C364.599 412.647 319.139 449.402 304.63 452.303C290.122 455.205 267.875 457.14 267.875 457.14C267.875 457.14 274.646 349.776 274.646 347.842C274.646 345.907 292.056 279.168 292.056 279.168Z" fill="#6C63FF"/>
<path d="M306.47 261.028C306.47 261.028 295.925 254.987 293.024 260.791C290.122 266.594 263.039 281.103 260.138 281.103C257.236 281.103 265.941 361.383 262.072 371.056C258.203 380.728 239.826 451.336 250.465 457.14C261.105 462.943 253.367 451.336 264.006 465.845C274.646 480.353 326.877 480.353 329.778 474.55C332.68 468.746 306.565 425.221 311.401 384.597C316.237 343.973 323.975 287.873 317.204 280.136C310.434 272.398 306.47 261.028 306.47 261.028Z" fill="#2F2E41"/>
<path d="M341.385 267.562L342.733 262.925C342.733 262.925 382.976 276.267 384.911 284.972C386.845 293.677 385.878 354.613 379.107 359.449C372.337 364.285 362.664 372.023 369.435 383.63C376.206 395.236 383.944 407.811 389.747 408.778C395.55 409.745 406.19 416.516 403.288 423.286C400.387 430.057 365.566 417.483 365.566 417.483C365.566 417.483 342.352 400.073 343.32 372.99C344.287 345.907 341.385 267.562 341.385 267.562Z" fill="#2F2E41"/>
<path d="M375.239 381.695L352.025 425.221C352.025 425.221 318.172 460.041 337.516 463.91C356.861 467.779 367.501 431.991 367.501 431.991L392.649 396.204L375.239 381.695Z" fill="#FFC897"/>
<path d="M319.952 185.616C318.783 185.53 317.611 185.757 316.559 186.274C315.607 186.969 314.823 187.868 314.264 188.905C311.684 192.786 308.321 196.084 304.391 198.588C301.457 200.454 297.727 202.781 298.229 206.221C298.502 207.374 298.987 208.467 299.659 209.443C302.375 214.234 303.456 219.78 302.739 225.24L310.805 213.515C312.086 211.654 314.31 209.553 316.243 210.722C316.891 211.113 317.316 211.815 317.99 212.159C319.598 212.978 321.309 211.412 322.733 210.302C327.641 206.476 334.622 207.478 340.731 208.67C343.615 209.233 346.783 209.972 348.487 212.365C351.32 216.342 348.362 222.088 350.016 226.683C350.478 226.359 350.871 225.945 351.171 225.466C351.471 224.987 351.672 224.453 351.762 223.895C354.068 223.967 356.894 223.74 357.882 221.655C358.182 220.838 358.343 219.976 358.356 219.105C358.718 215.603 360.43 212.408 361.564 209.075C362.698 205.741 363.192 201.835 361.278 198.88C360.578 197.878 359.732 196.987 358.77 196.234C347.909 187.108 333.629 185.603 319.952 185.616Z" fill="#2F2E41"/>
<path d="M375.238 281.103L384.25 283.495C384.25 283.495 405.223 337.202 400.387 373.957C395.55 410.712 392.649 402.974 392.649 402.974C392.649 402.974 384.911 385.564 367.5 389.433L375.238 281.103Z" fill="#2F2E41"/>
<path d="M247.563 401.04L288.187 463.91C288.187 463.91 313.335 495.829 321.073 481.32C328.811 466.812 293.991 442.631 293.991 442.631L267.875 394.269L247.563 401.04Z" fill="#FFC897"/>
<path d="M267.875 283.037L260.138 281.103C260.138 281.103 244.662 285.939 240.793 306.251C236.924 326.563 239.826 407.811 244.662 408.778C249.498 409.745 268.548 394.631 271.597 397.835C274.646 401.04 264.974 384.597 267.875 375.892C270.777 367.187 267.875 283.037 267.875 283.037Z" fill="#2F2E41"/>
<path d="M188.623 643.885L169.075 651.45L140.492 662.5C139.41 660.514 137.821 657.754 135.856 654.558C129.085 643.339 117.876 625.886 107.908 610.547C96.6798 593.222 87 578.658 87 578.658L94.0092 576.672L151.184 560.093L188.623 643.885Z" fill="#E6ECF8"/>
<path opacity="0.1" d="M188.623 643.885L169.075 651.45C158.153 653.723 147.009 654.749 135.856 654.508C129.085 643.289 117.876 625.836 107.908 610.497L94.0093 576.603L151.185 560.023L188.623 643.885Z" fill="black"/>
<path d="M203.157 639.219C203.157 639.219 172.778 657.189 127.417 653.118L91.2588 564.967L108.593 561.989L168.499 551.704L202.472 637.501L203.157 639.219Z" fill="#6C63FF"/>
<path opacity="0.1" d="M202.492 637.471C194.571 637.906 186.628 637.68 178.744 636.796C169.73 635.734 160.665 633.56 152.932 629.549C146.835 626.518 141.161 622.703 136.054 618.201C123.455 606.873 115.662 590.661 108.663 561.959L168.568 551.674L202.492 637.471Z" fill="black"/>
<path d="M224.781 632.547C224.781 632.547 202.373 636.935 179.599 634.235C170.584 633.173 161.52 630.989 153.786 626.988C147.693 623.95 142.02 620.136 136.908 615.64C121.321 601.612 113.081 580.118 104.603 536.702C104.603 536.702 141.823 545.638 178.616 526C178.566 526.04 190.976 603.478 224.781 632.547Z" fill="#F9FAFB"/>
<path opacity="0.1" d="M179.599 634.255C170.584 633.193 161.52 631.008 153.786 627.007C147.693 623.97 142.02 620.156 136.908 615.66C150.182 614.578 152.088 607.32 152.088 607.32C161.887 622.917 179.599 634.255 179.599 634.255Z" fill="black"/>
<path opacity="0.3" d="M123.803 552.637C123.803 552.637 154.073 550.929 162.522 544.406L163.813 548.517C163.813 548.517 143.808 557.343 123.803 557.452V552.637Z" fill="#6C63FF"/>
<path opacity="0.3" d="M123.803 572.959C123.803 572.959 153.11 571.361 175.25 560.659L176.004 562.376C176.004 562.376 158.422 572.632 123.803 575.283V572.959Z" fill="#6C63FF"/>
<path opacity="0.3" d="M126.156 580.902C126.156 580.902 155.474 579.294 177.613 568.601L178.358 570.309C178.358 570.309 160.785 580.564 126.156 583.215V580.902Z" fill="#6C63FF"/>
<path opacity="0.3" d="M128.519 588.834C128.519 588.834 157.826 587.236 179.965 576.534L180.72 578.251C180.72 578.251 163.137 588.507 128.519 591.157V588.834Z" fill="#6C63FF"/>
<path opacity="0.3" d="M130.872 596.777C130.872 596.777 160.189 595.168 182.329 584.476L183.073 586.183C183.073 586.183 165.501 596.439 130.872 599.09V596.777Z" fill="#6C63FF"/>
<path opacity="0.3" d="M133.234 604.709C133.234 604.709 162.542 603.111 184.681 592.408L185.436 594.126C185.436 594.126 167.853 604.382 133.234 607.032V604.709Z" fill="#6C63FF"/>
<path d="M554.183 222.367L530.193 216.524L536.071 192.498L560.062 198.341L554.183 222.367ZM531.491 215.733L553.396 221.068L558.763 199.132L536.859 193.797L531.491 215.733Z" fill="#CCCCCC"/>
<path d="M550.598 185.812L530.841 181L526 200.786L545.757 205.598L550.598 185.812Z" fill="#6C63FF"/>
<path d="M609.183 295.367L585.193 289.524L591.071 265.498L615.062 271.341L609.183 295.367ZM586.491 288.733L608.396 294.068L613.763 272.132L591.859 266.797L586.491 288.733Z" fill="#CCCCCC"/>
<path d="M605.598 258.812L585.841 254L581 273.786L600.757 278.598L605.598 258.812Z" fill="#6C63FF"/>
<path d="M434.183 277.367L410.193 271.524L416.071 247.498L440.062 253.341L434.183 277.367ZM411.491 270.733L433.396 276.068L438.763 254.132L416.859 248.797L411.491 270.733Z" fill="#CCCCCC"/>
<path d="M430.598 240.812L410.841 236L406 255.786L425.757 260.598L430.598 240.812Z" fill="#6C63FF"/>
<path d="M709.183 213.367L685.193 207.524L691.071 183.498L715.062 189.341L709.183 213.367ZM686.491 206.733L708.396 212.068L713.763 190.132L691.859 184.797L686.491 206.733Z" fill="#CCCCCC"/>
<path d="M705.598 176.812L685.841 172L681 191.786L700.757 196.598L705.598 176.812Z" fill="#6C63FF"/>
<path d="M603.67 205.628L605.298 223.713L623.383 222.085L621.755 204L603.67 205.628Z" fill="#CECECE"/>
<path d="M593.621 216.95L615.58 214.974L617.557 236.934L595.598 238.91L593.621 216.95ZM614.712 216.014L594.661 217.819L596.466 237.87L616.517 236.065L614.712 216.014Z" fill="#CCCCCC"/>
<path d="M718.67 245.628L720.298 263.713L738.383 262.085L736.755 244L718.67 245.628Z" fill="#CECECE"/>
<path d="M708.621 256.95L730.58 254.974L732.557 276.934L710.598 278.91L708.621 256.95ZM729.712 256.014L709.661 257.819L711.466 277.87L731.517 276.065L729.712 256.014Z" fill="#CCCCCC"/>
<path d="M505.67 243.628L507.298 261.713L525.383 260.085L523.755 242L505.67 243.628Z" fill="#CECECE"/>
<path d="M495.621 254.95L517.58 252.974L519.557 274.934L497.598 276.91L495.621 254.95ZM516.712 254.014L496.661 255.819L498.466 275.87L518.517 274.065L516.712 254.014Z" fill="#CCCCCC"/>
<path d="M459.381 317.133L441.91 322.08L446.857 339.551L464.328 334.604L459.381 317.133Z" fill="#CECECE"/>
<path d="M446.394 309.353L452.401 330.568L431.186 336.575L425.179 315.36L446.394 309.353ZM451.218 329.906L445.733 310.537L426.363 316.021L431.848 335.391L451.218 329.906Z" fill="#CCCCCC"/>
<path d="M432.67 162.628L434.298 180.713L452.383 179.085L450.755 161L432.67 162.628Z" fill="#CECECE"/>
<path d="M422.621 173.95L444.58 171.974L446.557 193.934L424.598 195.91L422.621 173.95ZM443.712 173.014L423.661 174.819L425.466 194.87L445.517 193.065L443.712 173.014Z" fill="#CCCCCC"/>
<defs>
<radialGradient id="paint0_radial" cx="0" cy="0" r="1" gradientUnits="userSpaceOnUse" gradientTransform="translate(443 424) rotate(90.1796) scale(413.002)">
<stop stop-color="#FFD5D5"/>
<stop offset="1" stop-color="#EDF2F8"/>
</radialGradient>
</defs>
</svg>
