<svg width="834" height="652" viewBox="0 0 834 652" fill="none" xmlns="http://www.w3.org/2000/svg">
<g opacity="0.4">
<g opacity="0.4">
<g opacity="0.4">
<path opacity="0.4" d="M704.4 337.7L670.9 279.7L704.4 221.7H771.3L804.8 279.7L771.3 337.7H704.4Z" stroke="white" stroke-width="6" stroke-miterlimit="10"/>
</g>
</g>
</g>
<g opacity="0.4">
<g opacity="0.4">
<g opacity="0.4">
<path opacity="0.4" d="M588.4 270.8L555 212.8L588.4 154.8H655.3L688.8 212.8L655.3 270.8H588.4Z" fill="white" stroke="white" stroke-width="6" stroke-miterlimit="10"/>
</g>
<g opacity="0.4">
<path opacity="0.4" d="M588.4 137L555 79L588.4 21H655.3L688.8 79L655.3 137H588.4Z" stroke="white" stroke-width="6" stroke-miterlimit="10"/>
</g>
</g>
<g opacity="0.4">
<g opacity="0.4">
<path opacity="0.4" d="M472.4 337.7L439 279.7L472.4 221.7H539.3L572.8 279.7L539.3 337.7H472.4Z" stroke="white" stroke-width="6" stroke-miterlimit="10"/>
</g>
<g opacity="0.4">
<path opacity="0.4" d="M472.4 203.9L439 145.9L472.4 87.9H539.3L572.8 145.9L539.3 203.9H472.4Z" fill="white" stroke="white" stroke-width="6" stroke-miterlimit="10"/>
</g>
</g>
</g>
<g opacity="0.4">
<g opacity="0.4">
<g opacity="0.4">
<path opacity="0.4" d="M356.5 404.6L323 346.6L356.5 288.6H423.4L456.8 346.6L423.4 404.6H356.5Z" fill="white" stroke="white" stroke-width="6" stroke-miterlimit="10"/>
</g>
<g opacity="0.4">
<path opacity="0.4" d="M356.5 270.8L323 212.8L356.5 154.8H423.4L456.8 212.8L423.4 270.8H356.5Z" stroke="white" stroke-width="6" stroke-miterlimit="10"/>
</g>
<g opacity="0.4">
<path opacity="0.4" d="M356.5 137L323 79L356.5 21H423.4L456.8 79L423.4 137H356.5Z" stroke="white" stroke-width="6" stroke-miterlimit="10"/>
</g>
</g>
<g opacity="0.4">
<g opacity="0.4">
<path opacity="0.4" d="M240.5 203.9L207 145.9L240.5 87.9H307.4L340.8 145.9L307.4 203.9H240.5Z" fill="white" stroke="white" stroke-width="6" stroke-miterlimit="10"/>
</g>
</g>
</g>
<g opacity="0.4">
<g opacity="0.4">
<g opacity="0.4">
<path opacity="0.4" d="M124.5 404.6L91 346.6L124.5 288.6H191.4L224.9 346.6L191.4 404.6H124.5Z" fill="white" stroke="white" stroke-width="6" stroke-miterlimit="10"/>
</g>
<g opacity="0.4">
<path opacity="0.4" d="M124.5 270.8L91 212.8L124.5 154.8H191.4L224.9 212.8L191.4 270.8H124.5Z" stroke="white" stroke-width="6" stroke-miterlimit="10"/>
</g>
</g>
</g>
<path d="M212.375 397.07H221.651L218.559 597H215.467L212.375 397.07Z" fill="#444E59"/>
<path d="M221.651 397.07H248.446L245.354 549.594L218.559 597L221.651 397.07Z" fill="#CECECE"/>
<path d="M670.978 397.07H605.022V597H670.978V397.07Z" fill="#444E59"/>
<path d="M605.021 397.07H578.227V549.594L605.021 597V397.07Z" fill="#CECECE"/>
<path d="M714.777 383.672H172.699C168.999 383.672 166 386.671 166 390.371C166 394.07 168.999 397.069 172.699 397.069H714.777C718.477 397.069 721.476 394.07 721.476 390.371C721.476 386.671 718.477 383.672 714.777 383.672Z" fill="#AB784B"/>
<path d="M202.07 361H685.406L716.323 383.672H171.153L202.07 361Z" fill="#D2D2D2"/>
<path d="M362.892 351.618H265.488C263.59 351.618 262 350.079 262 348.13V335.307C262 333.409 263.539 331.819 265.488 331.819H362.892C364.79 331.819 366.38 333.358 366.38 335.307V348.13C366.38 350.079 364.841 351.618 362.892 351.618Z" fill="#50B56F"/>
<path d="M362.892 351.618H265.488C263.59 351.618 262 350.079 262 348.13V335.307C262 333.409 263.539 331.819 265.488 331.819H362.892C364.79 331.819 366.38 333.358 366.38 335.307V348.13C366.38 350.079 364.841 351.618 362.892 351.618Z" stroke="#1F3969" stroke-width="4" stroke-miterlimit="10" stroke-linecap="round" stroke-linejoin="round"/>
<path opacity="0.28" d="M365.242 331.87H349.854V339.564C349.854 344.386 353.752 348.335 358.625 348.335H368.73C368.73 348.284 368.73 348.232 368.73 348.181V335.358C368.73 333.409 367.191 331.87 365.242 331.87Z" fill="#1F3969" stroke="#1F3969" stroke-width="4" stroke-miterlimit="10" stroke-linecap="round" stroke-linejoin="round"/>
<path d="M390.333 355.619H277.49C278.157 357.26 278.516 359.312 278.516 361.466C278.516 363.62 278.157 365.621 277.49 367.313H390.282C389.615 365.672 389.256 363.62 389.256 361.466C389.308 359.26 389.667 357.26 390.333 355.619Z" fill="#CECECE"/>
<path d="M393.411 352.49H274.464V355.567H393.411V352.49Z" fill="#5F5AFF"/>
<path d="M393.411 352.49H274.464V355.567H393.411V352.49Z" stroke="#1F3969" stroke-width="4" stroke-miterlimit="10" stroke-linecap="round" stroke-linejoin="round"/>
<path d="M393.411 367.262H274.464V370.339H393.411V367.262Z" fill="#F6F9FD"/>
<path d="M393.411 367.262H274.464V370.339H393.411V367.262Z" fill="#5F5AFF"/>
<path d="M393.411 367.262H274.464V370.339H393.411V367.262Z" stroke="#1F3969" stroke-width="4" stroke-miterlimit="10" stroke-linecap="round" stroke-linejoin="round"/>
<path d="M454.85 359.414L453.311 342.129H427.972L426.434 359.414C426.075 363.415 423.664 367.262 419.868 370.339V370.391H461.415V370.339C457.619 367.262 455.209 363.415 454.85 359.414Z" fill="#BFCFE2"/>
<path opacity="0.28" d="M427.973 342.129L427.049 352.49H454.234L453.311 342.129H427.973Z" fill="#1F3969" stroke="#1F3969" stroke-width="4" stroke-miterlimit="10" stroke-linecap="round" stroke-linejoin="round"/>
<path d="M454.85 359.414L453.311 342.129H427.972L426.434 359.414C426.075 363.415 423.664 367.262 419.868 370.339V370.391H461.415V370.339C457.619 367.262 455.209 363.415 454.85 359.414Z" stroke="#1F3969" stroke-width="4" stroke-miterlimit="10" stroke-linecap="round" stroke-linejoin="round"/>
<path d="M521.683 344.693H359.599C356.214 344.693 353.444 341.923 353.444 338.538V232.876C353.444 229.491 356.214 226.721 359.599 226.721H521.683C525.069 226.721 527.838 229.491 527.838 232.876V338.538C527.838 341.975 525.069 344.693 521.683 344.693Z" fill="white"/>
<path d="M521.683 344.693H359.599C356.214 344.693 353.444 341.923 353.444 338.538V232.876C353.444 229.491 356.214 226.721 359.599 226.721H521.683C525.069 226.721 527.838 229.491 527.838 232.876V338.538C527.838 341.975 525.069 344.693 521.683 344.693Z" fill="#BFCFE2"/>
<path d="M521.683 344.693H359.599C356.214 344.693 353.444 341.923 353.444 338.538V232.876C353.444 229.491 356.214 226.721 359.599 226.721H521.683C525.069 226.721 527.838 229.491 527.838 232.876V338.538C527.838 341.975 525.069 344.693 521.683 344.693Z" stroke="#1F3969" stroke-width="4" stroke-miterlimit="10" stroke-linecap="round" stroke-linejoin="round"/>
<path d="M519.147 325.011V235.455H362.193V325.011H519.147Z" fill="#F6F9FD"/>
<path opacity="0.28" d="M367.807 226.721V297.812C367.807 300.069 369.653 301.915 371.91 301.915H468.904C471.161 301.915 473.007 300.069 473.007 297.812V226.721H367.807Z" fill="#1F3969" stroke="#1F3969" stroke-width="4" stroke-miterlimit="10" stroke-linecap="round" stroke-linejoin="round"/>
<path d="M519.147 325.011V235.455H362.193V325.011H519.147Z" stroke="#1F3969" stroke-width="4" stroke-miterlimit="10" stroke-linecap="round" stroke-linejoin="round"/>
<path d="M433.769 334.794H447.566" stroke="#1F3969" stroke-width="4" stroke-miterlimit="10" stroke-linecap="round" stroke-linejoin="round"/>
<path d="M473.52 296.273H376.526C374.269 296.273 372.423 294.427 372.423 292.17V216.155C372.423 213.898 374.269 212.051 376.526 212.051H473.52C475.777 212.051 477.623 213.898 477.623 216.155V292.221C477.623 294.478 475.777 296.273 473.52 296.273Z" fill="#2D425E"/>
<path d="M477.623 222.002H372.423V216.103C372.423 213.847 374.269 212 376.526 212H473.52C475.777 212 477.623 213.847 477.623 216.103V222.002Z" stroke="#1F3969" stroke-width="4" stroke-miterlimit="10" stroke-linecap="round" stroke-linejoin="round"/>
<path d="M477.623 223.951H372.423V216.103C372.423 213.847 374.269 212 376.526 212H473.52C475.777 212 477.623 213.847 477.623 216.103V223.951Z" fill="#D0DDF0"/>
<path d="M477.623 223.951H372.423V216.103C372.423 213.847 374.269 212 376.526 212H473.52C475.777 212 477.623 213.847 477.623 216.103V223.951Z" stroke="#1F3969" stroke-width="4" stroke-miterlimit="10" stroke-linecap="round" stroke-linejoin="round"/>
<path d="M477.623 223.951H372.423V216.103C372.423 213.847 374.269 212 376.526 212H473.52C475.777 212 477.623 213.847 477.623 216.103V223.951Z" stroke="#1F3969" stroke-width="4" stroke-miterlimit="10" stroke-linecap="round" stroke-linejoin="round"/>
<path d="M473.52 296.273H376.526C374.269 296.273 372.423 294.427 372.423 292.17V216.155C372.423 213.898 374.269 212.051 376.526 212.051H473.52C475.777 212.051 477.623 213.898 477.623 216.155V292.221C477.623 294.478 475.777 296.273 473.52 296.273Z" stroke="#1F3969" stroke-width="4" stroke-miterlimit="10" stroke-linecap="round" stroke-linejoin="round"/>
<path opacity="0.28" d="M524.145 314.431H464.646C462.389 314.431 460.543 312.584 460.543 310.327V247.289C460.543 245.032 462.389 243.186 464.646 243.186H524.145C526.402 243.186 528.249 245.032 528.249 247.289V310.327C528.249 312.636 526.402 314.431 524.145 314.431Z" fill="#1F3969" stroke="#1F3969" stroke-width="4" stroke-miterlimit="10" stroke-linecap="round" stroke-linejoin="round"/>
<path d="M528.249 310.84H468.75C466.493 310.84 464.646 308.994 464.646 306.737V243.699C464.646 241.442 466.493 239.595 468.75 239.595H528.249C530.506 239.595 532.352 241.442 532.352 243.699V306.737C532.352 309.045 530.506 310.84 528.249 310.84Z" fill="#2AA1FF"/>
<path d="M528.249 310.84H468.75C466.493 310.84 464.646 308.994 464.646 306.737V243.699C464.646 241.442 466.493 239.595 468.75 239.595H528.249C530.506 239.595 532.352 241.442 532.352 243.699V306.737C532.352 309.045 530.506 310.84 528.249 310.84Z" stroke="#1F3969" stroke-width="4" stroke-miterlimit="10" stroke-linecap="round" stroke-linejoin="round"/>
<path opacity="0.34" d="M519.375 259.138H477.521C476.033 259.138 474.854 257.958 474.854 256.47V252.47C474.854 250.982 476.033 249.802 477.521 249.802H519.375C520.863 249.802 522.042 250.982 522.042 252.47V256.47C522.042 257.958 520.863 259.138 519.375 259.138Z" stroke="white" stroke-width="2" stroke-miterlimit="10" stroke-linecap="round" stroke-linejoin="round"/>
<g opacity="0.34">
<path opacity="0.34" d="M501.013 274.166H477.623C476.136 274.166 474.956 272.987 474.956 271.499V267.498C474.956 266.011 476.136 264.831 477.623 264.831H501.013C502.5 264.831 503.68 266.011 503.68 267.498V271.499C503.628 272.987 502.449 274.166 501.013 274.166Z" stroke="white" stroke-width="2" stroke-miterlimit="10" stroke-linecap="round" stroke-linejoin="round"/>
<path opacity="0.34" d="M519.427 274.166H510.348C508.86 274.166 507.681 272.987 507.681 271.499V267.498C507.681 266.011 508.86 264.831 510.348 264.831H519.427C520.914 264.831 522.094 266.011 522.094 267.498V271.499C522.094 272.987 520.914 274.166 519.427 274.166Z" stroke="white" stroke-width="2" stroke-miterlimit="10" stroke-linecap="round" stroke-linejoin="round"/>
</g>
<path d="M474.905 289.759H522.042" stroke="white" stroke-width="2" stroke-miterlimit="10" stroke-linecap="round" stroke-linejoin="round"/>
<path d="M474.905 295.299H522.042" stroke="white" stroke-width="2" stroke-miterlimit="10" stroke-linecap="round" stroke-linejoin="round"/>
<path d="M474.905 300.838H503.628" stroke="white" stroke-width="2" stroke-miterlimit="10" stroke-linecap="round" stroke-linejoin="round"/>
<path d="M382.733 220.053C383.866 220.053 384.785 219.134 384.785 218.001C384.785 216.868 383.866 215.95 382.733 215.95C381.6 215.95 380.681 216.868 380.681 218.001C380.681 219.134 381.6 220.053 382.733 220.053Z" fill="#1F3969"/>
<path d="M389.862 220.053C390.995 220.053 391.914 219.134 391.914 218.001C391.914 216.868 390.995 215.95 389.862 215.95C388.729 215.95 387.811 216.868 387.811 218.001C387.811 219.134 388.729 220.053 389.862 220.053Z" fill="#1F3969"/>
<path d="M396.992 220.053C398.125 220.053 399.043 219.134 399.043 218.001C399.043 216.868 398.125 215.95 396.992 215.95C395.859 215.95 394.94 216.868 394.94 218.001C394.94 219.134 395.859 220.053 396.992 220.053Z" fill="#1F3969"/>
<path d="M432.845 233.44H439.513" stroke="white" stroke-width="4" stroke-miterlimit="10" stroke-linecap="round" stroke-linejoin="round"/>
<path d="M399.043 233.44H427.921" stroke="#7BFFA0" stroke-width="4" stroke-miterlimit="10" stroke-linecap="round" stroke-linejoin="round"/>
<path d="M384.784 233.44H394.94" stroke="#9169FF" stroke-width="4" stroke-miterlimit="10" stroke-linecap="round" stroke-linejoin="round"/>
<path d="M398.018 283.963H420.073" stroke="#9169FF" stroke-width="4" stroke-miterlimit="10" stroke-linecap="round" stroke-linejoin="round"/>
<path d="M384.784 283.963H391.914" stroke="#7BFFA0" stroke-width="4" stroke-miterlimit="10" stroke-linecap="round" stroke-linejoin="round"/>
<path d="M427.921 239.749H432.076" stroke="white" stroke-width="4" stroke-miterlimit="10" stroke-linecap="round" stroke-linejoin="round"/>
<path d="M409.045 239.749H422.997" stroke="#9169FF" stroke-width="4" stroke-miterlimit="10" stroke-linecap="round" stroke-linejoin="round"/>
<path d="M389.862 239.749H404.07" stroke="#FFC47D" stroke-width="4" stroke-miterlimit="10" stroke-linecap="round" stroke-linejoin="round"/>
<path d="M411.867 246.058H424.126" stroke="white" stroke-width="4" stroke-miterlimit="10" stroke-linecap="round" stroke-linejoin="round"/>
<path d="M396.479 246.058H408.02" stroke="#FF5757" stroke-width="4" stroke-miterlimit="10" stroke-linecap="round" stroke-linejoin="round"/>
<path d="M413.508 252.367H416.022" stroke="white" stroke-width="4" stroke-miterlimit="10" stroke-linecap="round" stroke-linejoin="round"/>
<path d="M403.352 252.367H409.045" stroke="#9169FF" stroke-width="4" stroke-miterlimit="10" stroke-linecap="round" stroke-linejoin="round"/>
<path d="M389.862 252.367H399.044" stroke="#7BFFA0" stroke-width="4" stroke-miterlimit="10" stroke-linecap="round" stroke-linejoin="round"/>
<path d="M409.559 258.727H425.921" stroke="#FFC47D" stroke-width="4" stroke-miterlimit="10" stroke-linecap="round" stroke-linejoin="round"/>
<path d="M389.862 258.727H404.532" stroke="#FF5757" stroke-width="4" stroke-miterlimit="10" stroke-linecap="round" stroke-linejoin="round"/>
<path d="M428.485 265.036H437.359" stroke="#9169FF" stroke-width="4" stroke-miterlimit="10" stroke-linecap="round" stroke-linejoin="round"/>
<path d="M409.559 265.036H423.767" stroke="#FF5757" stroke-width="4" stroke-miterlimit="10" stroke-linecap="round" stroke-linejoin="round"/>
<path d="M396.479 265.036H404.532" stroke="#7BFFA0" stroke-width="4" stroke-miterlimit="10" stroke-linecap="round" stroke-linejoin="round"/>
<path d="M416.021 271.345H423.767" stroke="white" stroke-width="4" stroke-miterlimit="10" stroke-linecap="round" stroke-linejoin="round"/>
<path d="M396.479 271.345H410.687" stroke="#9169FF" stroke-width="4" stroke-miterlimit="10" stroke-linecap="round" stroke-linejoin="round"/>
<path d="M436.179 277.654H445.053" stroke="white" stroke-width="4" stroke-miterlimit="10" stroke-linecap="round" stroke-linejoin="round"/>
<path d="M409.045 277.654H431.358" stroke="#FFC47D" stroke-width="4" stroke-miterlimit="10" stroke-linecap="round" stroke-linejoin="round"/>
<path d="M389.862 277.654H404.07" stroke="white" stroke-width="4" stroke-miterlimit="10" stroke-linecap="round" stroke-linejoin="round"/>
<path d="M278.772 359.158H389.307" stroke="#1F3969" stroke-width="2" stroke-miterlimit="10" stroke-linecap="round" stroke-linejoin="round"/>
<path d="M278.772 363.261H389.307" stroke="#1F3969" stroke-width="2" stroke-miterlimit="10" stroke-linecap="round" stroke-linejoin="round"/>
<path d="M390.333 355.619H277.49C278.157 357.26 278.516 359.312 278.516 361.466C278.516 363.62 278.157 365.621 277.49 367.313H390.282C389.615 365.672 389.256 363.62 389.256 361.466C389.308 359.26 389.667 357.26 390.333 355.619Z" stroke="#1F3969" stroke-width="4" stroke-miterlimit="10" stroke-linecap="round" stroke-linejoin="round"/>
<path d="M479.425 369.434H402.667V371H479.425V369.434Z" fill="#1F3969"/>
<path d="M479.425 369.434H402.667V371H479.425V369.434Z" stroke="#1F3969" stroke-width="4" stroke-miterlimit="10" stroke-linecap="round" stroke-linejoin="round"/>
<path d="M323.177 308.451H284.766C284.29 308.451 283.861 308.594 283.527 308.927L274.234 317.029C273.376 317.791 273.376 319.126 274.234 319.84L283.527 328.085C283.861 328.371 284.29 328.657 284.766 328.657H323.177C325.369 328.657 327.18 326.655 327.18 324.463V312.311C327.133 310.214 325.369 308.451 323.177 308.451ZM283.718 320.793C282.431 320.793 281.335 319.745 281.335 318.411C281.335 317.076 282.383 316.028 283.718 316.028C285.052 316.028 286.101 317.076 286.101 318.411C286.101 319.745 285.052 320.793 283.718 320.793Z" fill="white"/>
<path d="M304.782 308.451H293.583V328.704H304.782V308.451Z" fill="#F09F54"/>
<path d="M315.981 308.451H304.782V328.704H315.981V308.451Z" fill="#ED8B3B"/>
<path d="M322.176 328.704H315.981V308.451H322.367C324.988 308.451 327.18 310.595 327.18 313.264V323.748C327.133 326.465 324.893 328.704 322.176 328.704Z" fill="#FF6C37"/>
<path opacity="0.4" d="M324.226 309.451C324.035 309.404 323.844 309.404 323.654 309.404H285.243C284.766 309.404 284.337 309.547 284.004 309.88L274.711 317.982C273.853 318.744 273.853 320.079 274.711 320.794L280.525 325.893L286.815 327.465C287.101 327.561 287.435 327.561 287.769 327.561C288.388 327.561 288.96 327.418 289.532 327.132L323.749 309.69C323.892 309.642 324.083 309.547 324.226 309.451ZM284.194 321.747C282.908 321.747 281.812 320.698 281.812 319.364C281.812 318.029 282.86 316.981 284.194 316.981C285.529 316.981 286.577 318.029 286.577 319.364C286.577 320.698 285.529 321.747 284.194 321.747Z" fill="#848484"/>
<path d="M323.177 308.451H284.766C284.29 308.451 283.861 308.594 283.527 308.927L274.234 317.029C273.376 317.791 273.376 319.126 274.234 319.84L283.527 328.085C283.861 328.371 284.29 328.657 284.766 328.657H323.177C325.369 328.657 327.18 326.655 327.18 324.463V312.311C327.133 310.214 325.369 308.451 323.177 308.451ZM283.718 320.793C282.431 320.793 281.335 319.745 281.335 318.411C281.335 317.076 282.383 316.028 283.718 316.028C285.052 316.028 286.101 317.076 286.101 318.411C286.101 319.745 285.052 320.793 283.718 320.793Z" stroke="#1F3969" stroke-width="4" stroke-miterlimit="10" stroke-linecap="round" stroke-linejoin="round"/>
<path d="M304.782 308.451H293.583V328.704H304.782V308.451Z" stroke="#1F3969" stroke-width="4" stroke-miterlimit="10" stroke-linecap="round" stroke-linejoin="round"/>
<path d="M315.981 308.451H304.782V328.704H315.981V308.451Z" stroke="#1F3969" stroke-width="4" stroke-miterlimit="10" stroke-linecap="round" stroke-linejoin="round"/>
<path d="M322.176 328.704H315.981V308.451H322.367C324.988 308.451 327.18 310.595 327.18 313.264V323.748C327.133 326.465 324.893 328.704 322.176 328.704Z" stroke="#1F3969" stroke-width="4" stroke-miterlimit="10" stroke-linecap="round" stroke-linejoin="round"/>
<path d="M313.265 289.197L279.048 306.64C278.619 306.83 278.333 307.211 278.142 307.64L273.567 319.078C273.138 320.126 273.758 321.318 274.854 321.604L286.816 324.654C287.244 324.749 287.721 324.701 288.15 324.511L322.367 307.069C324.321 306.068 325.083 303.685 324.083 301.779L318.555 290.961C317.554 288.959 315.171 288.197 313.265 289.197Z" fill="white"/>
<path d="M306.82 292.462L296.843 297.552L305.94 315.382L315.917 310.292L306.82 292.462Z" fill="#8D91DB"/>
<path d="M313.265 289.197L279.048 306.64C278.619 306.83 278.333 307.211 278.142 307.64L273.567 319.078C273.138 320.126 273.758 321.318 274.854 321.604L286.816 324.654C287.244 324.749 287.721 324.701 288.15 324.511L322.367 307.069C324.321 306.068 325.083 303.685 324.083 301.779L318.555 290.961C317.554 288.959 315.171 288.197 313.265 289.197Z" stroke="#1F3969" stroke-width="4" stroke-miterlimit="10" stroke-linecap="round" stroke-linejoin="round"/>
<path d="M282.669 318.792C284.196 318.792 285.433 317.554 285.433 316.028C285.433 314.501 284.196 313.264 282.669 313.264C281.143 313.264 279.905 314.501 279.905 316.028C279.905 317.554 281.143 318.792 282.669 318.792Z" fill="#444E59"/>
<path d="M296.822 297.578L286.846 302.668L295.943 320.498L305.919 315.408L296.822 297.578Z" fill="#BECCD5" stroke="#1F3969" stroke-width="4" stroke-miterlimit="10" stroke-linecap="round" stroke-linejoin="round"/>
<path d="M296.822 297.578L286.846 302.668L295.943 320.498L305.919 315.408L296.822 297.578Z" stroke="#1F3969" stroke-width="4" stroke-miterlimit="10" stroke-linecap="round" stroke-linejoin="round"/>
<path d="M306.82 292.462L296.843 297.552L305.94 315.382L315.917 310.292L306.82 292.462Z" stroke="#1F3969" stroke-width="4" stroke-miterlimit="10" stroke-linecap="round" stroke-linejoin="round"/>
<path d="M321.604 307.402L315.886 310.309L306.783 292.486L312.502 289.579C314.837 288.387 317.696 289.293 318.936 291.676L323.701 301.016C324.893 303.351 323.939 306.211 321.604 307.402Z" fill="#6567C3"/>
<path d="M321.604 307.402L315.886 310.309L306.783 292.486L312.502 289.579C314.837 288.387 317.696 289.293 318.936 291.676L323.701 301.016C324.893 303.351 323.939 306.211 321.604 307.402Z" stroke="#1F3969" stroke-width="4" stroke-miterlimit="10" stroke-linecap="round" stroke-linejoin="round"/>
<path d="M367.936 370.138H341.608C339.457 370.138 337.696 368.378 337.696 366.226V313.453C337.696 311.302 339.457 309.541 341.608 309.541H367.936C370.088 309.541 371.848 311.302 371.848 313.453V366.226C371.848 368.417 370.088 370.138 367.936 370.138Z" fill="white"/>
<path d="M372.396 327.732H337.696V313.375C337.696 311.263 339.418 309.541 341.53 309.541H368.327C370.557 309.541 372.357 311.38 372.357 313.571V327.732H372.396Z" fill="#6567C3"/>
<path d="M367.936 370.138H341.608C339.457 370.138 337.696 368.378 337.696 366.226V313.453C337.696 311.302 339.457 309.541 341.608 309.541H367.936C370.088 309.541 371.848 311.302 371.848 313.453V366.226C371.848 368.417 370.088 370.138 367.936 370.138Z" stroke="#1F3969" stroke-width="4" stroke-miterlimit="10" stroke-linecap="round" stroke-linejoin="round"/>
<path d="M367.975 370.138H341.725C339.495 370.138 337.657 368.3 337.657 366.07V358.559H371.848V366.266C371.848 368.417 370.087 370.138 367.975 370.138Z" fill="#BBBFC2"/>
<path d="M368.053 370.138H341.725C339.495 370.138 337.657 368.3 337.657 366.07V358.559H371.848V366.344C371.848 368.456 370.126 370.138 368.053 370.138Z" stroke="#1F3969" stroke-width="4" stroke-miterlimit="10" stroke-linecap="round" stroke-linejoin="round"/>
<path d="M355.026 366.07C356.107 366.07 356.982 365.194 356.982 364.114C356.982 363.034 356.107 362.158 355.026 362.158C353.946 362.158 353.07 363.034 353.07 364.114C353.07 365.194 353.946 366.07 355.026 366.07Z" fill="#444E59"/>
<path opacity="0.3" d="M345.403 333.796H364.689" stroke="#1F3969" stroke-width="4" stroke-miterlimit="10" stroke-linecap="round" stroke-linejoin="round"/>
<path opacity="0.3" d="M349.236 339.859H361.364" stroke="#1F3969" stroke-width="4" stroke-miterlimit="10" stroke-linecap="round" stroke-linejoin="round"/>
<path opacity="0.3" d="M345.403 345.375H364.689" stroke="#1F3969" stroke-width="4" stroke-miterlimit="10" stroke-linecap="round" stroke-linejoin="round"/>
<path opacity="0.62" d="M355.026 324.407C357.446 324.407 359.407 322.445 359.407 320.026C359.407 317.606 357.446 315.644 355.026 315.644C352.606 315.644 350.645 317.606 350.645 320.026C350.645 322.445 352.606 324.407 355.026 324.407Z" fill="white"/>
<path d="M361.364 351.439C361.364 352.652 360.386 353.63 359.173 353.63H350.919C349.706 353.63 348.728 352.652 348.728 351.439C348.728 350.226 349.706 349.248 350.919 349.248H359.173C360.386 349.209 361.364 350.187 361.364 351.439Z" fill="#ED8B3B"/>
<path d="M608.299 362.402H499.614V297.091C499.614 295.163 501.184 293.593 503.113 293.593H604.845C606.729 293.593 608.254 295.118 608.254 297.002V362.402H608.299Z" fill="#BBBFC2"/>
<path d="M608.568 362.536H499.928V297.047C499.928 295.073 501.543 293.458 503.516 293.458H604.98C606.954 293.458 608.568 295.073 608.568 297.047V362.536Z" stroke="#1F3969" stroke-width="4" stroke-miterlimit="10" stroke-linecap="round" stroke-linejoin="round"/>
<path opacity="0.71" d="M602.615 356.761V299.256H505.951V356.761H602.615Z" fill="#5D5D5D"/>
<path opacity="0.32" d="M529.578 345.805H521.235C520.741 345.805 520.337 345.401 520.337 344.908V316.335C520.337 315.841 520.741 315.437 521.235 315.437H529.578C530.071 315.437 530.475 315.841 530.475 316.335V344.953C530.475 345.401 530.071 345.805 529.578 345.805Z" fill="#848484"/>
<path opacity="0.32" d="M589.819 351.591H541.644C540.657 351.591 539.85 350.784 539.85 349.797V312.97C539.85 311.984 540.657 311.176 541.644 311.176H589.819C590.806 311.176 591.613 311.984 591.613 312.97V349.797C591.613 350.784 590.851 351.591 589.819 351.591Z" fill="#848484"/>
<path d="M602.53 356.49V299.478H505.955V356.49H602.53Z" stroke="#1F3969" stroke-width="4" stroke-miterlimit="10" stroke-linecap="round" stroke-linejoin="round"/>
<path d="M620.41 362.536H488.041V366.752C488.041 368.726 489.656 370.341 491.629 370.341H616.822C618.796 370.341 620.41 368.726 620.41 366.752V362.536Z" fill="white"/>
<path opacity="0.8" d="M493.11 370.61H615.387C617.854 370.61 619.872 368.726 620.321 366.169H488.131C488.579 368.726 490.643 370.61 493.11 370.61Z" fill="#BBBFC2"/>
<path d="M620.41 362.536H488.041V366.752C488.041 368.726 489.656 370.341 491.629 370.341H616.822C618.796 370.341 620.41 368.726 620.41 366.752V362.536Z" stroke="#1F3969" stroke-width="4" stroke-miterlimit="10" stroke-linecap="round" stroke-linejoin="round"/>
<path d="M528.053 313.15H517.96V323.242H528.053V313.15Z" fill="#F09F54"/>
<path d="M528.232 313.24H518.139V323.332H528.232V313.24Z" stroke="#1F3969" stroke-width="4" stroke-miterlimit="10" stroke-linecap="round" stroke-linejoin="round"/>
<path d="M528.232 313.24H518.139V323.332H528.232V313.24Z" stroke="#1F3969" stroke-width="4" stroke-miterlimit="10" stroke-linecap="round" stroke-linejoin="round"/>
<path d="M528.053 323.242H517.96V333.335H528.053V323.242Z" fill="#8D91DB"/>
<path d="M528.232 323.377H518.139V333.47H528.232V323.377Z" stroke="#1F3969" stroke-width="4" stroke-miterlimit="10" stroke-linecap="round" stroke-linejoin="round"/>
<path d="M528.053 333.335H517.96V343.427H528.053V333.335Z" fill="#6567C3"/>
<path d="M528.232 333.47H518.139V343.562H528.232V333.47Z" stroke="#1F3969" stroke-width="4" stroke-miterlimit="10" stroke-linecap="round" stroke-linejoin="round"/>
<path d="M586.903 348.496H538.683C537.697 348.496 536.889 347.689 536.889 346.702V309.875C536.889 308.889 537.697 308.081 538.683 308.081H586.903C587.89 308.081 588.698 308.889 588.698 309.875V346.702C588.698 347.734 587.89 348.496 586.903 348.496Z" fill="white"/>
<path d="M586.903 348.496H538.683C537.697 348.496 536.889 347.689 536.889 346.702V309.875C536.889 308.889 537.697 308.081 538.683 308.081H586.903C587.89 308.081 588.698 308.889 588.698 309.875V346.702C588.698 347.734 587.89 348.496 586.903 348.496Z" stroke="#1F3969" stroke-width="4" stroke-miterlimit="10" stroke-linecap="round" stroke-linejoin="round"/>
<g opacity="0.3">
<g opacity="0.3">
<path opacity="0.3" d="M573.536 337.865V338.538H572.863" stroke="#1F3969" stroke-width="2" stroke-linejoin="round"/>
<path opacity="0.3" d="M572.011 338.538H553.217" stroke="#1F3969" stroke-width="2" stroke-linejoin="round" stroke-dasharray="2.86 2.86"/>
<path opacity="0.3" d="M552.768 338.538H552.095V337.865" stroke="#1F3969" stroke-width="2" stroke-linejoin="round"/>
<path opacity="0.3" d="M552.095 336.923V319.43" stroke="#1F3969" stroke-width="2" stroke-linejoin="round" stroke-dasharray="3 3"/>
<path opacity="0.3" d="M552.095 318.981V318.308H552.768" stroke="#1F3969" stroke-width="2" stroke-linejoin="round"/>
<path opacity="0.3" d="M553.62 318.308H572.415" stroke="#1F3969" stroke-width="2" stroke-linejoin="round" stroke-dasharray="2.86 2.86"/>
<path opacity="0.3" d="M572.863 318.308H573.536V318.981" stroke="#1F3969" stroke-width="2" stroke-linejoin="round"/>
<path opacity="0.3" d="M573.536 319.878V337.417" stroke="#1F3969" stroke-width="2" stroke-linejoin="round" stroke-dasharray="3 3"/>
</g>
</g>
<path d="M553.8 316.738H550.615V319.923H553.8V316.738Z" fill="white"/>
<path d="M553.62 316.604H550.48V319.744H553.62V316.604Z" stroke="#1F3969" stroke-miterlimit="10" stroke-linejoin="round"/>
<path d="M553.8 336.923H550.615V340.108H553.8V336.923Z" fill="white"/>
<path d="M553.62 336.834H550.48V339.974H553.62V336.834Z" stroke="#1F3969" stroke-miterlimit="10" stroke-linejoin="round"/>
<path d="M575.151 316.738H571.966V319.923H575.151V316.738Z" fill="white"/>
<path d="M575.106 316.604H571.966V319.744H575.106V316.604Z" stroke="#1F3969" stroke-miterlimit="10" stroke-linejoin="round"/>
<path d="M575.151 336.923H571.966V340.108H575.151V336.923Z" fill="white"/>
<path d="M575.107 336.834H571.967V339.974H575.107V336.834Z" stroke="#1F3969" stroke-miterlimit="10" stroke-linejoin="round"/>
<path d="M523.208 328.58L526.393 335.398L529.488 337.013L531.641 334.86L530.071 331.72L523.208 328.58Z" fill="white"/>
<path d="M523.208 328.58L526.393 335.398L529.488 337.013L531.641 334.86L530.071 331.72L523.208 328.58Z" stroke="#1F3969" stroke-miterlimit="10" stroke-linejoin="round"/>
<path d="M527.245 333.29C527.716 333.29 528.097 332.909 528.097 332.438C528.097 331.967 527.716 331.586 527.245 331.586C526.774 331.586 526.393 331.967 526.393 332.438C526.393 332.909 526.774 333.29 527.245 333.29Z" fill="#444E59"/>
<path d="M523.208 328.58L526.752 332.124" stroke="#1F3969" stroke-miterlimit="10" stroke-linecap="round" stroke-linejoin="round"/>
<path d="M531.654 334.825L529.498 336.981L531.052 338.535L533.209 336.379L531.654 334.825Z" fill="white"/>
<path d="M531.654 334.825L529.498 336.981L531.052 338.535L533.209 336.379L531.654 334.825Z" stroke="#1F3969" stroke-miterlimit="10" stroke-linejoin="round"/>
<path d="M635.668 313.823L630.675 314.409L635.017 351.394L640.01 350.808L635.668 313.823Z" fill="#FFA364"/>
<path d="M635.675 313.862L630.682 314.448L631.125 318.218L636.117 317.632L635.675 313.862Z" fill="#2AA1FF"/>
<path d="M635.675 313.862L630.682 314.448L631.125 318.218L636.117 317.632L635.675 313.862Z" stroke="#1F3969" stroke-width="4" stroke-miterlimit="10" stroke-linecap="round" stroke-linejoin="round"/>
<path d="M635.668 313.823L630.675 314.409L635.017 351.394L640.01 350.808L635.668 313.823Z" stroke="#1F3969" stroke-width="4" stroke-miterlimit="10" stroke-linecap="round" stroke-linejoin="round"/>
<path d="M649.357 321.398L644.36 320.855L640.335 357.874L645.332 358.417L649.357 321.398Z" fill="#FF5252"/>
<path d="M649.357 321.398L644.36 320.855L640.335 357.874L645.332 358.417L649.357 321.398Z" stroke="#1F3969" stroke-width="4" stroke-miterlimit="10" stroke-linecap="round" stroke-linejoin="round"/>
<path d="M649.394 321.407L644.397 320.864L643.987 324.637L648.984 325.18L649.394 321.407Z" fill="#2D425E"/>
<path d="M649.394 321.407L644.397 320.864L643.987 324.637L648.984 325.18L649.394 321.407Z" stroke="#1F3969" stroke-width="4" stroke-miterlimit="10" stroke-linecap="round" stroke-linejoin="round"/>
<path d="M652.466 370.516H632.309L629.026 339.638H655.749L652.466 370.516Z" fill="#6567C3"/>
<path d="M629.026 339.638L629.077 340.202H649.44L646.209 370.516H652.466L655.749 339.638H629.026Z" fill="#6567C3"/>
<path d="M652.466 370.516H632.309L629.026 339.638H655.749L652.466 370.516Z" stroke="#1F3969" stroke-width="4" stroke-miterlimit="10" stroke-linecap="round" stroke-linejoin="round"/>
<path d="M181.539 82.024C180.087 81.905 178.633 82.23 177.37 82.955C176.13 83.805 175.348 85.293 174.55 86.677C171.5 92.034 167.37 96.699 162.422 100.377C158.818 103.017 154.237 106.309 154.853 111.176C155.178 112.784 155.772 114.325 156.61 115.735C159.934 122.446 169.006 127.632 168.114 135.29C171.417 129.761 166.999 127.026 170.302 121.497C171.875 118.864 174.607 115.891 176.982 117.545C177.777 118.099 178.3 119.092 179.128 119.578C181.103 120.737 183.205 118.52 184.954 116.951C190.984 111.537 199.56 112.955 207.064 114.642C210.606 115.438 214.498 116.483 216.592 119.869C219.345 124.321 213.976 129.129 212.619 134.162C212.508 134.591 212.503 135.04 212.604 135.472C212.705 135.903 212.908 136.303 213.198 136.639C213.487 136.974 213.853 137.235 214.265 137.398C214.677 137.561 215.122 137.622 215.562 137.575C217.814 137.353 220.481 137.171 220.615 136.183C223.448 136.284 226.919 135.963 228.133 133.013C228.504 131.846 228.7 130.63 228.714 129.406C229.16 124.451 231.263 119.93 232.656 115.214C234.049 110.498 234.655 104.971 232.304 100.79C231.465 99.399 230.427 98.137 229.224 97.046C215.882 84.134 198.339 82.005 181.539 82.024Z" fill="black"/>
<path d="M171.015 144.963C171.015 144.963 173.917 169.143 163.278 171.078C152.638 173.012 172.95 205.898 172.95 205.898L221.312 211.702L209.705 173.012C209.705 173.012 201.967 170.111 206.803 150.766C211.639 131.421 171.015 144.963 171.015 144.963Z" fill="#D9A77B"/>
<path d="M290.469 459.798L293.371 504.29L315.618 494.618L306.912 457.863L290.469 459.798Z" fill="#D9A77B"/>
<path d="M141.515 560.39L145.384 613.588H165.695L159.892 560.39H141.515Z" fill="#D9A77B"/>
<path d="M142.889 601.964C140.556 605.134 141.024 609.665 138.958 613.014C137.167 615.917 133.791 617.44 131.551 620.012C130.837 620.867 130.199 621.784 129.647 622.751C127.569 626.232 125.88 630.693 127.927 634.193C129.573 637.008 133.034 638.108 136.207 638.858C140.219 639.805 144.387 640.564 148.444 639.84C152.502 639.115 156.468 636.631 157.914 632.771C158.199 631.801 158.537 630.847 158.927 629.914C161.126 625.584 168.025 625.537 170.276 621.234C171.851 618.223 170.403 614.582 168.955 611.508L164.535 602.116C163.068 598.999 157.121 600.792 154.02 600.045C149.977 599.071 145.797 597.998 142.889 601.964Z" fill="#3D3D3D"/>
<path d="M127.006 357.271C127.006 357.271 127.974 413.37 133.777 431.748C139.58 450.125 138.613 451.092 137.646 453.994C136.679 456.896 135.711 454.961 135.711 459.798C135.711 464.634 133.777 541.045 135.711 547.816C137.646 554.586 129.908 566.193 135.711 567.161C141.515 568.128 168.597 567.161 169.565 561.357C170.532 555.554 161.827 553.619 165.696 549.75C169.565 545.881 175.368 466.568 175.368 466.568L188.909 411.436L214.058 382.419L239.5 378.5L267.255 382.419L283.698 446.256C283.698 446.256 276.928 464.634 281.764 464.634C286.6 464.634 315.617 470.437 315.617 449.158C315.617 427.879 305.945 365.008 304.01 363.074C302.076 361.14 304.978 354.369 302.076 351.467C299.174 348.565 265.321 328.254 252.747 324.385C240.173 320.516 222.534 315.911 222.534 315.911L127.006 357.271Z" fill="#281818"/>
<path d="M315.617 486.88C315.617 486.88 301.109 482.044 294.338 496.552C287.567 511.061 290.469 514.93 290.469 514.93C290.469 514.93 312.716 522.668 316.585 518.799C318.268 517.116 323.613 516.531 329.115 516.407C337.495 516.219 339.724 504.364 331.81 501.603C331.574 501.521 331.335 501.449 331.093 501.389C323.355 499.454 315.617 486.88 315.617 486.88Z" fill="#3D3D3D"/>
<path d="M192.779 160.922C208.804 160.922 221.796 147.931 221.796 131.905C221.796 115.879 208.804 102.888 192.779 102.888C176.753 102.888 163.762 115.879 163.762 131.905C163.762 147.931 176.753 160.922 192.779 160.922Z" fill="#D9A77B"/>
<path d="M153.477 183.374C153.477 183.374 197.532 193.028 208.322 177.582C219.111 162.137 223.606 221.023 223.606 221.023L229 282.805L225 316.5C225 316.5 178.652 353.277 165.165 356.172C151.679 359.069 131 361 131 361C131 361 137.294 253.845 137.294 251.915C137.294 249.983 153.477 183.374 153.477 183.374Z" fill="#6C63FF"/>
<path d="M169.47 165.028C169.47 165.028 158.925 158.987 156.024 164.791C153.122 170.594 126.039 185.103 123.138 185.103C120.236 185.103 128.941 265.383 125.072 275.056C121.203 284.728 102.826 355.336 113.465 361.14C124.105 366.943 116.367 355.336 127.006 369.845C137.646 384.353 189.877 384.353 192.778 378.55C195.68 372.746 169.565 329.221 174.401 288.597C179.237 247.973 186.975 191.873 180.204 184.136C173.434 176.398 169.47 165.028 169.47 165.028Z" fill="#171717"/>
<path d="M204.385 171.562L205.733 166.925C205.733 166.925 245.976 180.267 247.911 188.972C249.845 197.677 248.878 258.613 242.107 263.449C235.337 268.285 225.664 276.023 232.435 287.63C239.206 299.236 246.944 311.811 252.747 312.778C258.55 313.745 269.19 320.516 266.288 327.286C263.387 334.057 228.566 321.483 228.566 321.483C228.566 321.483 205.352 304.073 206.32 276.99C207.287 249.907 204.385 171.562 204.385 171.562Z" fill="#171717"/>
<path d="M238.239 285.695L215.025 329.221C215.025 329.221 181.172 364.041 200.516 367.91C219.861 371.779 230.501 335.991 230.501 335.991L255.649 300.204L238.239 285.695Z" fill="#D9A77B"/>
<path d="M182.952 89.616C181.783 89.53 180.611 89.7571 179.559 90.2741C178.607 90.9691 177.823 91.8681 177.264 92.9051C174.684 96.786 171.321 100.084 167.391 102.588C164.457 104.454 160.727 106.781 161.229 110.221C161.502 111.374 161.987 112.467 162.659 113.443C165.375 118.234 166.456 123.78 165.739 129.24L173.805 117.515C175.086 115.654 177.31 113.553 179.243 114.722C179.891 115.113 180.316 115.815 180.99 116.159C182.598 116.978 184.309 115.412 185.733 114.302C190.641 110.476 197.622 111.478 203.731 112.67C206.615 113.233 209.783 113.972 211.487 116.365C214.32 120.342 211.362 126.088 213.016 130.683C213.478 130.359 213.871 129.945 214.171 129.466C214.471 128.987 214.672 128.453 214.762 127.895C217.068 127.967 219.894 127.74 220.882 125.655C221.182 124.838 221.343 123.976 221.356 123.105C221.718 119.603 223.43 116.408 224.564 113.075C225.698 109.741 226.192 105.835 224.278 102.88C223.578 101.878 222.732 100.987 221.77 100.234C210.909 91.108 196.629 89.603 182.952 89.616Z" fill="black"/>
<path d="M238.238 185.103L247.25 187.495C247.25 187.495 268.223 241.202 263.387 277.957C258.55 314.712 255.649 306.974 255.649 306.974C255.649 306.974 247.911 289.564 230.5 293.433L238.238 185.103Z" fill="#171717"/>
<path d="M110.563 305.04L151.187 367.91C151.187 367.91 176.335 399.829 184.073 385.32C191.811 370.812 156.991 346.631 156.991 346.631L130.875 298.269L110.563 305.04Z" fill="#D9A77B"/>
<path d="M130.875 187.037L123.138 185.103C123.138 185.103 107.662 189.939 103.793 210.251C99.9243 230.563 102.826 311.811 107.662 312.778C112.498 313.745 131.548 298.631 134.597 301.835C137.646 305.04 127.974 288.597 130.875 279.892C133.777 271.187 130.875 187.037 130.875 187.037Z" fill="#171717"/>
<path d="M76.6742 490.59L62.4829 496.039L41.7325 504C40.947 502.569 39.7935 500.581 38.3669 498.278C33.4514 490.196 25.314 477.623 18.0775 466.572C9.92617 454.091 2.89893 443.599 2.89893 443.599L7.9874 442.168L49.4946 430.225L76.6742 490.59Z" fill="#E6ECF8"/>
<path opacity="0.1" d="M76.6744 489.82L62.5693 495.196C54.6884 496.811 46.6474 497.54 38.5998 497.369C33.7141 489.396 25.6261 476.994 18.4336 466.093L8.40479 442.007L49.6606 430.225L76.6744 489.82Z" fill="black"/>
<path d="M86.5842 486.908C86.5842 486.908 64.7614 499.903 32.1764 496.959L6.20215 433.21L18.6542 431.056L61.6876 423.618L86.0921 485.665L86.5842 486.908Z" fill="#6C63FF"/>
<path opacity="0.1" d="M86.5841 486.225C80.8208 486.543 75.0415 486.378 69.3051 485.733C62.7466 484.958 56.1509 483.371 50.5244 480.444C46.0883 478.233 41.9599 475.449 38.2441 472.164C29.0771 463.897 23.4069 452.067 18.3145 431.123L61.9011 423.618L86.5841 486.225Z" fill="black"/>
<path d="M102 482.341C102 482.341 85.9856 485.485 69.7097 483.551C63.267 482.79 56.7892 481.225 51.2619 478.358C46.9074 476.181 42.8531 473.449 39.1997 470.227C28.0602 460.176 22.1713 444.776 16.1123 413.668C16.1123 413.668 42.7123 420.071 69.0072 406C68.9715 406.029 77.8405 461.513 102 482.341Z" fill="#F9FAFB"/>
<path opacity="0.1" d="M68.9661 484.18C62.9205 483.398 56.8421 481.79 51.6555 478.846C47.5695 476.611 43.7651 473.805 40.3369 470.496C49.2387 469.7 50.5168 464.359 50.5168 464.359C57.0882 475.837 68.9661 484.18 68.9661 484.18Z" fill="black"/>
<path opacity="0.3" d="M28.2246 425.466C28.2246 425.466 51.5505 424.169 58.0612 419.214L59.0561 422.336C59.0561 422.336 43.6403 429.041 28.2246 429.124V425.466Z" fill="#6C63FF"/>
<path opacity="0.3" d="M28.2246 439.486C28.2246 439.486 49.8616 438.283 66.2073 430.225L66.7639 431.518C66.7639 431.518 53.7834 439.24 28.2246 441.236V439.486Z" fill="#6C63FF"/>
<path opacity="0.3" d="M30.4272 445.347C30.4272 445.347 52.0719 444.378 68.4166 437.933L68.9666 438.962C68.9666 438.962 55.9929 445.144 30.4272 446.742V445.347Z" fill="#6C63FF"/>
<path opacity="0.3" d="M33.7305 451.774C33.7305 451.774 54.131 450.691 69.542 443.438L70.0675 444.602C70.0675 444.602 57.828 451.552 33.7305 453.348V451.774Z" fill="#6C63FF"/>
<path opacity="0.3" d="M34.8315 456.01C34.8315 456.01 55.2391 454.798 70.6507 446.742L71.1686 448.028C71.1686 448.028 58.9368 455.755 34.8315 457.753V456.01Z" fill="#6C63FF"/>
<path opacity="0.3" d="M35.9326 462.785C35.9326 462.785 57.5699 461.702 73.9145 454.449L74.4719 455.614C74.4719 455.614 61.4909 462.564 35.9326 464.36V462.785Z" fill="#6C63FF"/>
<path d="M417.183 126.367L393.193 120.524L399.071 96.498L423.062 102.341L417.183 126.367ZM394.491 119.733L416.396 125.068L421.763 103.132L399.859 97.797L394.491 119.733Z" fill="#CCCCCC"/>
<path d="M413.598 89.812L393.841 85L389 104.786L408.757 109.598L413.598 89.812Z" fill="#6C63FF"/>
<path d="M472.183 199.367L448.193 193.524L454.071 169.498L478.062 175.341L472.183 199.367ZM449.491 192.733L471.396 198.068L476.763 176.132L454.859 170.797L449.491 192.733Z" fill="#CCCCCC"/>
<path d="M468.598 162.812L448.841 158L444 177.786L463.757 182.598L468.598 162.812Z" fill="#6C63FF"/>
<path d="M297.183 181.367L273.193 175.524L279.071 151.498L303.062 157.341L297.183 181.367ZM274.491 174.733L296.396 180.068L301.763 158.132L279.859 152.797L274.491 174.733Z" fill="#CCCCCC"/>
<path d="M293.598 144.812L273.841 140L269 159.786L288.757 164.598L293.598 144.812Z" fill="#6C63FF"/>
<path d="M572.183 117.367L548.193 111.524L554.071 87.498L578.062 93.341L572.183 117.367ZM549.491 110.733L571.396 116.068L576.763 94.132L554.859 88.797L549.491 110.733Z" fill="#CCCCCC"/>
<path d="M568.598 80.812L548.841 76L544 95.786L563.757 100.598L568.598 80.812Z" fill="#6C63FF"/>
<path d="M466.67 109.628L468.298 127.713L486.383 126.085L484.755 108L466.67 109.628Z" fill="#CECECE"/>
<path d="M456.621 120.95L478.58 118.974L480.557 140.934L458.598 142.91L456.621 120.95ZM477.712 120.014L457.661 121.819L459.466 141.87L479.517 140.065L477.712 120.014Z" fill="#CCCCCC"/>
<path d="M581.67 149.628L583.298 167.713L601.383 166.085L599.755 148L581.67 149.628Z" fill="#CECECE"/>
<path d="M571.621 160.95L593.58 158.974L595.557 180.934L573.598 182.91L571.621 160.95ZM592.712 160.014L572.661 161.819L574.466 181.87L594.517 180.065L592.712 160.014Z" fill="#CCCCCC"/>
<path d="M368.67 147.628L370.298 165.713L388.383 164.085L386.755 146L368.67 147.628Z" fill="#CECECE"/>
<path d="M358.621 158.95L380.58 156.974L382.557 178.934L360.598 180.91L358.621 158.95ZM379.712 158.014L359.661 159.819L361.466 179.87L381.517 178.065L379.712 158.014Z" fill="#CCCCCC"/>
<path d="M322.381 221.133L304.91 226.08L309.857 243.551L327.328 238.604L322.381 221.133Z" fill="#CECECE"/>
<path d="M309.394 213.353L315.401 234.568L294.186 240.575L288.179 219.36L309.394 213.353ZM314.218 233.906L308.733 214.537L289.363 220.021L294.848 239.391L314.218 233.906Z" fill="#CCCCCC"/>
<path d="M295.67 66.628L297.298 84.713L315.383 83.085L313.755 65L295.67 66.628Z" fill="#CECECE"/>
<path d="M285.621 77.95L307.58 75.974L309.557 97.934L287.598 99.91L285.621 77.95ZM306.712 77.014L286.661 78.819L288.466 98.87L308.517 97.065L306.712 77.014Z" fill="#CCCCCC"/>
</svg>
