<svg width="834" height="652" viewBox="0 0 834 652" fill="none" xmlns="http://www.w3.org/2000/svg">
<path d="M834 0H0V652H834V0Z" fill="#1F1F1F"/>
<path d="M417 652C597.045 652 743 506.045 743 326C743 145.955 597.045 0 417 0C236.955 0 91 145.955 91 326C91 506.045 236.955 652 417 652Z" fill="url(#paint0_radial)"/>
<g opacity="0.4">
<g opacity="0.4">
<g opacity="0.4">
<path opacity="0.4" d="M704.4 327.7L670.9 269.7L704.4 211.7H771.3L804.8 269.7L771.3 327.7H704.4Z" stroke="white" stroke-width="6" stroke-miterlimit="10"/>
</g>
</g>
</g>
<g opacity="0.4">
<g opacity="0.4">
<g opacity="0.4">
<path opacity="0.4" d="M588.4 260.8L555 202.8L588.4 144.8H655.3L688.8 202.8L655.3 260.8H588.4Z" fill="white" stroke="white" stroke-width="6" stroke-miterlimit="10"/>
</g>
<g opacity="0.4">
<path opacity="0.4" d="M588.4 127L555 69L588.4 11H655.3L688.8 69L655.3 127H588.4Z" stroke="white" stroke-width="6" stroke-miterlimit="10"/>
</g>
</g>
<g opacity="0.4">
<g opacity="0.4">
<path opacity="0.4" d="M472.4 327.7L439 269.7L472.4 211.7H539.3L572.8 269.7L539.3 327.7H472.4Z" stroke="white" stroke-width="6" stroke-miterlimit="10"/>
</g>
<g opacity="0.4">
<path opacity="0.4" d="M472.4 193.9L439 135.9L472.4 77.8999H539.3L572.8 135.9L539.3 193.9H472.4Z" fill="white" stroke="white" stroke-width="6" stroke-miterlimit="10"/>
</g>
</g>
</g>
<g opacity="0.4">
<g opacity="0.4">
<g opacity="0.4">
<path opacity="0.4" d="M356.5 394.6L323 336.6L356.5 278.6H423.4L456.8 336.6L423.4 394.6H356.5Z" fill="white" stroke="white" stroke-width="6" stroke-miterlimit="10"/>
</g>
<g opacity="0.4">
<path opacity="0.4" d="M356.5 260.8L323 202.8L356.5 144.8H423.4L456.8 202.8L423.4 260.8H356.5Z" stroke="white" stroke-width="6" stroke-miterlimit="10"/>
</g>
<g opacity="0.4">
<path opacity="0.4" d="M356.5 127L323 69L356.5 11H423.4L456.8 69L423.4 127H356.5Z" stroke="white" stroke-width="6" stroke-miterlimit="10"/>
</g>
</g>
<g opacity="0.4">
<g opacity="0.4">
<path opacity="0.4" d="M240.5 193.9L207 135.9L240.5 77.8999H307.4L340.8 135.9L307.4 193.9H240.5Z" fill="white" stroke="white" stroke-width="6" stroke-miterlimit="10"/>
</g>
</g>
</g>
<g opacity="0.4">
<g opacity="0.4">
<g opacity="0.4">
<path opacity="0.4" d="M124.5 394.6L91 336.6L124.5 278.6H191.4L224.9 336.6L191.4 394.6H124.5Z" fill="white" stroke="white" stroke-width="6" stroke-miterlimit="10"/>
</g>
<g opacity="0.4">
<path opacity="0.4" d="M124.5 260.8L91 202.8L124.5 144.8H191.4L224.9 202.8L191.4 260.8H124.5Z" stroke="white" stroke-width="6" stroke-miterlimit="10"/>
</g>
</g>
</g>
<path d="M212.375 402.07H221.651L218.559 602H215.467L212.375 402.07Z" fill="#444E59"/>
<path d="M221.651 402.07H248.446L245.354 554.594L218.559 602L221.651 402.07Z" fill="#CECECE"/>
<path d="M670.978 402.07H605.022V602H670.978V402.07Z" fill="#444E59"/>
<path d="M605.021 402.07H578.227V554.594L605.021 602V402.07Z" fill="#CECECE"/>
<path d="M714.777 388.672H172.699C168.999 388.672 166 391.671 166 395.371C166 399.07 168.999 402.069 172.699 402.069H714.777C718.477 402.069 721.476 399.07 721.476 395.371C721.476 391.671 718.477 388.672 714.777 388.672Z" fill="#AB784B"/>
<path d="M202.07 366H685.406L716.323 388.672H171.153L202.07 366Z" fill="#D2D2D2"/>
<path d="M362.892 356.618H265.488C263.59 356.618 262 355.079 262 353.13V340.307C262 338.409 263.539 336.819 265.488 336.819H362.892C364.79 336.819 366.38 338.358 366.38 340.307V353.13C366.38 355.079 364.841 356.618 362.892 356.618Z" fill="#50B56F"/>
<path d="M362.892 356.618H265.488C263.59 356.618 262 355.079 262 353.13V340.307C262 338.409 263.539 336.819 265.488 336.819H362.892C364.79 336.819 366.38 338.358 366.38 340.307V353.13C366.38 355.079 364.841 356.618 362.892 356.618Z" stroke="#1F3969" stroke-width="4" stroke-miterlimit="10" stroke-linecap="round" stroke-linejoin="round"/>
<path opacity="0.28" d="M365.242 336.87H349.854V344.564C349.854 349.386 353.752 353.335 358.625 353.335H368.73C368.73 353.284 368.73 353.232 368.73 353.181V340.358C368.73 338.409 367.191 336.87 365.242 336.87Z" fill="#1F3969" stroke="#1F3969" stroke-width="4" stroke-miterlimit="10" stroke-linecap="round" stroke-linejoin="round"/>
<path d="M390.333 360.619H277.49C278.157 362.26 278.516 364.312 278.516 366.466C278.516 368.62 278.157 370.621 277.49 372.313H390.282C389.615 370.672 389.256 368.62 389.256 366.466C389.308 364.26 389.667 362.26 390.333 360.619Z" fill="#CECECE"/>
<path d="M393.411 357.49H274.464V360.567H393.411V357.49Z" fill="#5F5AFF"/>
<path d="M393.411 357.49H274.464V360.567H393.411V357.49Z" stroke="#1F3969" stroke-width="4" stroke-miterlimit="10" stroke-linecap="round" stroke-linejoin="round"/>
<path d="M393.411 372.262H274.464V375.339H393.411V372.262Z" fill="#F6F9FD"/>
<path d="M393.411 372.262H274.464V375.339H393.411V372.262Z" fill="#5F5AFF"/>
<path d="M393.411 372.262H274.464V375.339H393.411V372.262Z" stroke="#1F3969" stroke-width="4" stroke-miterlimit="10" stroke-linecap="round" stroke-linejoin="round"/>
<path d="M454.85 364.414L453.311 347.129H427.972L426.434 364.414C426.075 368.415 423.664 372.262 419.868 375.339V375.391H461.415V375.339C457.619 372.262 455.209 368.415 454.85 364.414Z" fill="#BFCFE2"/>
<path opacity="0.28" d="M427.973 347.129L427.049 357.49H454.234L453.311 347.129H427.973Z" fill="#1F3969" stroke="#1F3969" stroke-width="4" stroke-miterlimit="10" stroke-linecap="round" stroke-linejoin="round"/>
<path d="M454.85 364.414L453.311 347.129H427.972L426.434 364.414C426.075 368.415 423.664 372.262 419.868 375.339V375.391H461.415V375.339C457.619 372.262 455.209 368.415 454.85 364.414Z" stroke="#1F3969" stroke-width="4" stroke-miterlimit="10" stroke-linecap="round" stroke-linejoin="round"/>
<path d="M521.683 349.693H359.599C356.214 349.693 353.444 346.923 353.444 343.538V237.876C353.444 234.491 356.214 231.721 359.599 231.721H521.683C525.069 231.721 527.838 234.491 527.838 237.876V343.538C527.838 346.975 525.069 349.693 521.683 349.693Z" fill="white"/>
<path d="M521.683 349.693H359.599C356.214 349.693 353.444 346.923 353.444 343.538V237.876C353.444 234.491 356.214 231.721 359.599 231.721H521.683C525.069 231.721 527.838 234.491 527.838 237.876V343.538C527.838 346.975 525.069 349.693 521.683 349.693Z" fill="#BFCFE2"/>
<path d="M521.683 349.693H359.599C356.214 349.693 353.444 346.923 353.444 343.538V237.876C353.444 234.491 356.214 231.721 359.599 231.721H521.683C525.069 231.721 527.838 234.491 527.838 237.876V343.538C527.838 346.975 525.069 349.693 521.683 349.693Z" stroke="#1F3969" stroke-width="4" stroke-miterlimit="10" stroke-linecap="round" stroke-linejoin="round"/>
<path d="M519.147 330.011V240.455H362.193V330.011H519.147Z" fill="#F6F9FD"/>
<path opacity="0.28" d="M367.807 231.721V302.812C367.807 305.069 369.653 306.915 371.91 306.915H468.904C471.161 306.915 473.007 305.069 473.007 302.812V231.721H367.807Z" fill="#1F3969" stroke="#1F3969" stroke-width="4" stroke-miterlimit="10" stroke-linecap="round" stroke-linejoin="round"/>
<path d="M519.147 330.011V240.455H362.193V330.011H519.147Z" stroke="#1F3969" stroke-width="4" stroke-miterlimit="10" stroke-linecap="round" stroke-linejoin="round"/>
<path d="M433.769 339.794H447.566" stroke="#1F3969" stroke-width="4" stroke-miterlimit="10" stroke-linecap="round" stroke-linejoin="round"/>
<path d="M473.52 301.273H376.526C374.269 301.273 372.423 299.427 372.423 297.17V221.155C372.423 218.898 374.269 217.051 376.526 217.051H473.52C475.777 217.051 477.623 218.898 477.623 221.155V297.221C477.623 299.478 475.777 301.273 473.52 301.273Z" fill="#2D425E"/>
<path d="M477.623 227.002H372.423V221.103C372.423 218.847 374.269 217 376.526 217H473.52C475.777 217 477.623 218.847 477.623 221.103V227.002Z" stroke="#1F3969" stroke-width="4" stroke-miterlimit="10" stroke-linecap="round" stroke-linejoin="round"/>
<path d="M477.623 228.951H372.423V221.103C372.423 218.847 374.269 217 376.526 217H473.52C475.777 217 477.623 218.847 477.623 221.103V228.951Z" fill="#D0DDF0"/>
<path d="M477.623 228.951H372.423V221.103C372.423 218.847 374.269 217 376.526 217H473.52C475.777 217 477.623 218.847 477.623 221.103V228.951Z" stroke="#1F3969" stroke-width="4" stroke-miterlimit="10" stroke-linecap="round" stroke-linejoin="round"/>
<path d="M477.623 228.951H372.423V221.103C372.423 218.847 374.269 217 376.526 217H473.52C475.777 217 477.623 218.847 477.623 221.103V228.951Z" stroke="#1F3969" stroke-width="4" stroke-miterlimit="10" stroke-linecap="round" stroke-linejoin="round"/>
<path d="M473.52 301.273H376.526C374.269 301.273 372.423 299.427 372.423 297.17V221.155C372.423 218.898 374.269 217.051 376.526 217.051H473.52C475.777 217.051 477.623 218.898 477.623 221.155V297.221C477.623 299.478 475.777 301.273 473.52 301.273Z" stroke="#1F3969" stroke-width="4" stroke-miterlimit="10" stroke-linecap="round" stroke-linejoin="round"/>
<path opacity="0.28" d="M524.145 319.431H464.646C462.389 319.431 460.543 317.584 460.543 315.327V252.289C460.543 250.032 462.389 248.186 464.646 248.186H524.145C526.402 248.186 528.249 250.032 528.249 252.289V315.327C528.249 317.636 526.402 319.431 524.145 319.431Z" fill="#1F3969" stroke="#1F3969" stroke-width="4" stroke-miterlimit="10" stroke-linecap="round" stroke-linejoin="round"/>
<path d="M528.249 315.84H468.75C466.493 315.84 464.646 313.994 464.646 311.737V248.699C464.646 246.442 466.493 244.595 468.75 244.595H528.249C530.506 244.595 532.352 246.442 532.352 248.699V311.737C532.352 314.045 530.506 315.84 528.249 315.84Z" fill="#2AA1FF"/>
<path d="M528.249 315.84H468.75C466.493 315.84 464.646 313.994 464.646 311.737V248.699C464.646 246.442 466.493 244.595 468.75 244.595H528.249C530.506 244.595 532.352 246.442 532.352 248.699V311.737C532.352 314.045 530.506 315.84 528.249 315.84Z" stroke="#1F3969" stroke-width="4" stroke-miterlimit="10" stroke-linecap="round" stroke-linejoin="round"/>
<path opacity="0.34" d="M519.375 264.138H477.521C476.033 264.138 474.854 262.958 474.854 261.47V257.47C474.854 255.982 476.033 254.802 477.521 254.802H519.375C520.863 254.802 522.042 255.982 522.042 257.47V261.47C522.042 262.958 520.863 264.138 519.375 264.138Z" stroke="white" stroke-width="2" stroke-miterlimit="10" stroke-linecap="round" stroke-linejoin="round"/>
<g opacity="0.34">
<path opacity="0.34" d="M501.013 279.166H477.623C476.136 279.166 474.956 277.987 474.956 276.499V272.498C474.956 271.011 476.136 269.831 477.623 269.831H501.013C502.5 269.831 503.68 271.011 503.68 272.498V276.499C503.628 277.987 502.449 279.166 501.013 279.166Z" stroke="white" stroke-width="2" stroke-miterlimit="10" stroke-linecap="round" stroke-linejoin="round"/>
<path opacity="0.34" d="M519.427 279.166H510.348C508.86 279.166 507.681 277.987 507.681 276.499V272.498C507.681 271.011 508.86 269.831 510.348 269.831H519.427C520.914 269.831 522.094 271.011 522.094 272.498V276.499C522.094 277.987 520.914 279.166 519.427 279.166Z" stroke="white" stroke-width="2" stroke-miterlimit="10" stroke-linecap="round" stroke-linejoin="round"/>
</g>
<path d="M474.905 294.759H522.042" stroke="white" stroke-width="2" stroke-miterlimit="10" stroke-linecap="round" stroke-linejoin="round"/>
<path d="M474.905 300.299H522.042" stroke="white" stroke-width="2" stroke-miterlimit="10" stroke-linecap="round" stroke-linejoin="round"/>
<path d="M474.905 305.838H503.628" stroke="white" stroke-width="2" stroke-miterlimit="10" stroke-linecap="round" stroke-linejoin="round"/>
<path d="M382.733 225.053C383.866 225.053 384.785 224.134 384.785 223.001C384.785 221.868 383.866 220.95 382.733 220.95C381.6 220.95 380.681 221.868 380.681 223.001C380.681 224.134 381.6 225.053 382.733 225.053Z" fill="#1F3969"/>
<path d="M389.862 225.053C390.995 225.053 391.914 224.134 391.914 223.001C391.914 221.868 390.995 220.95 389.862 220.95C388.729 220.95 387.811 221.868 387.811 223.001C387.811 224.134 388.729 225.053 389.862 225.053Z" fill="#1F3969"/>
<path d="M396.992 225.053C398.125 225.053 399.043 224.134 399.043 223.001C399.043 221.868 398.125 220.95 396.992 220.95C395.859 220.95 394.94 221.868 394.94 223.001C394.94 224.134 395.859 225.053 396.992 225.053Z" fill="#1F3969"/>
<path d="M432.845 238.44H439.513" stroke="white" stroke-width="4" stroke-miterlimit="10" stroke-linecap="round" stroke-linejoin="round"/>
<path d="M399.043 238.44H427.921" stroke="#7BFFA0" stroke-width="4" stroke-miterlimit="10" stroke-linecap="round" stroke-linejoin="round"/>
<path d="M384.784 238.44H394.94" stroke="#9169FF" stroke-width="4" stroke-miterlimit="10" stroke-linecap="round" stroke-linejoin="round"/>
<path d="M398.018 288.963H420.073" stroke="#9169FF" stroke-width="4" stroke-miterlimit="10" stroke-linecap="round" stroke-linejoin="round"/>
<path d="M384.784 288.963H391.914" stroke="#7BFFA0" stroke-width="4" stroke-miterlimit="10" stroke-linecap="round" stroke-linejoin="round"/>
<path d="M427.921 244.749H432.076" stroke="white" stroke-width="4" stroke-miterlimit="10" stroke-linecap="round" stroke-linejoin="round"/>
<path d="M409.045 244.749H422.997" stroke="#9169FF" stroke-width="4" stroke-miterlimit="10" stroke-linecap="round" stroke-linejoin="round"/>
<path d="M389.862 244.749H404.07" stroke="#FFC47D" stroke-width="4" stroke-miterlimit="10" stroke-linecap="round" stroke-linejoin="round"/>
<path d="M411.867 251.058H424.126" stroke="white" stroke-width="4" stroke-miterlimit="10" stroke-linecap="round" stroke-linejoin="round"/>
<path d="M396.479 251.058H408.02" stroke="#FF5757" stroke-width="4" stroke-miterlimit="10" stroke-linecap="round" stroke-linejoin="round"/>
<path d="M413.508 257.367H416.022" stroke="white" stroke-width="4" stroke-miterlimit="10" stroke-linecap="round" stroke-linejoin="round"/>
<path d="M403.352 257.367H409.045" stroke="#9169FF" stroke-width="4" stroke-miterlimit="10" stroke-linecap="round" stroke-linejoin="round"/>
<path d="M389.862 257.367H399.044" stroke="#7BFFA0" stroke-width="4" stroke-miterlimit="10" stroke-linecap="round" stroke-linejoin="round"/>
<path d="M409.559 263.727H425.921" stroke="#FFC47D" stroke-width="4" stroke-miterlimit="10" stroke-linecap="round" stroke-linejoin="round"/>
<path d="M389.862 263.727H404.532" stroke="#FF5757" stroke-width="4" stroke-miterlimit="10" stroke-linecap="round" stroke-linejoin="round"/>
<path d="M428.485 270.036H437.359" stroke="#9169FF" stroke-width="4" stroke-miterlimit="10" stroke-linecap="round" stroke-linejoin="round"/>
<path d="M409.559 270.036H423.767" stroke="#FF5757" stroke-width="4" stroke-miterlimit="10" stroke-linecap="round" stroke-linejoin="round"/>
<path d="M396.479 270.036H404.532" stroke="#7BFFA0" stroke-width="4" stroke-miterlimit="10" stroke-linecap="round" stroke-linejoin="round"/>
<path d="M416.021 276.345H423.767" stroke="white" stroke-width="4" stroke-miterlimit="10" stroke-linecap="round" stroke-linejoin="round"/>
<path d="M396.479 276.345H410.687" stroke="#9169FF" stroke-width="4" stroke-miterlimit="10" stroke-linecap="round" stroke-linejoin="round"/>
<path d="M436.179 282.654H445.053" stroke="white" stroke-width="4" stroke-miterlimit="10" stroke-linecap="round" stroke-linejoin="round"/>
<path d="M409.045 282.654H431.358" stroke="#FFC47D" stroke-width="4" stroke-miterlimit="10" stroke-linecap="round" stroke-linejoin="round"/>
<path d="M389.862 282.654H404.07" stroke="white" stroke-width="4" stroke-miterlimit="10" stroke-linecap="round" stroke-linejoin="round"/>
<path d="M278.772 364.158H389.307" stroke="#1F3969" stroke-width="2" stroke-miterlimit="10" stroke-linecap="round" stroke-linejoin="round"/>
<path d="M278.772 368.261H389.307" stroke="#1F3969" stroke-width="2" stroke-miterlimit="10" stroke-linecap="round" stroke-linejoin="round"/>
<path d="M390.333 360.619H277.49C278.157 362.26 278.516 364.312 278.516 366.466C278.516 368.62 278.157 370.621 277.49 372.313H390.282C389.615 370.672 389.256 368.62 389.256 366.466C389.308 364.26 389.667 362.26 390.333 360.619Z" stroke="#1F3969" stroke-width="4" stroke-miterlimit="10" stroke-linecap="round" stroke-linejoin="round"/>
<path d="M479.425 374.434H402.667V376H479.425V374.434Z" fill="#1F3969"/>
<path d="M479.425 374.434H402.667V376H479.425V374.434Z" stroke="#1F3969" stroke-width="4" stroke-miterlimit="10" stroke-linecap="round" stroke-linejoin="round"/>
<path d="M323.177 313.451H284.766C284.29 313.451 283.861 313.594 283.527 313.927L274.234 322.029C273.376 322.791 273.376 324.126 274.234 324.84L283.527 333.085C283.861 333.371 284.29 333.657 284.766 333.657H323.177C325.369 333.657 327.18 331.655 327.18 329.463V317.311C327.133 315.214 325.369 313.451 323.177 313.451ZM283.718 325.793C282.431 325.793 281.335 324.745 281.335 323.411C281.335 322.076 282.383 321.028 283.718 321.028C285.052 321.028 286.101 322.076 286.101 323.411C286.101 324.745 285.052 325.793 283.718 325.793Z" fill="white"/>
<path d="M304.782 313.451H293.583V333.704H304.782V313.451Z" fill="#F09F54"/>
<path d="M315.981 313.451H304.782V333.704H315.981V313.451Z" fill="#ED8B3B"/>
<path d="M322.176 333.704H315.981V313.451H322.367C324.988 313.451 327.18 315.595 327.18 318.264V328.748C327.133 331.465 324.893 333.704 322.176 333.704Z" fill="#FF6C37"/>
<path opacity="0.4" d="M324.226 314.451C324.035 314.404 323.844 314.404 323.654 314.404H285.243C284.766 314.404 284.337 314.547 284.004 314.88L274.711 322.982C273.853 323.744 273.853 325.079 274.711 325.794L280.525 330.893L286.815 332.465C287.101 332.561 287.435 332.561 287.769 332.561C288.388 332.561 288.96 332.418 289.532 332.132L323.749 314.69C323.892 314.642 324.083 314.547 324.226 314.451ZM284.194 326.747C282.908 326.747 281.812 325.698 281.812 324.364C281.812 323.029 282.86 321.981 284.194 321.981C285.529 321.981 286.577 323.029 286.577 324.364C286.577 325.698 285.529 326.747 284.194 326.747Z" fill="#848484"/>
<path d="M323.177 313.451H284.766C284.29 313.451 283.861 313.594 283.527 313.927L274.234 322.029C273.376 322.791 273.376 324.126 274.234 324.84L283.527 333.085C283.861 333.371 284.29 333.657 284.766 333.657H323.177C325.369 333.657 327.18 331.655 327.18 329.463V317.311C327.133 315.214 325.369 313.451 323.177 313.451ZM283.718 325.793C282.431 325.793 281.335 324.745 281.335 323.411C281.335 322.076 282.383 321.028 283.718 321.028C285.052 321.028 286.101 322.076 286.101 323.411C286.101 324.745 285.052 325.793 283.718 325.793Z" stroke="#1F3969" stroke-width="4" stroke-miterlimit="10" stroke-linecap="round" stroke-linejoin="round"/>
<path d="M304.782 313.451H293.583V333.704H304.782V313.451Z" stroke="#1F3969" stroke-width="4" stroke-miterlimit="10" stroke-linecap="round" stroke-linejoin="round"/>
<path d="M315.981 313.451H304.782V333.704H315.981V313.451Z" stroke="#1F3969" stroke-width="4" stroke-miterlimit="10" stroke-linecap="round" stroke-linejoin="round"/>
<path d="M322.176 333.704H315.981V313.451H322.367C324.988 313.451 327.18 315.595 327.18 318.264V328.748C327.133 331.465 324.893 333.704 322.176 333.704Z" stroke="#1F3969" stroke-width="4" stroke-miterlimit="10" stroke-linecap="round" stroke-linejoin="round"/>
<path d="M313.265 294.197L279.048 311.64C278.619 311.83 278.333 312.211 278.142 312.64L273.567 324.078C273.138 325.126 273.758 326.318 274.854 326.604L286.816 329.654C287.244 329.749 287.721 329.701 288.15 329.511L322.367 312.069C324.321 311.068 325.083 308.685 324.083 306.779L318.555 295.961C317.554 293.959 315.171 293.197 313.265 294.197Z" fill="white"/>
<path d="M306.82 297.462L296.843 302.552L305.94 320.382L315.917 315.292L306.82 297.462Z" fill="#8D91DB"/>
<path d="M313.265 294.197L279.048 311.64C278.619 311.83 278.333 312.211 278.142 312.64L273.567 324.078C273.138 325.126 273.758 326.318 274.854 326.604L286.816 329.654C287.244 329.749 287.721 329.701 288.15 329.511L322.367 312.069C324.321 311.068 325.083 308.685 324.083 306.779L318.555 295.961C317.554 293.959 315.171 293.197 313.265 294.197Z" stroke="#1F3969" stroke-width="4" stroke-miterlimit="10" stroke-linecap="round" stroke-linejoin="round"/>
<path d="M282.669 323.792C284.196 323.792 285.433 322.554 285.433 321.028C285.433 319.501 284.196 318.264 282.669 318.264C281.143 318.264 279.905 319.501 279.905 321.028C279.905 322.554 281.143 323.792 282.669 323.792Z" fill="#444E59"/>
<path d="M296.822 302.578L286.846 307.668L295.943 325.498L305.919 320.408L296.822 302.578Z" fill="#BECCD5" stroke="#1F3969" stroke-width="4" stroke-miterlimit="10" stroke-linecap="round" stroke-linejoin="round"/>
<path d="M296.822 302.578L286.846 307.668L295.943 325.498L305.919 320.408L296.822 302.578Z" stroke="#1F3969" stroke-width="4" stroke-miterlimit="10" stroke-linecap="round" stroke-linejoin="round"/>
<path d="M306.82 297.462L296.843 302.552L305.94 320.382L315.917 315.292L306.82 297.462Z" stroke="#1F3969" stroke-width="4" stroke-miterlimit="10" stroke-linecap="round" stroke-linejoin="round"/>
<path d="M321.604 312.402L315.886 315.309L306.783 297.486L312.502 294.579C314.837 293.387 317.696 294.293 318.936 296.676L323.701 306.016C324.893 308.351 323.939 311.211 321.604 312.402Z" fill="#6567C3"/>
<path d="M321.604 312.402L315.886 315.309L306.783 297.486L312.502 294.579C314.837 293.387 317.696 294.293 318.936 296.676L323.701 306.016C324.893 308.351 323.939 311.211 321.604 312.402Z" stroke="#1F3969" stroke-width="4" stroke-miterlimit="10" stroke-linecap="round" stroke-linejoin="round"/>
<path d="M367.936 375.138H341.608C339.457 375.138 337.696 373.378 337.696 371.226V318.453C337.696 316.302 339.457 314.541 341.608 314.541H367.936C370.088 314.541 371.848 316.302 371.848 318.453V371.226C371.848 373.417 370.088 375.138 367.936 375.138Z" fill="white"/>
<path d="M372.396 332.732H337.696V318.375C337.696 316.263 339.418 314.541 341.53 314.541H368.327C370.557 314.541 372.357 316.38 372.357 318.571V332.732H372.396Z" fill="#6567C3"/>
<path d="M367.936 375.138H341.608C339.457 375.138 337.696 373.378 337.696 371.226V318.453C337.696 316.302 339.457 314.541 341.608 314.541H367.936C370.088 314.541 371.848 316.302 371.848 318.453V371.226C371.848 373.417 370.088 375.138 367.936 375.138Z" stroke="#1F3969" stroke-width="4" stroke-miterlimit="10" stroke-linecap="round" stroke-linejoin="round"/>
<path d="M367.975 375.138H341.725C339.495 375.138 337.657 373.3 337.657 371.07V363.559H371.848V371.266C371.848 373.417 370.087 375.138 367.975 375.138Z" fill="#BBBFC2"/>
<path d="M368.053 375.138H341.725C339.495 375.138 337.657 373.3 337.657 371.07V363.559H371.848V371.344C371.848 373.456 370.126 375.138 368.053 375.138Z" stroke="#1F3969" stroke-width="4" stroke-miterlimit="10" stroke-linecap="round" stroke-linejoin="round"/>
<path d="M355.026 371.07C356.107 371.07 356.982 370.194 356.982 369.114C356.982 368.034 356.107 367.158 355.026 367.158C353.946 367.158 353.07 368.034 353.07 369.114C353.07 370.194 353.946 371.07 355.026 371.07Z" fill="#444E59"/>
<path opacity="0.3" d="M345.403 338.796H364.689" stroke="#1F3969" stroke-width="4" stroke-miterlimit="10" stroke-linecap="round" stroke-linejoin="round"/>
<path opacity="0.3" d="M349.236 344.859H361.364" stroke="#1F3969" stroke-width="4" stroke-miterlimit="10" stroke-linecap="round" stroke-linejoin="round"/>
<path opacity="0.3" d="M345.403 350.375H364.689" stroke="#1F3969" stroke-width="4" stroke-miterlimit="10" stroke-linecap="round" stroke-linejoin="round"/>
<path opacity="0.62" d="M355.026 329.407C357.446 329.407 359.407 327.445 359.407 325.026C359.407 322.606 357.446 320.644 355.026 320.644C352.606 320.644 350.645 322.606 350.645 325.026C350.645 327.445 352.606 329.407 355.026 329.407Z" fill="white"/>
<path d="M361.364 356.439C361.364 357.652 360.386 358.63 359.173 358.63H350.919C349.706 358.63 348.728 357.652 348.728 356.439C348.728 355.226 349.706 354.248 350.919 354.248H359.173C360.386 354.209 361.364 355.187 361.364 356.439Z" fill="#ED8B3B"/>
<path d="M608.299 367.402H499.614V302.091C499.614 300.163 501.184 298.593 503.113 298.593H604.845C606.729 298.593 608.254 300.118 608.254 302.002V367.402H608.299Z" fill="#BBBFC2"/>
<path d="M608.568 367.536H499.928V302.047C499.928 300.073 501.543 298.458 503.516 298.458H604.98C606.954 298.458 608.568 300.073 608.568 302.047V367.536Z" stroke="#1F3969" stroke-width="4" stroke-miterlimit="10" stroke-linecap="round" stroke-linejoin="round"/>
<path opacity="0.71" d="M602.615 361.761V304.256H505.951V361.761H602.615Z" fill="#5D5D5D"/>
<path opacity="0.32" d="M529.578 350.805H521.235C520.741 350.805 520.337 350.401 520.337 349.908V321.335C520.337 320.841 520.741 320.437 521.235 320.437H529.578C530.071 320.437 530.475 320.841 530.475 321.335V349.953C530.475 350.401 530.071 350.805 529.578 350.805Z" fill="#848484"/>
<path opacity="0.32" d="M589.819 356.591H541.644C540.657 356.591 539.85 355.784 539.85 354.797V317.97C539.85 316.984 540.657 316.176 541.644 316.176H589.819C590.806 316.176 591.613 316.984 591.613 317.97V354.797C591.613 355.784 590.851 356.591 589.819 356.591Z" fill="#848484"/>
<path d="M602.53 361.49V304.478H505.955V361.49H602.53Z" stroke="#1F3969" stroke-width="4" stroke-miterlimit="10" stroke-linecap="round" stroke-linejoin="round"/>
<path d="M620.41 367.536H488.041V371.752C488.041 373.726 489.656 375.341 491.629 375.341H616.822C618.796 375.341 620.41 373.726 620.41 371.752V367.536Z" fill="white"/>
<path opacity="0.8" d="M493.11 375.61H615.387C617.854 375.61 619.872 373.726 620.321 371.169H488.131C488.579 373.726 490.643 375.61 493.11 375.61Z" fill="#BBBFC2"/>
<path d="M620.41 367.536H488.041V371.752C488.041 373.726 489.656 375.341 491.629 375.341H616.822C618.796 375.341 620.41 373.726 620.41 371.752V367.536Z" stroke="#1F3969" stroke-width="4" stroke-miterlimit="10" stroke-linecap="round" stroke-linejoin="round"/>
<path d="M528.053 318.15H517.96V328.242H528.053V318.15Z" fill="#F09F54"/>
<path d="M528.232 318.24H518.139V328.332H528.232V318.24Z" stroke="#1F3969" stroke-width="4" stroke-miterlimit="10" stroke-linecap="round" stroke-linejoin="round"/>
<path d="M528.232 318.24H518.139V328.332H528.232V318.24Z" stroke="#1F3969" stroke-width="4" stroke-miterlimit="10" stroke-linecap="round" stroke-linejoin="round"/>
<path d="M528.053 328.242H517.96V338.335H528.053V328.242Z" fill="#8D91DB"/>
<path d="M528.232 328.377H518.139V338.47H528.232V328.377Z" stroke="#1F3969" stroke-width="4" stroke-miterlimit="10" stroke-linecap="round" stroke-linejoin="round"/>
<path d="M528.053 338.335H517.96V348.427H528.053V338.335Z" fill="#6567C3"/>
<path d="M528.232 338.47H518.139V348.562H528.232V338.47Z" stroke="#1F3969" stroke-width="4" stroke-miterlimit="10" stroke-linecap="round" stroke-linejoin="round"/>
<path d="M586.903 353.496H538.683C537.697 353.496 536.889 352.689 536.889 351.702V314.875C536.889 313.889 537.697 313.081 538.683 313.081H586.903C587.89 313.081 588.698 313.889 588.698 314.875V351.702C588.698 352.734 587.89 353.496 586.903 353.496Z" fill="white"/>
<path d="M586.903 353.496H538.683C537.697 353.496 536.889 352.689 536.889 351.702V314.875C536.889 313.889 537.697 313.081 538.683 313.081H586.903C587.89 313.081 588.698 313.889 588.698 314.875V351.702C588.698 352.734 587.89 353.496 586.903 353.496Z" stroke="#1F3969" stroke-width="4" stroke-miterlimit="10" stroke-linecap="round" stroke-linejoin="round"/>
<g opacity="0.3">
<g opacity="0.3">
<path opacity="0.3" d="M573.536 342.865V343.538H572.863" stroke="#1F3969" stroke-width="2" stroke-linejoin="round"/>
<path opacity="0.3" d="M572.011 343.538H553.217" stroke="#1F3969" stroke-width="2" stroke-linejoin="round" stroke-dasharray="2.86 2.86"/>
<path opacity="0.3" d="M552.768 343.538H552.095V342.865" stroke="#1F3969" stroke-width="2" stroke-linejoin="round"/>
<path opacity="0.3" d="M552.095 341.923V324.43" stroke="#1F3969" stroke-width="2" stroke-linejoin="round" stroke-dasharray="3 3"/>
<path opacity="0.3" d="M552.095 323.981V323.308H552.768" stroke="#1F3969" stroke-width="2" stroke-linejoin="round"/>
<path opacity="0.3" d="M553.62 323.308H572.415" stroke="#1F3969" stroke-width="2" stroke-linejoin="round" stroke-dasharray="2.86 2.86"/>
<path opacity="0.3" d="M572.863 323.308H573.536V323.981" stroke="#1F3969" stroke-width="2" stroke-linejoin="round"/>
<path opacity="0.3" d="M573.536 324.878V342.417" stroke="#1F3969" stroke-width="2" stroke-linejoin="round" stroke-dasharray="3 3"/>
</g>
</g>
<path d="M553.8 321.738H550.615V324.923H553.8V321.738Z" fill="white"/>
<path d="M553.62 321.604H550.48V324.744H553.62V321.604Z" stroke="#1F3969" stroke-miterlimit="10" stroke-linejoin="round"/>
<path d="M553.8 341.923H550.615V345.108H553.8V341.923Z" fill="white"/>
<path d="M553.62 341.834H550.48V344.974H553.62V341.834Z" stroke="#1F3969" stroke-miterlimit="10" stroke-linejoin="round"/>
<path d="M575.151 321.738H571.966V324.923H575.151V321.738Z" fill="white"/>
<path d="M575.106 321.604H571.966V324.744H575.106V321.604Z" stroke="#1F3969" stroke-miterlimit="10" stroke-linejoin="round"/>
<path d="M575.151 341.923H571.966V345.108H575.151V341.923Z" fill="white"/>
<path d="M575.107 341.834H571.967V344.974H575.107V341.834Z" stroke="#1F3969" stroke-miterlimit="10" stroke-linejoin="round"/>
<path d="M523.208 333.58L526.393 340.398L529.488 342.013L531.641 339.86L530.071 336.72L523.208 333.58Z" fill="white"/>
<path d="M523.208 333.58L526.393 340.398L529.488 342.013L531.641 339.86L530.071 336.72L523.208 333.58Z" stroke="#1F3969" stroke-miterlimit="10" stroke-linejoin="round"/>
<path d="M527.245 338.29C527.716 338.29 528.097 337.909 528.097 337.438C528.097 336.967 527.716 336.586 527.245 336.586C526.774 336.586 526.393 336.967 526.393 337.438C526.393 337.909 526.774 338.29 527.245 338.29Z" fill="#444E59"/>
<path d="M523.208 333.58L526.752 337.124" stroke="#1F3969" stroke-miterlimit="10" stroke-linecap="round" stroke-linejoin="round"/>
<path d="M531.654 339.825L529.498 341.981L531.052 343.535L533.209 341.379L531.654 339.825Z" fill="white"/>
<path d="M531.654 339.825L529.498 341.981L531.052 343.535L533.209 341.379L531.654 339.825Z" stroke="#1F3969" stroke-miterlimit="10" stroke-linejoin="round"/>
<path d="M635.668 318.823L630.675 319.409L635.017 356.394L640.01 355.808L635.668 318.823Z" fill="#FFA364"/>
<path d="M635.675 318.862L630.682 319.448L631.125 323.218L636.117 322.632L635.675 318.862Z" fill="#2AA1FF"/>
<path d="M635.675 318.862L630.682 319.448L631.125 323.218L636.117 322.632L635.675 318.862Z" stroke="#1F3969" stroke-width="4" stroke-miterlimit="10" stroke-linecap="round" stroke-linejoin="round"/>
<path d="M635.668 318.823L630.675 319.409L635.017 356.394L640.01 355.808L635.668 318.823Z" stroke="#1F3969" stroke-width="4" stroke-miterlimit="10" stroke-linecap="round" stroke-linejoin="round"/>
<path d="M649.357 326.398L644.36 325.855L640.335 362.874L645.332 363.417L649.357 326.398Z" fill="#FF5252"/>
<path d="M649.357 326.398L644.36 325.855L640.335 362.874L645.332 363.417L649.357 326.398Z" stroke="#1F3969" stroke-width="4" stroke-miterlimit="10" stroke-linecap="round" stroke-linejoin="round"/>
<path d="M649.394 326.407L644.397 325.864L643.987 329.637L648.984 330.18L649.394 326.407Z" fill="#2D425E"/>
<path d="M649.394 326.407L644.397 325.864L643.987 329.637L648.984 330.18L649.394 326.407Z" stroke="#1F3969" stroke-width="4" stroke-miterlimit="10" stroke-linecap="round" stroke-linejoin="round"/>
<path d="M652.466 375.516H632.309L629.026 344.638H655.749L652.466 375.516Z" fill="#6567C3"/>
<path d="M629.026 344.638L629.077 345.202H649.44L646.209 375.516H652.466L655.749 344.638H629.026Z" fill="#6567C3"/>
<path d="M652.466 375.516H632.309L629.026 344.638H655.749L652.466 375.516Z" stroke="#1F3969" stroke-width="4" stroke-miterlimit="10" stroke-linecap="round" stroke-linejoin="round"/>
<path d="M181.539 87.024C180.087 86.905 178.633 87.23 177.37 87.955C176.13 88.805 175.348 90.293 174.55 91.677C171.5 97.034 167.37 101.699 162.422 105.377C158.818 108.017 154.237 111.309 154.853 116.176C155.178 117.784 155.772 119.325 156.61 120.735C159.934 127.446 169.006 132.632 168.114 140.29C171.417 134.761 166.999 132.026 170.302 126.497C171.875 123.864 174.607 120.891 176.982 122.545C177.777 123.099 178.3 124.092 179.128 124.578C181.103 125.737 183.205 123.52 184.954 121.951C190.984 116.537 199.56 117.955 207.064 119.642C210.606 120.438 214.498 121.483 216.592 124.869C219.345 129.321 213.976 134.129 212.619 139.162C212.508 139.591 212.503 140.04 212.604 140.472C212.705 140.903 212.908 141.303 213.198 141.639C213.487 141.974 213.853 142.235 214.265 142.398C214.677 142.561 215.122 142.622 215.562 142.575C217.814 142.353 220.481 142.171 220.615 141.183C223.448 141.284 226.919 140.963 228.133 138.013C228.504 136.846 228.7 135.63 228.714 134.406C229.16 129.451 231.263 124.93 232.656 120.214C234.049 115.498 234.655 109.971 232.304 105.79C231.465 104.399 230.427 103.137 229.224 102.046C215.882 89.134 198.339 87.005 181.539 87.024Z" fill="black"/>
<path d="M171.015 149.963C171.015 149.963 173.917 174.143 163.278 176.078C152.638 178.012 172.95 210.898 172.95 210.898L221.312 216.702L209.705 178.012C209.705 178.012 201.967 175.111 206.803 155.766C211.639 136.421 171.015 149.963 171.015 149.963Z" fill="#D9A77B"/>
<path d="M290.469 464.798L293.371 509.29L315.618 499.618L306.912 462.863L290.469 464.798Z" fill="#D9A77B"/>
<path d="M141.515 565.39L145.384 618.588H165.695L159.892 565.39H141.515Z" fill="#D9A77B"/>
<path d="M142.889 606.964C140.556 610.134 141.024 614.665 138.958 618.014C137.167 620.917 133.791 622.44 131.551 625.012C130.837 625.867 130.199 626.784 129.647 627.751C127.569 631.232 125.88 635.693 127.927 639.193C129.573 642.008 133.034 643.108 136.207 643.858C140.219 644.805 144.387 645.564 148.444 644.84C152.502 644.115 156.468 641.631 157.914 637.771C158.199 636.801 158.537 635.847 158.927 634.914C161.126 630.584 168.025 630.537 170.276 626.234C171.851 623.223 170.403 619.582 168.955 616.508L164.535 607.116C163.068 603.999 157.121 605.792 154.02 605.045C149.977 604.071 145.797 602.998 142.889 606.964Z" fill="#3D3D3D"/>
<path d="M127.006 362.271C127.006 362.271 127.974 418.37 133.777 436.748C139.58 455.125 138.613 456.092 137.646 458.994C136.679 461.896 135.711 459.961 135.711 464.798C135.711 469.634 133.777 546.045 135.711 552.816C137.646 559.586 129.908 571.193 135.711 572.161C141.515 573.128 168.597 572.161 169.565 566.357C170.532 560.554 161.827 558.619 165.696 554.75C169.565 550.881 175.368 471.568 175.368 471.568L188.909 416.436L214.058 387.419L239.5 383.5L267.255 387.419L283.698 451.256C283.698 451.256 276.928 469.634 281.764 469.634C286.6 469.634 315.617 475.437 315.617 454.158C315.617 432.879 305.945 370.008 304.01 368.074C302.076 366.14 304.978 359.369 302.076 356.467C299.174 353.565 265.321 333.254 252.747 329.385C240.173 325.516 222.534 320.911 222.534 320.911L127.006 362.271Z" fill="#281818"/>
<path d="M315.617 491.88C315.617 491.88 301.109 487.044 294.338 501.552C287.567 516.061 290.469 519.93 290.469 519.93C290.469 519.93 312.716 527.668 316.585 523.799C318.268 522.116 323.613 521.531 329.115 521.407C337.495 521.219 339.724 509.364 331.81 506.603C331.574 506.521 331.335 506.449 331.093 506.389C323.355 504.454 315.617 491.88 315.617 491.88Z" fill="#3D3D3D"/>
<path d="M192.779 165.922C208.804 165.922 221.796 152.931 221.796 136.905C221.796 120.879 208.804 107.888 192.779 107.888C176.753 107.888 163.762 120.879 163.762 136.905C163.762 152.931 176.753 165.922 192.779 165.922Z" fill="#D9A77B"/>
<path d="M153.477 188.374C153.477 188.374 197.532 198.028 208.322 182.582C219.111 167.137 223.606 226.023 223.606 226.023L229 287.805L225 321.5C225 321.5 178.652 358.277 165.165 361.172C151.679 364.069 131 366 131 366C131 366 137.294 258.845 137.294 256.915C137.294 254.983 153.477 188.374 153.477 188.374Z" fill="#6C63FF"/>
<path d="M169.47 170.028C169.47 170.028 158.925 163.987 156.024 169.791C153.122 175.594 126.039 190.103 123.138 190.103C120.236 190.103 128.941 270.383 125.072 280.056C121.203 289.728 102.826 360.336 113.465 366.14C124.105 371.943 116.367 360.336 127.006 374.845C137.646 389.353 189.877 389.353 192.778 383.55C195.68 377.746 169.565 334.221 174.401 293.597C179.237 252.973 186.975 196.873 180.204 189.136C173.434 181.398 169.47 170.028 169.47 170.028Z" fill="#171717"/>
<path d="M204.385 176.562L205.733 171.925C205.733 171.925 245.976 185.267 247.911 193.972C249.845 202.677 248.878 263.613 242.107 268.449C235.337 273.285 225.664 281.023 232.435 292.63C239.206 304.236 246.944 316.811 252.747 317.778C258.55 318.745 269.19 325.516 266.288 332.286C263.387 339.057 228.566 326.483 228.566 326.483C228.566 326.483 205.352 309.073 206.32 281.99C207.287 254.907 204.385 176.562 204.385 176.562Z" fill="#171717"/>
<path d="M238.239 290.695L215.025 334.221C215.025 334.221 181.172 369.041 200.516 372.91C219.861 376.779 230.501 340.991 230.501 340.991L255.649 305.204L238.239 290.695Z" fill="#D9A77B"/>
<path d="M182.952 94.616C181.783 94.53 180.611 94.7571 179.559 95.2741C178.607 95.9691 177.823 96.8681 177.264 97.9051C174.684 101.786 171.321 105.084 167.391 107.588C164.457 109.454 160.727 111.781 161.229 115.221C161.502 116.374 161.987 117.467 162.659 118.443C165.375 123.234 166.456 128.78 165.739 134.24L173.805 122.515C175.086 120.654 177.31 118.553 179.243 119.722C179.891 120.113 180.316 120.815 180.99 121.159C182.598 121.978 184.309 120.412 185.733 119.302C190.641 115.476 197.622 116.478 203.731 117.67C206.615 118.233 209.783 118.972 211.487 121.365C214.32 125.342 211.362 131.088 213.016 135.683C213.478 135.359 213.871 134.945 214.171 134.466C214.471 133.987 214.672 133.453 214.762 132.895C217.068 132.967 219.894 132.74 220.882 130.655C221.182 129.838 221.343 128.976 221.356 128.105C221.718 124.603 223.43 121.408 224.564 118.075C225.698 114.741 226.192 110.835 224.278 107.88C223.578 106.878 222.732 105.987 221.77 105.234C210.909 96.108 196.629 94.603 182.952 94.616Z" fill="black"/>
<path d="M238.238 190.103L247.25 192.495C247.25 192.495 268.223 246.202 263.387 282.957C258.55 319.712 255.649 311.974 255.649 311.974C255.649 311.974 247.911 294.564 230.5 298.433L238.238 190.103Z" fill="#171717"/>
<path d="M110.563 310.04L151.187 372.91C151.187 372.91 176.335 404.829 184.073 390.32C191.811 375.812 156.991 351.631 156.991 351.631L130.875 303.269L110.563 310.04Z" fill="#D9A77B"/>
<path d="M130.875 192.037L123.138 190.103C123.138 190.103 107.662 194.939 103.793 215.251C99.9243 235.563 102.826 316.811 107.662 317.778C112.498 318.745 131.548 303.631 134.597 306.835C137.646 310.04 127.974 293.597 130.875 284.892C133.777 276.187 130.875 192.037 130.875 192.037Z" fill="#171717"/>
<path d="M76.6742 495.59L62.4829 501.039L41.7325 509C40.947 507.569 39.7935 505.581 38.3669 503.278C33.4514 495.196 25.314 482.623 18.0775 471.572C9.92617 459.091 2.89893 448.599 2.89893 448.599L7.9874 447.168L49.4946 435.225L76.6742 495.59Z" fill="#E6ECF8"/>
<path opacity="0.1" d="M76.6744 494.82L62.5693 500.196C54.6884 501.811 46.6474 502.54 38.5998 502.369C33.7141 494.396 25.6261 481.994 18.4336 471.093L8.40479 447.007L49.6606 435.225L76.6744 494.82Z" fill="black"/>
<path d="M86.5842 491.908C86.5842 491.908 64.7614 504.903 32.1764 501.959L6.20215 438.21L18.6542 436.056L61.6876 428.618L86.0921 490.665L86.5842 491.908Z" fill="#6C63FF"/>
<path opacity="0.1" d="M86.5841 491.225C80.8208 491.543 75.0415 491.378 69.3051 490.733C62.7466 489.958 56.1509 488.371 50.5244 485.444C46.0883 483.233 41.9599 480.449 38.2441 477.164C29.0771 468.897 23.4069 457.067 18.3145 436.123L61.9011 428.618L86.5841 491.225Z" fill="black"/>
<path d="M102 487.341C102 487.341 85.9856 490.485 69.7097 488.551C63.267 487.79 56.7892 486.225 51.2619 483.358C46.9074 481.181 42.8531 478.449 39.1997 475.227C28.0602 465.176 22.1713 449.776 16.1123 418.668C16.1123 418.668 42.7123 425.071 69.0072 411C68.9715 411.029 77.8405 466.513 102 487.341Z" fill="#F9FAFB"/>
<path opacity="0.1" d="M68.9661 489.18C62.9205 488.398 56.8421 486.79 51.6555 483.846C47.5695 481.611 43.7651 478.805 40.3369 475.496C49.2387 474.7 50.5168 469.359 50.5168 469.359C57.0882 480.837 68.9661 489.18 68.9661 489.18Z" fill="black"/>
<path opacity="0.3" d="M28.2246 430.466C28.2246 430.466 51.5505 429.169 58.0612 424.214L59.0561 427.336C59.0561 427.336 43.6403 434.041 28.2246 434.124V430.466Z" fill="#6C63FF"/>
<path opacity="0.3" d="M28.2246 444.486C28.2246 444.486 49.8616 443.283 66.2073 435.225L66.7639 436.518C66.7639 436.518 53.7834 444.24 28.2246 446.236V444.486Z" fill="#6C63FF"/>
<path opacity="0.3" d="M30.4272 450.347C30.4272 450.347 52.0719 449.378 68.4166 442.933L68.9666 443.962C68.9666 443.962 55.9929 450.144 30.4272 451.742V450.347Z" fill="#6C63FF"/>
<path opacity="0.3" d="M33.7305 456.774C33.7305 456.774 54.131 455.691 69.542 448.438L70.0675 449.602C70.0675 449.602 57.828 456.552 33.7305 458.348V456.774Z" fill="#6C63FF"/>
<path opacity="0.3" d="M34.8315 461.01C34.8315 461.01 55.2391 459.798 70.6507 451.742L71.1686 453.028C71.1686 453.028 58.9368 460.755 34.8315 462.753V461.01Z" fill="#6C63FF"/>
<path opacity="0.3" d="M35.9326 467.785C35.9326 467.785 57.5699 466.702 73.9145 459.449L74.4719 460.614C74.4719 460.614 61.4909 467.564 35.9326 469.36V467.785Z" fill="#6C63FF"/>
<path d="M417.183 131.367L393.193 125.524L399.071 101.498L423.062 107.341L417.183 131.367ZM394.491 124.733L416.396 130.068L421.763 108.132L399.859 102.797L394.491 124.733Z" fill="#CCCCCC"/>
<path d="M413.598 94.812L393.841 90L389 109.786L408.757 114.598L413.598 94.812Z" fill="#6C63FF"/>
<path d="M472.183 204.367L448.193 198.524L454.071 174.498L478.062 180.341L472.183 204.367ZM449.491 197.733L471.396 203.068L476.763 181.132L454.859 175.797L449.491 197.733Z" fill="#CCCCCC"/>
<path d="M468.598 167.812L448.841 163L444 182.786L463.757 187.598L468.598 167.812Z" fill="#6C63FF"/>
<path d="M297.183 186.367L273.193 180.524L279.071 156.498L303.062 162.341L297.183 186.367ZM274.491 179.733L296.396 185.068L301.763 163.132L279.859 157.797L274.491 179.733Z" fill="#CCCCCC"/>
<path d="M293.598 149.812L273.841 145L269 164.786L288.757 169.598L293.598 149.812Z" fill="#6C63FF"/>
<path d="M572.183 122.367L548.193 116.524L554.071 92.498L578.062 98.341L572.183 122.367ZM549.491 115.733L571.396 121.068L576.763 99.132L554.859 93.797L549.491 115.733Z" fill="#CCCCCC"/>
<path d="M568.598 85.812L548.841 81L544 100.786L563.757 105.598L568.598 85.812Z" fill="#6C63FF"/>
<path d="M466.67 114.628L468.298 132.713L486.383 131.085L484.755 113L466.67 114.628Z" fill="#CECECE"/>
<path d="M456.621 125.95L478.58 123.974L480.557 145.934L458.598 147.91L456.621 125.95ZM477.712 125.014L457.661 126.819L459.466 146.87L479.517 145.065L477.712 125.014Z" fill="#CCCCCC"/>
<path d="M581.67 154.628L583.298 172.713L601.383 171.085L599.755 153L581.67 154.628Z" fill="#CECECE"/>
<path d="M571.621 165.95L593.58 163.974L595.557 185.934L573.598 187.91L571.621 165.95ZM592.712 165.014L572.661 166.819L574.466 186.87L594.517 185.065L592.712 165.014Z" fill="#CCCCCC"/>
<path d="M368.67 152.628L370.298 170.713L388.383 169.085L386.755 151L368.67 152.628Z" fill="#CECECE"/>
<path d="M358.621 163.95L380.58 161.974L382.557 183.934L360.598 185.91L358.621 163.95ZM379.712 163.014L359.661 164.819L361.466 184.87L381.517 183.065L379.712 163.014Z" fill="#CCCCCC"/>
<path d="M322.381 226.133L304.91 231.08L309.857 248.551L327.328 243.604L322.381 226.133Z" fill="#CECECE"/>
<path d="M309.394 218.353L315.401 239.568L294.186 245.575L288.179 224.36L309.394 218.353ZM314.218 238.906L308.733 219.537L289.363 225.021L294.848 244.391L314.218 238.906Z" fill="#CCCCCC"/>
<path d="M295.67 71.628L297.298 89.713L315.383 88.085L313.755 70L295.67 71.628Z" fill="#CECECE"/>
<path d="M285.621 82.9501L307.58 80.9741L309.557 102.934L287.598 104.91L285.621 82.9501ZM306.712 82.0141L286.661 83.8191L288.466 103.87L308.517 102.065L306.712 82.0141Z" fill="#CCCCCC"/>
<defs>
<radialGradient id="paint0_radial" cx="0" cy="0" r="1" gradientUnits="userSpaceOnUse" gradientTransform="translate(417 326) rotate(90.1796) scale(326.002)">
<stop stop-color="#1B1945"/>
<stop offset="1" stop-color="#1F1F1F"/>
</radialGradient>
</defs>
</svg>
