<svg width="25" height="25" viewBox="0 0 25 25" fill="none" xmlns="http://www.w3.org/2000/svg">
<path d="M6.94444 0C3.11528 0 0 3.11528 0 6.94444V18.0556C0 21.8847 3.11528 25 6.94444 25H18.0556C21.8847 25 25 21.8847 25 18.0556V6.94444C25 3.11528 21.8847 0 18.0556 0H6.94444ZM6.94444 2.77778H18.0556C20.3528 2.77778 22.2222 4.64722 22.2222 6.94444V18.0556C22.2222 20.3528 20.3528 22.2222 18.0556 22.2222H6.94444C4.64722 22.2222 2.77778 20.3528 2.77778 18.0556V6.94444C2.77778 4.64722 4.64722 2.77778 6.94444 2.77778ZM19.4444 4.16667C19.0761 4.16667 18.7228 4.313 18.4624 4.57346C18.2019 4.83393 18.0556 5.1872 18.0556 5.55556C18.0556 5.92391 18.2019 6.27718 18.4624 6.53765C18.7228 6.79811 19.0761 6.94444 19.4444 6.94444C19.8128 6.94444 20.1661 6.79811 20.4265 6.53765C20.687 6.27718 20.8333 5.92391 20.8333 5.55556C20.8333 5.1872 20.687 4.83393 20.4265 4.57346C20.1661 4.313 19.8128 4.16667 19.4444 4.16667ZM12.5 5.55556C8.67083 5.55556 5.55556 8.67083 5.55556 12.5C5.55556 16.3292 8.67083 19.4444 12.5 19.4444C16.3292 19.4444 19.4444 16.3292 19.4444 12.5C19.4444 8.67083 16.3292 5.55556 12.5 5.55556ZM12.5 8.33333C14.7972 8.33333 16.6667 10.2028 16.6667 12.5C16.6667 14.7972 14.7972 16.6667 12.5 16.6667C10.2028 16.6667 8.33333 14.7972 8.33333 12.5C8.33333 10.2028 10.2028 8.33333 12.5 8.33333Z" fill="#7E7E7E"/>
</svg>
