<svg width="347" height="176" viewBox="0 0 347 176" fill="none" xmlns="http://www.w3.org/2000/svg">
<path d="M342.533 176H3.74535C1.6646 176 0 174 0 171.5C0 169 1.6646 167 3.74535 167H342.575C344.655 167 346.32 169 346.32 171.5C346.278 174 344.614 176 342.533 176Z" fill="#FFB4B4"/>
<path d="M259.874 136.75H93.7339C90.4331 136.75 87.7324 133.798 87.7324 130.19V8.56008C87.7324 4.95217 90.4331 2.00024 93.7339 2.00024H259.874C263.175 2.00024 265.876 4.95217 265.876 8.56008V130.136C265.876 133.798 263.225 136.75 259.874 136.75Z" fill="#BFCFE2"/>
<path d="M255.316 113.67L255.316 14.3434L98.978 14.3434L98.978 113.67L255.316 113.67Z" fill="#28A8E0"/>
<path d="M260.374 136.75H93.9336C90.6328 136.75 87.9321 133.798 87.9321 130.19V8.55984C87.9321 4.95193 90.6328 2 93.9336 2H260.374C263.675 2 266.375 4.95193 266.375 8.55984V130.136C266.375 133.798 263.675 136.75 260.374 136.75Z" stroke="#444E59" stroke-width="4" stroke-miterlimit="10" stroke-linecap="round" stroke-linejoin="round"/>
<path d="M255.114 113.669L255.114 14.3418L99.2264 14.3418L99.2264 113.669L255.114 113.669Z" stroke="#444E59" stroke-width="4" stroke-miterlimit="10" stroke-linecap="round" stroke-linejoin="round"/>
<path opacity="0.32" d="M224.815 108.871H138.894C136.943 108.871 135.393 107.122 135.393 105.044V38.0247C135.393 35.8927 136.993 34.1981 138.894 34.1981H224.815C226.765 34.1981 228.316 35.9474 228.316 38.0247V104.99C228.316 107.122 226.765 108.871 224.815 108.871Z" fill="#848484"/>
<path d="M220.814 105.153H134.893C132.942 105.153 131.392 103.404 131.392 101.327V34.3616C131.392 32.2297 132.992 30.535 134.893 30.535H220.814C222.764 30.535 224.315 32.2843 224.315 34.3616V101.327C224.365 103.459 222.764 105.153 220.814 105.153Z" fill="#AFB1B2"/>
<path d="M220.814 105.153H134.893C132.942 105.153 131.392 103.404 131.392 101.327V34.3616C131.392 32.2297 132.992 30.535 134.893 30.535H220.814C222.764 30.535 224.315 32.2843 224.315 34.3616V101.327C224.365 103.459 222.764 105.153 220.814 105.153Z" stroke="#444E59" stroke-width="4" stroke-miterlimit="10" stroke-linecap="round" stroke-linejoin="round"/>
<path d="M198.108 166.761H156.198L161.4 136.75H192.907L198.108 166.761Z" fill="#BFCFE2"/>
<path opacity="0.32" d="M194.307 145.223L192.907 136.75H161.399L159.999 145.223H194.307Z" fill="#848484"/>
<path d="M198.108 166.761H156.198L161.4 136.75H192.907L198.108 166.761Z" stroke="#444E59" stroke-width="4" stroke-miterlimit="10" stroke-linecap="round" stroke-linejoin="round"/>
<path d="M176.903 126.364C178.616 126.364 180.004 124.847 180.004 122.975C180.004 121.103 178.616 119.585 176.903 119.585C175.191 119.585 173.802 121.103 173.802 122.975C173.802 124.847 175.191 126.364 176.903 126.364Z" fill="#444E59"/>
<path d="M213.762 98.2655H127.841C125.891 98.2655 124.34 96.5162 124.34 94.4389V27.4192C124.34 25.2873 125.941 23.5927 127.841 23.5927H213.762C215.712 23.5927 217.263 25.3419 217.263 27.4192V94.3843C217.313 96.5162 215.712 98.2655 213.762 98.2655Z" fill="white"/>
<path d="M213.762 98.2655H127.841C125.891 98.2655 124.34 96.5162 124.34 94.4389V27.4192C124.34 25.2873 125.941 23.5927 127.841 23.5927H213.762C215.712 23.5927 217.263 25.3419 217.263 27.4192V94.3843C217.313 96.5162 215.712 98.2655 213.762 98.2655Z" stroke="#444E59" stroke-width="4" stroke-miterlimit="10" stroke-linecap="round" stroke-linejoin="round"/>
<path d="M217.313 35.1273H124.34V27.5835C124.34 25.3968 125.991 23.5382 128.041 23.5382H213.862C215.763 23.5382 217.313 25.2328 217.313 27.3101V35.1273Z" fill="#BFCFE2"/>
<path d="M217.313 35.1273H124.34V27.5835C124.34 25.3968 125.991 23.5382 128.041 23.5382H213.862C215.763 23.5382 217.313 25.2328 217.313 27.3101V35.1273Z" stroke="#444E59" stroke-width="4" stroke-miterlimit="10" stroke-linecap="round" stroke-linejoin="round"/>
<path d="M133.292 31.1915C134.204 31.1915 134.943 30.3839 134.943 29.3876C134.943 28.3913 134.204 27.5836 133.292 27.5836C132.381 27.5836 131.642 28.3913 131.642 29.3876C131.642 30.3839 132.381 31.1915 133.292 31.1915Z" fill="#444E59"/>
<path d="M138.744 31.1915C139.655 31.1915 140.394 30.3839 140.394 29.3876C140.394 28.3913 139.655 27.5836 138.744 27.5836C137.832 27.5836 137.093 28.3913 137.093 29.3876C137.093 30.3839 137.832 31.1915 138.744 31.1915Z" fill="#444E59"/>
<path d="M144.145 31.1915C145.056 31.1915 145.795 30.3839 145.795 29.3876C145.795 28.3913 145.056 27.5836 144.145 27.5836C143.233 27.5836 142.494 28.3913 142.494 29.3876C142.494 30.3839 143.233 31.1915 144.145 31.1915Z" fill="#444E59"/>
<path d="M208.561 55.1349H132.392C131.842 55.1349 131.392 54.6429 131.392 54.0416V42.3979C131.392 41.7966 131.842 41.3046 132.392 41.3046H208.561C209.111 41.3046 209.561 41.7966 209.561 42.3979V54.0416C209.561 54.6429 209.111 55.1349 208.561 55.1349Z" fill="#6567C3"/>
<path opacity="0.2" d="M154.297 69.7305H132.342C131.792 69.7305 131.342 69.2385 131.342 68.6371V62.3506C131.342 61.7493 131.792 61.2573 132.342 61.2573H154.297C154.847 61.2573 155.298 61.7493 155.298 62.3506V68.6371C155.298 69.2385 154.898 69.7305 154.297 69.7305Z" fill="#444E59"/>
<path opacity="0.2" d="M134.893 75.9078H152.497" stroke="#444E59" stroke-width="4" stroke-miterlimit="10" stroke-linecap="round" stroke-linejoin="round"/>
<path opacity="0.2" d="M134.893 82.0845H152.497" stroke="#444E59" stroke-width="4" stroke-miterlimit="10" stroke-linecap="round" stroke-linejoin="round"/>
<path opacity="0.2" d="M181.804 69.7305H159.849C159.299 69.7305 158.849 69.2385 158.849 68.6371V62.3506C158.849 61.7493 159.299 61.2573 159.849 61.2573H181.804C182.354 61.2573 182.804 61.7493 182.804 62.3506V68.6371C182.804 69.2385 182.354 69.7305 181.804 69.7305Z" fill="#444E59"/>
<path opacity="0.2" d="M162.35 75.9078H179.254" stroke="#444E59" stroke-width="4" stroke-miterlimit="10" stroke-linecap="round" stroke-linejoin="round"/>
<path opacity="0.2" d="M162.35 82.0845H179.254" stroke="#444E59" stroke-width="4" stroke-miterlimit="10" stroke-linecap="round" stroke-linejoin="round"/>
<g opacity="0.2">
<path opacity="0.2" d="M209.261 82.8505H187.305C186.755 82.8505 186.305 82.3585 186.305 81.7572V62.4057C186.305 61.8044 186.755 61.3124 187.305 61.3124H209.261C209.811 61.3124 210.261 61.8044 210.261 62.4057V81.7572C210.261 82.3585 209.811 82.8505 209.261 82.8505Z" fill="#444E59"/>
</g>
<g opacity="0.09">
<path opacity="0.09" d="M208.561 89.0276H187.656C186.856 89.0276 186.255 88.3169 186.255 87.4969C186.255 86.677 186.906 85.9663 187.656 85.9663H208.561C209.361 85.9663 209.961 86.677 209.961 87.4969C209.961 88.3169 209.311 89.0276 208.561 89.0276Z" fill="#444E59"/>
</g>
<path d="M277.272 142.628H317.582C318.082 142.628 318.532 142.792 318.882 143.175L328.634 152.468C329.535 153.343 329.535 154.873 328.634 155.693L318.882 165.15C318.532 165.478 318.082 165.806 317.582 165.806H277.272C274.971 165.806 273.071 163.51 273.071 160.996V147.056C273.121 144.651 274.971 142.628 277.272 142.628ZM318.682 156.787C320.032 156.787 321.183 155.584 321.183 154.053C321.183 152.523 320.082 151.32 318.682 151.32C317.282 151.32 316.181 152.523 316.181 154.053C316.181 155.584 317.282 156.787 318.682 156.787Z" fill="white"/>
<path d="M296.576 142.628H308.329V165.861H296.576V142.628Z" fill="#F09F54"/>
<path d="M284.823 142.628H296.576V165.861H284.823V142.628Z" fill="#ED8B3B"/>
<path d="M278.322 165.861H284.824V142.628H278.122C275.371 142.628 273.071 145.088 273.071 148.149V160.176C273.121 163.292 275.471 165.861 278.322 165.861Z" fill="#FF6C37"/>
<path opacity="0.4" d="M276.172 143.776C276.372 143.721 276.572 143.721 276.772 143.721H317.082C317.582 143.721 318.032 143.885 318.382 144.268L328.134 153.561C329.035 154.436 329.035 155.966 328.134 156.786L322.033 162.635L315.431 164.439C315.131 164.549 314.781 164.549 314.431 164.549C313.781 164.549 313.181 164.385 312.581 164.057L276.672 144.049C276.522 143.995 276.322 143.885 276.172 143.776ZM318.182 157.879C319.532 157.879 320.683 156.677 320.683 155.146C320.683 153.616 319.582 152.413 318.182 152.413C316.782 152.413 315.681 153.616 315.681 155.146C315.681 156.677 316.782 157.879 318.182 157.879Z" fill="#848484"/>
<path d="M277.272 142.628H317.582C318.082 142.628 318.532 142.792 318.882 143.175L328.634 152.468C329.535 153.343 329.535 154.873 328.634 155.693L318.882 165.15C318.532 165.478 318.082 165.806 317.582 165.806H277.272C274.971 165.806 273.071 163.51 273.071 160.996V147.056C273.121 144.651 274.971 142.628 277.272 142.628ZM318.682 156.787C320.032 156.787 321.183 155.584 321.183 154.053C321.183 152.523 320.082 151.32 318.682 151.32C317.282 151.32 316.181 152.523 316.181 154.053C316.181 155.584 317.282 156.787 318.682 156.787Z" stroke="#444E59" stroke-width="4" stroke-miterlimit="10" stroke-linecap="round" stroke-linejoin="round"/>
<path d="M296.576 142.628H308.329V165.861H296.576V142.628Z" stroke="#444E59" stroke-width="4" stroke-miterlimit="10" stroke-linecap="round" stroke-linejoin="round"/>
<path d="M284.823 142.628H296.576V165.861H284.823V142.628Z" stroke="#444E59" stroke-width="4" stroke-miterlimit="10" stroke-linecap="round" stroke-linejoin="round"/>
<path d="M278.322 165.861H284.824V142.628H278.122C275.371 142.628 273.071 145.088 273.071 148.149V160.176C273.121 163.292 275.471 165.861 278.322 165.861Z" stroke="#444E59" stroke-width="4" stroke-miterlimit="10" stroke-linecap="round" stroke-linejoin="round"/>
<path d="M287.674 120.544L323.583 140.551C324.033 140.77 324.333 141.207 324.533 141.699L329.334 154.819C329.784 156.021 329.134 157.388 327.984 157.716L315.431 161.215C314.981 161.324 314.481 161.269 314.031 161.051L278.122 141.043C276.071 139.895 275.271 137.162 276.321 134.975L282.123 122.566C283.173 120.27 285.674 119.396 287.674 120.544Z" fill="white"/>
<path d="M294.438 124.288L304.907 130.127L295.36 150.579L284.891 144.74L294.438 124.288Z" fill="#8D91DB"/>
<path d="M287.674 120.544L323.583 140.551C324.033 140.77 324.333 141.207 324.533 141.699L329.334 154.819C329.784 156.021 329.134 157.388 327.984 157.716L315.431 161.215C314.981 161.324 314.481 161.269 314.031 161.051L278.122 141.043C276.071 139.895 275.271 137.162 276.321 134.975L282.123 122.566C283.173 120.27 285.674 119.396 287.674 120.544Z" stroke="#444E59" stroke-width="4" stroke-miterlimit="10" stroke-linecap="round" stroke-linejoin="round"/>
<path d="M319.782 154.491C318.18 154.491 316.881 153.071 316.881 151.32C316.881 149.569 318.18 148.149 319.782 148.149C321.384 148.149 322.683 149.569 322.683 151.32C322.683 153.071 321.384 154.491 319.782 154.491Z" fill="#444E59"/>
<path d="M304.93 130.156L315.399 135.995L305.853 156.447L295.383 150.608L304.93 130.156Z" fill="#BECCD5" stroke="#444E59" stroke-width="4" stroke-miterlimit="10" stroke-linecap="round" stroke-linejoin="round"/>
<path d="M304.93 130.156L315.399 135.995L305.853 156.447L295.383 150.608L304.93 130.156Z" stroke="#444E59" stroke-width="4" stroke-miterlimit="10" stroke-linecap="round" stroke-linejoin="round"/>
<path d="M294.438 124.288L304.907 130.127L295.36 150.579L284.891 144.74L294.438 124.288Z" stroke="#444E59" stroke-width="4" stroke-miterlimit="10" stroke-linecap="round" stroke-linejoin="round"/>
<path d="M278.922 141.425L284.923 144.76L294.476 124.315L288.474 120.981C286.024 119.614 283.023 120.653 281.722 123.386L276.721 134.1C275.471 136.779 276.471 140.059 278.922 141.425Z" fill="#6567C3"/>
<path d="M278.922 141.425L284.923 144.76L294.476 124.315L288.474 120.981C286.024 119.614 283.023 120.653 281.722 123.386L276.721 134.1C275.471 136.779 276.471 140.059 278.922 141.425Z" stroke="#444E59" stroke-width="4" stroke-miterlimit="10" stroke-linecap="round" stroke-linejoin="round"/>
<path d="M71.3366 171.353H37.6785C34.9278 171.353 32.6772 168.893 32.6772 165.887V92.1432C32.6772 89.1366 34.9278 86.6766 37.6785 86.6766H71.3366C74.0873 86.6766 76.3378 89.1366 76.3378 92.1432V165.887C76.3378 168.948 74.0873 171.353 71.3366 171.353Z" fill="white"/>
<path d="M77.038 112.096H32.6772V92.0338C32.6772 89.0819 34.8778 86.6766 37.5784 86.6766H71.8367C74.6874 86.6766 76.988 89.2459 76.988 92.3072V112.096H77.038Z" fill="#6567C3"/>
<path d="M71.3366 171.353H37.6785C34.9278 171.353 32.6772 168.893 32.6772 165.887V92.1432C32.6772 89.1366 34.9278 86.6766 37.6785 86.6766H71.3366C74.0873 86.6766 76.3378 89.1366 76.3378 92.1432V165.887C76.3378 168.948 74.0873 171.353 71.3366 171.353Z" stroke="#444E59" stroke-width="4" stroke-miterlimit="10" stroke-linecap="round" stroke-linejoin="round"/>
<path d="M71.3854 171.353H37.8272C34.9765 171.353 32.626 168.784 32.626 165.668V155.172H76.3366V165.941C76.3366 168.948 74.086 171.353 71.3854 171.353Z" fill="#BFCFE2"/>
<path d="M71.4854 171.353H37.8272C34.9765 171.353 32.626 168.784 32.626 165.668V155.172H76.3366V166.051C76.3366 169.003 74.136 171.353 71.4854 171.353Z" stroke="#444E59" stroke-width="4" stroke-miterlimit="10" stroke-linecap="round" stroke-linejoin="round"/>
<path d="M54.8317 165.668C56.2127 165.668 57.3323 164.444 57.3323 162.935C57.3323 161.425 56.2127 160.202 54.8317 160.202C53.4506 160.202 52.3311 161.425 52.3311 162.935C52.3311 164.444 53.4506 165.668 54.8317 165.668Z" fill="#444E59"/>
<path opacity="0.3" d="M42.5283 120.569H67.1843" stroke="#444E59" stroke-width="4" stroke-miterlimit="10" stroke-linecap="round" stroke-linejoin="round"/>
<path opacity="0.3" d="M47.4297 129.042H62.9335" stroke="#444E59" stroke-width="4" stroke-miterlimit="10" stroke-linecap="round" stroke-linejoin="round"/>
<path opacity="0.3" d="M42.5283 136.75H67.1843" stroke="#444E59" stroke-width="4" stroke-miterlimit="10" stroke-linecap="round" stroke-linejoin="round"/>
<path opacity="0.62" d="M54.8318 107.45C57.9254 107.45 60.4332 104.709 60.4332 101.327C60.4332 97.946 57.9254 95.2048 54.8318 95.2048C51.7383 95.2048 49.2305 97.946 49.2305 101.327C49.2305 104.709 51.7383 107.45 54.8318 107.45Z" fill="white"/>
<path d="M62.9332 145.223C62.9332 146.918 61.6829 148.284 60.1325 148.284H49.58C48.0296 148.284 46.7793 146.918 46.7793 145.223C46.7793 143.529 48.0296 142.162 49.58 142.162H60.1325C61.6829 142.107 62.9332 143.474 62.9332 145.223Z" fill="#ED8B3B"/>
<path opacity="0.32" d="M228.909 103.991H175.196C174.096 103.991 173.196 103.007 173.196 101.804V56.9239C173.196 55.7213 174.096 54.7373 175.196 54.7373H228.909C230.01 54.7373 230.91 55.7213 230.91 56.9239V101.804C230.91 103.007 230.06 103.991 228.909 103.991Z" fill="#848484"/>
<path d="M225.658 100.218H171.895C170.795 100.218 169.895 99.2343 169.895 98.0317V53.1515C169.895 51.9488 170.795 50.9648 171.895 50.9648H225.658C226.758 50.9648 227.659 51.9488 227.659 53.1515V98.0317C227.659 99.289 226.758 100.218 225.658 100.218Z" fill="white"/>
<path d="M225.658 100.218H171.895C170.795 100.218 169.895 99.2343 169.895 98.0317V53.1515C169.895 51.9488 170.795 50.9648 171.895 50.9648H225.658C226.758 50.9648 227.659 51.9488 227.659 53.1515V98.0317C227.659 99.289 226.758 100.218 225.658 100.218Z" stroke="#444E59" stroke-width="4" stroke-miterlimit="10" stroke-linecap="round" stroke-linejoin="round"/>
<g opacity="0.3">
<g opacity="0.3">
<path opacity="0.3" d="M210.754 87.2632V88.0832H210.004" stroke="#444E59" stroke-width="2" stroke-linejoin="round"/>
<path opacity="0.3" d="M209.054 88.0833H188.099" stroke="#444E59" stroke-width="2" stroke-linejoin="round" stroke-dasharray="2.86 2.86"/>
<path opacity="0.3" d="M187.599 88.0832H186.849V87.2632" stroke="#444E59" stroke-width="2" stroke-linejoin="round"/>
<path opacity="0.3" d="M186.849 86.1152V64.7958" stroke="#444E59" stroke-width="2" stroke-linejoin="round" stroke-dasharray="3 3"/>
<path opacity="0.3" d="M186.849 64.2492V63.4292H187.599" stroke="#444E59" stroke-width="2" stroke-linejoin="round"/>
<path opacity="0.3" d="M188.549 63.4291H209.504" stroke="#444E59" stroke-width="2" stroke-linejoin="round" stroke-dasharray="2.86 2.86"/>
<path opacity="0.3" d="M210.004 63.4291H210.754V64.2491" stroke="#444E59" stroke-width="2" stroke-linejoin="round"/>
<path opacity="0.3" d="M210.754 65.3422V86.7163" stroke="#444E59" stroke-width="2" stroke-linejoin="round" stroke-dasharray="3 3"/>
</g>
</g>
<path d="M188.75 61.5203H185.199V65.4015H188.75V61.5203Z" fill="white"/>
<path d="M188.549 61.3516H185.048V65.1781H188.549V61.3516Z" stroke="#444E59" stroke-miterlimit="10" stroke-linejoin="round"/>
<path d="M188.75 86.1171H185.199V89.9983H188.75V86.1171Z" fill="white"/>
<path d="M188.549 86.0056H185.048V89.8322H188.549V86.0056Z" stroke="#444E59" stroke-miterlimit="10" stroke-linejoin="round"/>
<path d="M212.555 61.5203H209.004V65.4015H212.555V61.5203Z" fill="white"/>
<path d="M212.506 61.3516H209.005V65.1781H212.506V61.3516Z" stroke="#444E59" stroke-miterlimit="10" stroke-linejoin="round"/>
<path d="M212.555 86.1176H209.004V89.9988H212.555V86.1176Z" fill="white"/>
<path d="M212.506 86.0056H209.005V89.8322H212.506V86.0056Z" stroke="#444E59" stroke-miterlimit="10" stroke-linejoin="round"/>
<path opacity="0.32" d="M248.305 98.6303H239.003C238.453 98.6303 238.003 98.1383 238.003 97.537V62.7151C238.003 62.1138 238.453 61.6218 239.003 61.6218H248.305C248.856 61.6218 249.306 62.1138 249.306 62.7151V97.5916C249.306 98.1383 248.856 98.6303 248.305 98.6303Z" fill="#848484"/>
<path d="M246.605 58.8342H235.353V71.1339H246.605V58.8342Z" fill="#F09F54"/>
<path d="M246.805 58.9436H235.553V71.2433H246.805V58.9436Z" stroke="#444E59" stroke-width="4" stroke-miterlimit="10" stroke-linecap="round" stroke-linejoin="round"/>
<path d="M246.805 58.9436H235.553V71.2433H246.805V58.9436Z" stroke="#444E59" stroke-width="4" stroke-miterlimit="10" stroke-linecap="round" stroke-linejoin="round"/>
<path d="M246.605 71.134H235.353V83.4337H246.605V71.134Z" fill="#8D91DB"/>
<path d="M246.805 71.2979H235.553V83.5976H246.805V71.2979Z" stroke="#444E59" stroke-width="4" stroke-miterlimit="10" stroke-linecap="round" stroke-linejoin="round"/>
<path d="M246.605 83.4338H235.353V95.7335H246.605V83.4338Z" fill="#6567C3"/>
<path d="M246.805 83.5978H235.553V95.8975H246.805V83.5978Z" stroke="#444E59" stroke-width="4" stroke-miterlimit="10" stroke-linecap="round" stroke-linejoin="round"/>
<path d="M241.861 76.765L238.31 85.0742L234.86 87.0421L232.459 84.4182L234.209 80.5916L241.861 76.765Z" fill="white"/>
<path d="M241.861 76.765L238.31 85.0742L234.86 87.0421L232.459 84.4182L234.209 80.5916L241.861 76.765Z" stroke="#444E59" stroke-miterlimit="10" stroke-linejoin="round"/>
<path d="M237.36 82.5048C236.836 82.5048 236.41 82.0397 236.41 81.4661C236.41 80.8925 236.836 80.4275 237.36 80.4275C237.885 80.4275 238.311 80.8925 238.311 81.4661C238.311 82.0397 237.885 82.5048 237.36 82.5048Z" fill="#444E59"/>
<path d="M241.861 76.765L237.91 81.0836" stroke="#444E59" stroke-miterlimit="10" stroke-linecap="round" stroke-linejoin="round"/>
<path d="M232.444 84.3743L234.849 87.0028L233.116 88.8969L230.712 86.2684L232.444 84.3743Z" fill="white"/>
<path d="M232.444 84.3743L234.849 87.0028L233.116 88.8969L230.712 86.2684L232.444 84.3743Z" stroke="#444E59" stroke-miterlimit="10" stroke-linejoin="round"/>
</svg>
