<svg width="324" height="176" viewBox="0 0 324 176" fill="none" xmlns="http://www.w3.org/2000/svg">
<path d="M319.98 176H3.49875C1.555 176 0 174.057 0 171.628C0 169.199 1.555 167.256 3.49875 167.256H320.019C321.963 167.256 323.518 169.199 323.518 171.628C323.479 174.057 321.924 176 319.98 176Z" fill="#FFB4B4"/>
<path d="M236.874 136.75H70.7339C67.4331 136.75 64.7324 133.798 64.7324 130.19V8.56008C64.7324 4.95217 67.4331 2.00024 70.7339 2.00024H236.874C240.175 2.00024 242.876 4.95217 242.876 8.56008V130.136C242.876 133.798 240.225 136.75 236.874 136.75Z" fill="#BFCFE2"/>
<path d="M232.315 113.67L232.315 14.3434L75.9775 14.3434L75.9775 113.67L232.315 113.67Z" fill="#28A8E0"/>
<path opacity="0.4" d="M77.3845 86.6766H64.7314V127.512C64.7314 132.596 68.7324 136.75 73.4336 136.75H87.9871V98.4844C87.9371 92.0885 83.1859 86.6766 77.3845 86.6766Z" fill="#848484"/>
<path d="M237.374 136.75H70.9341C67.6333 136.75 64.9326 133.798 64.9326 130.19V8.55984C64.9326 4.95193 67.6333 2 70.9341 2H237.374C240.675 2 243.376 4.95193 243.376 8.55984V130.136C243.376 133.798 240.675 136.75 237.374 136.75Z" stroke="#444E59" stroke-width="4" stroke-miterlimit="10" stroke-linecap="round" stroke-linejoin="round"/>
<path d="M232.114 113.669L232.114 14.3418L76.2264 14.3418L76.2264 113.669L232.114 113.669Z" stroke="#444E59" stroke-width="4" stroke-miterlimit="10" stroke-linecap="round" stroke-linejoin="round"/>
<path opacity="0.32" d="M201.814 108.871H115.893C113.943 108.871 112.393 107.122 112.393 105.044V38.0247C112.393 35.8927 113.993 34.1981 115.893 34.1981H201.814C203.765 34.1981 205.315 35.9474 205.315 38.0247V104.99C205.315 107.122 203.765 108.871 201.814 108.871Z" fill="#848484"/>
<path d="M197.813 105.153H111.892C109.942 105.153 108.392 103.404 108.392 101.327V34.3616C108.392 32.2297 109.992 30.535 111.892 30.535H197.813C199.764 30.535 201.314 32.2843 201.314 34.3616V101.327C201.364 103.459 199.764 105.153 197.813 105.153Z" fill="#AFB1B2"/>
<path d="M197.813 105.153H111.892C109.942 105.153 108.392 103.404 108.392 101.327V34.3616C108.392 32.2297 109.992 30.535 111.892 30.535H197.813C199.764 30.535 201.314 32.2843 201.314 34.3616V101.327C201.364 103.459 199.764 105.153 197.813 105.153Z" stroke="#444E59" stroke-width="4" stroke-miterlimit="10" stroke-linecap="round" stroke-linejoin="round"/>
<path d="M175.108 166.761H133.198L138.4 136.75H169.907L175.108 166.761Z" fill="#BFCFE2"/>
<path opacity="0.32" d="M171.307 145.223L169.907 136.75H138.399L136.999 145.223H171.307Z" fill="#848484"/>
<path d="M175.108 166.761H133.198L138.4 136.75H169.907L175.108 166.761Z" stroke="#444E59" stroke-width="4" stroke-miterlimit="10" stroke-linecap="round" stroke-linejoin="round"/>
<path d="M153.903 126.364C155.616 126.364 157.004 124.847 157.004 122.975C157.004 121.103 155.616 119.585 153.903 119.585C152.191 119.585 150.803 121.103 150.803 122.975C150.803 124.847 152.191 126.364 153.903 126.364Z" fill="#444E59"/>
<path d="M190.762 98.2655H104.841C102.89 98.2655 101.34 96.5162 101.34 94.4389V27.4192C101.34 25.2873 102.94 23.5927 104.841 23.5927H190.762C192.712 23.5927 194.262 25.3419 194.262 27.4192V94.3843C194.312 96.5162 192.712 98.2655 190.762 98.2655Z" fill="white"/>
<path d="M190.762 98.2655H104.841C102.89 98.2655 101.34 96.5162 101.34 94.4389V27.4192C101.34 25.2873 102.94 23.5927 104.841 23.5927H190.762C192.712 23.5927 194.262 25.3419 194.262 27.4192V94.3843C194.312 96.5162 192.712 98.2655 190.762 98.2655Z" stroke="#444E59" stroke-width="4" stroke-miterlimit="10" stroke-linecap="round" stroke-linejoin="round"/>
<path d="M194.312 35.1273H101.34V27.5835C101.34 25.3968 102.99 23.5382 105.041 23.5382H190.862C192.762 23.5382 194.312 25.2328 194.312 27.3101V35.1273Z" fill="#BFCFE2"/>
<path d="M194.312 35.1273H101.34V27.5835C101.34 25.3968 102.99 23.5382 105.041 23.5382H190.862C192.762 23.5382 194.312 25.2328 194.312 27.3101V35.1273Z" stroke="#444E59" stroke-width="4" stroke-miterlimit="10" stroke-linecap="round" stroke-linejoin="round"/>
<path d="M110.293 31.1915C111.204 31.1915 111.943 30.3839 111.943 29.3876C111.943 28.3913 111.204 27.5836 110.293 27.5836C109.381 27.5836 108.643 28.3913 108.643 29.3876C108.643 30.3839 109.381 31.1915 110.293 31.1915Z" fill="#444E59"/>
<path d="M115.744 31.1915C116.656 31.1915 117.395 30.3839 117.395 29.3876C117.395 28.3913 116.656 27.5836 115.744 27.5836C114.833 27.5836 114.094 28.3913 114.094 29.3876C114.094 30.3839 114.833 31.1915 115.744 31.1915Z" fill="#444E59"/>
<path d="M121.146 31.1915C122.057 31.1915 122.796 30.3839 122.796 29.3876C122.796 28.3913 122.057 27.5836 121.146 27.5836C120.234 27.5836 119.495 28.3913 119.495 29.3876C119.495 30.3839 120.234 31.1915 121.146 31.1915Z" fill="#444E59"/>
<path d="M185.56 55.1349H109.392C108.842 55.1349 108.392 54.6429 108.392 54.0416V42.3979C108.392 41.7966 108.842 41.3046 109.392 41.3046H185.56C186.11 41.3046 186.561 41.7966 186.561 42.3979V54.0416C186.561 54.6429 186.11 55.1349 185.56 55.1349Z" fill="#6567C3"/>
<path opacity="0.2" d="M131.297 69.7305H109.342C108.792 69.7305 108.342 69.2385 108.342 68.6371V62.3506C108.342 61.7493 108.792 61.2573 109.342 61.2573H131.297C131.847 61.2573 132.298 61.7493 132.298 62.3506V68.6371C132.298 69.2385 131.898 69.7305 131.297 69.7305Z" fill="#444E59"/>
<path opacity="0.2" d="M111.893 75.9078H129.497" stroke="#444E59" stroke-width="4" stroke-miterlimit="10" stroke-linecap="round" stroke-linejoin="round"/>
<path opacity="0.2" d="M111.893 82.0845H129.497" stroke="#444E59" stroke-width="4" stroke-miterlimit="10" stroke-linecap="round" stroke-linejoin="round"/>
<path opacity="0.2" d="M158.804 69.7305H136.849C136.299 69.7305 135.849 69.2385 135.849 68.6371V62.3506C135.849 61.7493 136.299 61.2573 136.849 61.2573H158.804C159.354 61.2573 159.804 61.7493 159.804 62.3506V68.6371C159.804 69.2385 159.354 69.7305 158.804 69.7305Z" fill="#444E59"/>
<path opacity="0.2" d="M139.35 75.9078H156.254" stroke="#444E59" stroke-width="4" stroke-miterlimit="10" stroke-linecap="round" stroke-linejoin="round"/>
<path opacity="0.2" d="M139.35 82.0845H156.254" stroke="#444E59" stroke-width="4" stroke-miterlimit="10" stroke-linecap="round" stroke-linejoin="round"/>
<g opacity="0.2">
<path opacity="0.2" d="M186.261 82.8505H164.306C163.756 82.8505 163.306 82.3585 163.306 81.7572V62.4057C163.306 61.8044 163.756 61.3124 164.306 61.3124H186.261C186.811 61.3124 187.261 61.8044 187.261 62.4057V81.7572C187.261 82.3585 186.811 82.8505 186.261 82.8505Z" fill="#444E59"/>
</g>
<g opacity="0.09">
<path opacity="0.09" d="M185.561 89.0276H164.656C163.856 89.0276 163.256 88.3169 163.256 87.4969C163.256 86.677 163.906 85.9663 164.656 85.9663H185.561C186.361 85.9663 186.962 86.677 186.962 87.4969C186.962 88.3169 186.311 89.0276 185.561 89.0276Z" fill="#444E59"/>
</g>
<path d="M254.271 142.628H294.581C295.081 142.628 295.531 142.792 295.881 143.175L305.633 152.468C306.534 153.343 306.534 154.873 305.633 155.693L295.881 165.15C295.531 165.478 295.081 165.806 294.581 165.806H254.271C251.97 165.806 250.07 163.51 250.07 160.996V147.056C250.12 144.651 251.97 142.628 254.271 142.628ZM295.681 156.787C297.031 156.787 298.182 155.584 298.182 154.053C298.182 152.523 297.081 151.32 295.681 151.32C294.281 151.32 293.18 152.523 293.18 154.053C293.18 155.584 294.281 156.787 295.681 156.787Z" fill="white"/>
<path d="M273.575 142.628H285.328V165.861H273.575V142.628Z" fill="#F09F54"/>
<path d="M261.822 142.628H273.575V165.861H261.822V142.628Z" fill="#ED8B3B"/>
<path d="M255.321 165.861H261.822V142.628H255.121C252.37 142.628 250.069 145.088 250.069 148.149V160.176C250.119 163.292 252.47 165.861 255.321 165.861Z" fill="#FF6C37"/>
<path opacity="0.4" d="M253.171 143.776C253.371 143.721 253.571 143.721 253.771 143.721H294.081C294.581 143.721 295.031 143.885 295.381 144.268L305.133 153.561C306.034 154.436 306.034 155.966 305.133 156.786L299.032 162.635L292.43 164.439C292.13 164.549 291.78 164.549 291.43 164.549C290.78 164.549 290.18 164.385 289.58 164.057L253.671 144.049C253.521 143.995 253.321 143.885 253.171 143.776ZM295.181 157.879C296.531 157.879 297.682 156.677 297.682 155.146C297.682 153.616 296.581 152.413 295.181 152.413C293.781 152.413 292.68 153.616 292.68 155.146C292.68 156.677 293.781 157.879 295.181 157.879Z" fill="#848484"/>
<path d="M254.271 142.628H294.581C295.081 142.628 295.531 142.792 295.881 143.175L305.633 152.468C306.534 153.343 306.534 154.873 305.633 155.693L295.881 165.15C295.531 165.478 295.081 165.806 294.581 165.806H254.271C251.97 165.806 250.07 163.51 250.07 160.996V147.056C250.12 144.651 251.97 142.628 254.271 142.628ZM295.681 156.787C297.031 156.787 298.182 155.584 298.182 154.053C298.182 152.523 297.081 151.32 295.681 151.32C294.281 151.32 293.18 152.523 293.18 154.053C293.18 155.584 294.281 156.787 295.681 156.787Z" stroke="#444E59" stroke-width="4" stroke-miterlimit="10" stroke-linecap="round" stroke-linejoin="round"/>
<path d="M273.575 142.628H285.328V165.861H273.575V142.628Z" stroke="#444E59" stroke-width="4" stroke-miterlimit="10" stroke-linecap="round" stroke-linejoin="round"/>
<path d="M261.822 142.628H273.575V165.861H261.822V142.628Z" stroke="#444E59" stroke-width="4" stroke-miterlimit="10" stroke-linecap="round" stroke-linejoin="round"/>
<path d="M255.321 165.861H261.822V142.628H255.121C252.37 142.628 250.069 145.088 250.069 148.149V160.176C250.119 163.292 252.47 165.861 255.321 165.861Z" stroke="#444E59" stroke-width="4" stroke-miterlimit="10" stroke-linecap="round" stroke-linejoin="round"/>
<path d="M264.674 120.544L300.582 140.551C301.033 140.77 301.333 141.207 301.533 141.699L306.334 154.819C306.784 156.021 306.134 157.388 304.983 157.716L292.43 161.215C291.98 161.324 291.48 161.269 291.03 161.051L255.121 141.043C253.071 139.895 252.271 137.162 253.321 134.975L259.122 122.566C260.173 120.27 262.673 119.396 264.674 120.544Z" fill="white"/>
<path d="M271.437 124.288L281.906 130.127L272.359 150.579L261.89 144.74L271.437 124.288Z" fill="#8D91DB"/>
<path d="M264.674 120.544L300.582 140.551C301.033 140.77 301.333 141.207 301.533 141.699L306.334 154.819C306.784 156.021 306.134 157.388 304.983 157.716L292.43 161.215C291.98 161.324 291.48 161.269 291.03 161.051L255.121 141.043C253.071 139.895 252.271 137.162 253.321 134.975L259.122 122.566C260.173 120.27 262.673 119.396 264.674 120.544Z" stroke="#444E59" stroke-width="4" stroke-miterlimit="10" stroke-linecap="round" stroke-linejoin="round"/>
<path d="M296.781 154.491C295.179 154.491 293.88 153.071 293.88 151.32C293.88 149.569 295.179 148.149 296.781 148.149C298.383 148.149 299.682 149.569 299.682 151.32C299.682 153.071 298.383 154.491 296.781 154.491Z" fill="#444E59"/>
<path d="M281.929 130.156L292.398 135.995L282.852 156.447L272.382 150.608L281.929 130.156Z" fill="#BECCD5" stroke="#444E59" stroke-width="4" stroke-miterlimit="10" stroke-linecap="round" stroke-linejoin="round"/>
<path d="M281.929 130.156L292.398 135.995L282.852 156.447L272.382 150.608L281.929 130.156Z" stroke="#444E59" stroke-width="4" stroke-miterlimit="10" stroke-linecap="round" stroke-linejoin="round"/>
<path d="M271.437 124.288L281.906 130.127L272.359 150.579L261.89 144.74L271.437 124.288Z" stroke="#444E59" stroke-width="4" stroke-miterlimit="10" stroke-linecap="round" stroke-linejoin="round"/>
<path d="M255.922 141.425L261.923 144.76L271.476 124.315L265.474 120.981C263.024 119.614 260.023 120.653 258.722 123.386L253.721 134.1C252.471 136.779 253.471 140.059 255.922 141.425Z" fill="#6567C3"/>
<path d="M255.922 141.425L261.923 144.76L271.476 124.315L265.474 120.981C263.024 119.614 260.023 120.653 258.722 123.386L253.721 134.1C252.471 136.779 253.471 140.059 255.922 141.425Z" stroke="#444E59" stroke-width="4" stroke-miterlimit="10" stroke-linecap="round" stroke-linejoin="round"/>
<path d="M77.3371 171.353H43.679C40.9283 171.353 38.6777 168.893 38.6777 165.887V92.1432C38.6777 89.1366 40.9283 86.6766 43.679 86.6766H77.3371C80.0878 86.6766 82.3383 89.1366 82.3383 92.1432V165.887C82.3383 168.948 80.0878 171.353 77.3371 171.353Z" fill="white"/>
<path d="M83.0385 112.096H38.6777V92.0338C38.6777 89.0819 40.8783 86.6766 43.5789 86.6766H77.8372C80.6879 86.6766 82.9885 89.2459 82.9885 92.3072V112.096H83.0385Z" fill="#6567C3"/>
<path d="M77.3371 171.353H43.679C40.9283 171.353 38.6777 168.893 38.6777 165.887V92.1432C38.6777 89.1366 40.9283 86.6766 43.679 86.6766H77.3371C80.0878 86.6766 82.3383 89.1366 82.3383 92.1432V165.887C82.3383 168.948 80.0878 171.353 77.3371 171.353Z" stroke="#444E59" stroke-width="4" stroke-miterlimit="10" stroke-linecap="round" stroke-linejoin="round"/>
<path d="M77.3854 171.353H43.8272C40.9765 171.353 38.626 168.784 38.626 165.668V155.172H82.3366V165.941C82.3366 168.948 80.086 171.353 77.3854 171.353Z" fill="#BFCFE2"/>
<path d="M77.4854 171.353H43.8272C40.9765 171.353 38.626 168.784 38.626 165.668V155.172H82.3366V166.051C82.3366 169.003 80.136 171.353 77.4854 171.353Z" stroke="#444E59" stroke-width="4" stroke-miterlimit="10" stroke-linecap="round" stroke-linejoin="round"/>
<path d="M60.8317 165.668C62.2127 165.668 63.3323 164.444 63.3323 162.935C63.3323 161.425 62.2127 160.202 60.8317 160.202C59.4506 160.202 58.3311 161.425 58.3311 162.935C58.3311 164.444 59.4506 165.668 60.8317 165.668Z" fill="#444E59"/>
<path opacity="0.3" d="M48.5283 120.569H73.1843" stroke="#444E59" stroke-width="4" stroke-miterlimit="10" stroke-linecap="round" stroke-linejoin="round"/>
<path opacity="0.3" d="M53.4297 129.042H68.9335" stroke="#444E59" stroke-width="4" stroke-miterlimit="10" stroke-linecap="round" stroke-linejoin="round"/>
<path opacity="0.3" d="M48.5283 136.75H73.1843" stroke="#444E59" stroke-width="4" stroke-miterlimit="10" stroke-linecap="round" stroke-linejoin="round"/>
<path opacity="0.62" d="M60.8318 107.45C63.9254 107.45 66.4332 104.709 66.4332 101.327C66.4332 97.946 63.9254 95.2048 60.8318 95.2048C57.7383 95.2048 55.2305 97.946 55.2305 101.327C55.2305 104.709 57.7383 107.45 60.8318 107.45Z" fill="white"/>
<path d="M68.9332 145.223C68.9332 146.918 67.6829 148.284 66.1325 148.284H55.58C54.0296 148.284 52.7793 146.918 52.7793 145.223C52.7793 143.529 54.0296 142.162 55.58 142.162H66.1325C67.6829 142.107 68.9332 143.474 68.9332 145.223Z" fill="#ED8B3B"/>
<path opacity="0.32" d="M205.909 103.991H152.196C151.096 103.991 150.195 103.007 150.195 101.804V56.9239C150.195 55.7213 151.096 54.7373 152.196 54.7373H205.909C207.009 54.7373 207.909 55.7213 207.909 56.9239V101.804C207.909 103.007 207.059 103.991 205.909 103.991Z" fill="#848484"/>
<path d="M202.658 100.218H148.895C147.795 100.218 146.895 99.2343 146.895 98.0317V53.1515C146.895 51.9488 147.795 50.9648 148.895 50.9648H202.658C203.758 50.9648 204.659 51.9488 204.659 53.1515V98.0317C204.659 99.289 203.758 100.218 202.658 100.218Z" fill="white"/>
<path d="M202.658 100.218H148.895C147.795 100.218 146.895 99.2343 146.895 98.0317V53.1515C146.895 51.9488 147.795 50.9648 148.895 50.9648H202.658C203.758 50.9648 204.659 51.9488 204.659 53.1515V98.0317C204.659 99.289 203.758 100.218 202.658 100.218Z" stroke="#444E59" stroke-width="4" stroke-miterlimit="10" stroke-linecap="round" stroke-linejoin="round"/>
<g opacity="0.3">
<g opacity="0.3">
<path opacity="0.3" d="M187.754 87.2632V88.0832H187.004" stroke="#444E59" stroke-width="2" stroke-linejoin="round"/>
<path opacity="0.3" d="M186.054 88.0833H165.099" stroke="#444E59" stroke-width="2" stroke-linejoin="round" stroke-dasharray="2.86 2.86"/>
<path opacity="0.3" d="M164.599 88.0832H163.849V87.2632" stroke="#444E59" stroke-width="2" stroke-linejoin="round"/>
<path opacity="0.3" d="M163.849 86.1152V64.7958" stroke="#444E59" stroke-width="2" stroke-linejoin="round" stroke-dasharray="3 3"/>
<path opacity="0.3" d="M163.85 64.2492V63.4292H164.6" stroke="#444E59" stroke-width="2" stroke-linejoin="round"/>
<path opacity="0.3" d="M165.549 63.4291H186.504" stroke="#444E59" stroke-width="2" stroke-linejoin="round" stroke-dasharray="2.86 2.86"/>
<path opacity="0.3" d="M187.004 63.4291H187.754V64.2491" stroke="#444E59" stroke-width="2" stroke-linejoin="round"/>
<path opacity="0.3" d="M187.754 65.3422V86.7163" stroke="#444E59" stroke-width="2" stroke-linejoin="round" stroke-dasharray="3 3"/>
</g>
</g>
<path d="M165.749 61.5203H162.198V65.4015H165.749V61.5203Z" fill="white"/>
<path d="M165.549 61.3516H162.048V65.1781H165.549V61.3516Z" stroke="#444E59" stroke-miterlimit="10" stroke-linejoin="round"/>
<path d="M165.749 86.1171H162.198V89.9983H165.749V86.1171Z" fill="white"/>
<path d="M165.549 86.0056H162.048V89.8322H165.549V86.0056Z" stroke="#444E59" stroke-miterlimit="10" stroke-linejoin="round"/>
<path d="M189.555 61.5203H186.004V65.4015H189.555V61.5203Z" fill="white"/>
<path d="M189.505 61.3516H186.004V65.1781H189.505V61.3516Z" stroke="#444E59" stroke-miterlimit="10" stroke-linejoin="round"/>
<path d="M189.555 86.1176H186.004V89.9988H189.555V86.1176Z" fill="white"/>
<path d="M189.505 86.0056H186.004V89.8322H189.505V86.0056Z" stroke="#444E59" stroke-miterlimit="10" stroke-linejoin="round"/>
<path opacity="0.32" d="M225.305 98.6303H216.003C215.453 98.6303 215.003 98.1383 215.003 97.537V62.7151C215.003 62.1138 215.453 61.6218 216.003 61.6218H225.305C225.856 61.6218 226.306 62.1138 226.306 62.7151V97.5916C226.306 98.1383 225.856 98.6303 225.305 98.6303Z" fill="#848484"/>
<path d="M223.605 58.8342H212.353V71.1339H223.605V58.8342Z" fill="#F09F54"/>
<path d="M223.805 58.9436H212.553V71.2433H223.805V58.9436Z" stroke="#444E59" stroke-width="4" stroke-miterlimit="10" stroke-linecap="round" stroke-linejoin="round"/>
<path d="M223.805 58.9436H212.553V71.2433H223.805V58.9436Z" stroke="#444E59" stroke-width="4" stroke-miterlimit="10" stroke-linecap="round" stroke-linejoin="round"/>
<path d="M223.605 71.134H212.353V83.4337H223.605V71.134Z" fill="#8D91DB"/>
<path d="M223.805 71.2979H212.553V83.5976H223.805V71.2979Z" stroke="#444E59" stroke-width="4" stroke-miterlimit="10" stroke-linecap="round" stroke-linejoin="round"/>
<path d="M223.605 83.4338H212.353V95.7335H223.605V83.4338Z" fill="#6567C3"/>
<path d="M223.805 83.5978H212.553V95.8975H223.805V83.5978Z" stroke="#444E59" stroke-width="4" stroke-miterlimit="10" stroke-linecap="round" stroke-linejoin="round"/>
<path d="M218.861 76.765L215.31 85.0742L211.86 87.0421L209.459 84.4182L211.209 80.5916L218.861 76.765Z" fill="white"/>
<path d="M218.861 76.765L215.31 85.0742L211.86 87.0421L209.459 84.4182L211.209 80.5916L218.861 76.765Z" stroke="#444E59" stroke-miterlimit="10" stroke-linejoin="round"/>
<path d="M214.36 82.5048C213.836 82.5048 213.41 82.0397 213.41 81.4661C213.41 80.8925 213.836 80.4275 214.36 80.4275C214.885 80.4275 215.311 80.8925 215.311 81.4661C215.311 82.0397 214.885 82.5048 214.36 82.5048Z" fill="#444E59"/>
<path d="M218.861 76.765L214.91 81.0836" stroke="#444E59" stroke-miterlimit="10" stroke-linecap="round" stroke-linejoin="round"/>
<path d="M209.444 84.3743L211.849 87.0028L210.116 88.8969L207.711 86.2684L209.444 84.3743Z" fill="white"/>
<path d="M209.444 84.3743L211.849 87.0028L210.116 88.8969L207.711 86.2684L209.444 84.3743Z" stroke="#444E59" stroke-miterlimit="10" stroke-linejoin="round"/>
</svg>
