<svg width="347" height="173" viewBox="0 0 347 173" fill="none" xmlns="http://www.w3.org/2000/svg">
<path d="M341.436 172.563H4.88308C2.17026 172.563 0 170.444 0 167.795C0 165.145 2.17026 163.026 4.88308 163.026H341.436C344.149 163.026 346.319 165.145 346.319 167.795C346.319 170.444 344.149 172.563 341.436 172.563Z" fill="#88C6FF"/>
<path d="M68.1891 123.29C62.9805 123.29 58.8027 119.158 58.8027 114.124C58.8027 109.091 63.0347 104.958 68.1891 104.958H121.361V123.343H68.1891V123.29Z" fill="#CECECE"/>
<path d="M124.46 126.457H68.1955C61.1964 126.457 55.5537 120.894 55.5537 114.112C55.5537 107.277 61.2506 101.767 68.1955 101.767H124.46V126.457Z" fill="white"/>
<path d="M64.7236 111.263H121.367" stroke="#1F3969" stroke-width="4" stroke-miterlimit="10" stroke-linecap="round" stroke-linejoin="round"/>
<path d="M64.7236 116.877H121.367" stroke="#1F3969" stroke-width="4" stroke-miterlimit="10" stroke-linecap="round" stroke-linejoin="round"/>
<path d="M68.1891 123.29C62.9805 123.29 58.8027 119.158 58.8027 114.124C58.8027 109.091 63.0347 104.958 68.1891 104.958H121.361V123.343H68.1891V123.29Z" stroke="#1F3969" stroke-width="4" stroke-miterlimit="10" stroke-linecap="round" stroke-linejoin="round"/>
<path d="M68.1955 123.278C62.9869 123.278 58.8091 119.145 58.8091 114.112C58.8091 109.078 63.0411 104.946 68.1955 104.946H122.289L124.46 101.767H68.1955C61.1964 101.767 55.5537 107.33 55.5537 114.112C55.5537 120.947 61.2506 126.457 68.1955 126.457H124.46L122.289 123.278H68.1955Z" fill="#FF3E3E"/>
<path d="M68.1955 123.278C62.9869 123.278 58.8091 119.145 58.8091 114.112C58.8091 109.078 63.0411 104.946 68.1955 104.946H122.289L124.46 101.767H68.1955C61.1964 101.767 55.5537 107.33 55.5537 114.112C55.5537 120.947 61.2506 126.457 68.1955 126.457H124.46L122.289 123.278H68.1955Z" stroke="#1F3969" stroke-width="4" stroke-miterlimit="10" stroke-linecap="round" stroke-linejoin="round"/>
<path opacity="0.28" d="M112.357 101.725H102.374V126.469H112.357V101.725Z" fill="#1F3969" stroke="#1F3969" stroke-width="4" stroke-miterlimit="10" stroke-linecap="round" stroke-linejoin="round"/>
<path d="M118.66 146.866H15.6269C13.6195 146.866 11.9375 145.277 11.9375 143.263V130.017C11.9375 128.057 13.5652 126.415 15.6269 126.415H118.66C120.668 126.415 122.35 128.004 122.35 130.017V143.263C122.35 145.277 120.722 146.866 118.66 146.866Z" fill="#50B56F"/>
<path d="M118.66 146.866H15.6269C13.6195 146.866 11.9375 145.277 11.9375 143.263V130.017C11.9375 128.057 13.5652 126.415 15.6269 126.415H118.66C120.668 126.415 122.35 128.004 122.35 130.017V143.263C122.35 145.277 120.722 146.866 118.66 146.866Z" stroke="#1F3969" stroke-width="4" stroke-miterlimit="10" stroke-linecap="round" stroke-linejoin="round"/>
<path opacity="0.28" d="M118.666 126.469H102.389V134.416C102.389 139.397 106.512 143.477 111.667 143.477H122.355C122.355 143.424 122.355 143.371 122.355 143.318V130.072C122.355 128.058 120.727 126.469 118.666 126.469Z" fill="#1F3969" stroke="#1F3969" stroke-width="4" stroke-miterlimit="10" stroke-linecap="round" stroke-linejoin="round"/>
<path d="M147.69 150.998H28.3252C29.0305 152.694 29.4103 154.813 29.4103 157.038C29.4103 159.264 29.0305 161.33 28.3252 163.078H147.635C146.93 161.383 146.55 159.264 146.55 157.038C146.604 154.76 146.984 152.694 147.69 150.998Z" fill="#CECECE"/>
<path d="M150.939 147.766H25.1182V150.945H150.939V147.766Z" fill="#5F5AFF"/>
<path d="M150.939 147.766H25.1182V150.945H150.939V147.766Z" stroke="#1F3969" stroke-width="4" stroke-miterlimit="10" stroke-linecap="round" stroke-linejoin="round"/>
<path d="M150.939 163.026H25.1182V166.205H150.939V163.026Z" fill="#F6F9FD"/>
<path d="M150.939 163.026H25.1182V166.205H150.939V163.026Z" fill="#5F5AFF"/>
<path d="M150.939 163.026H25.1182V166.205H150.939V163.026Z" stroke="#1F3969" stroke-width="4" stroke-miterlimit="10" stroke-linecap="round" stroke-linejoin="round"/>
<path d="M213.444 154.919L211.817 137.064H185.014L183.386 154.919C183.006 159.052 180.456 163.026 176.441 166.205V166.258H220.389V166.205C216.374 163.026 213.824 159.052 213.444 154.919Z" fill="#BFCFE2"/>
<path opacity="0.28" d="M185.021 137.064L184.044 147.766H212.8L211.823 137.064H185.021Z" fill="#1F3969" stroke="#1F3969" stroke-width="4" stroke-miterlimit="10" stroke-linecap="round" stroke-linejoin="round"/>
<path d="M213.444 154.919L211.817 137.064H185.014L183.386 154.919C183.006 159.052 180.456 163.026 176.441 166.205V166.258H220.389V166.205C216.374 163.026 213.824 159.052 213.444 154.919Z" stroke="#1F3969" stroke-width="4" stroke-miterlimit="10" stroke-linecap="round" stroke-linejoin="round"/>
<path d="M284.139 139.713H112.689C109.108 139.713 106.178 136.852 106.178 133.355V24.2089C106.178 20.7119 109.108 17.8508 112.689 17.8508H284.139C287.72 17.8508 290.65 20.7119 290.65 24.2089V133.355C290.65 136.905 287.72 139.713 284.139 139.713Z" fill="white"/>
<path d="M284.139 139.713H112.689C109.108 139.713 106.178 136.852 106.178 133.355V24.2089C106.178 20.7119 109.108 17.8508 112.689 17.8508H284.139C287.72 17.8508 290.65 20.7119 290.65 24.2089V133.355C290.65 136.905 287.72 139.713 284.139 139.713Z" fill="#BFCFE2"/>
<path d="M284.139 139.713H112.689C109.108 139.713 106.178 136.852 106.178 133.355V24.2089C106.178 20.7119 109.108 17.8508 112.689 17.8508H284.139C287.72 17.8508 290.65 20.7119 290.65 24.2089V133.355C290.65 136.905 287.72 139.713 284.139 139.713Z" stroke="#1F3969" stroke-width="4" stroke-miterlimit="10" stroke-linecap="round" stroke-linejoin="round"/>
<path d="M281.457 119.382V26.873L115.432 26.873L115.432 119.382L281.457 119.382Z" fill="#F6F9FD"/>
<path opacity="0.28" d="M121.371 17.8508V91.2861C121.371 93.6174 123.324 95.5248 125.712 95.5248H228.311C230.698 95.5248 232.651 93.6174 232.651 91.2861V17.8508H121.371Z" fill="#1F3969" stroke="#1F3969" stroke-width="4" stroke-miterlimit="10" stroke-linecap="round" stroke-linejoin="round"/>
<path d="M281.457 119.382V26.873L115.432 26.873L115.432 119.382L281.457 119.382Z" stroke="#1F3969" stroke-width="4" stroke-miterlimit="10" stroke-linecap="round" stroke-linejoin="round"/>
<path d="M191.145 129.487H205.74" stroke="#1F3969" stroke-width="4" stroke-miterlimit="10" stroke-linecap="round" stroke-linejoin="round"/>
<path d="M233.202 89.6987H130.603C128.216 89.6987 126.263 87.7913 126.263 85.46V6.93816C126.263 4.60688 128.216 2.69946 130.603 2.69946H233.202C235.59 2.69946 237.543 4.60688 237.543 6.93816V85.513C237.543 87.8442 235.59 89.6987 233.202 89.6987Z" fill="#2D425E"/>
<path d="M237.543 12.9769H126.263V6.88383C126.263 4.55255 128.216 2.64514 130.603 2.64514H233.202C235.59 2.64514 237.543 4.55255 237.543 6.88383V12.9769Z" stroke="#1F3969" stroke-width="4" stroke-miterlimit="10" stroke-linecap="round" stroke-linejoin="round"/>
<path d="M237.543 14.9903H126.263V6.88383C126.263 4.55255 128.216 2.64514 130.603 2.64514H233.202C235.59 2.64514 237.543 4.55255 237.543 6.88383V14.9903Z" fill="#D0DDF0"/>
<path d="M237.543 14.9903H126.263V6.88383C126.263 4.55255 128.216 2.64514 130.603 2.64514H233.202C235.59 2.64514 237.543 4.55255 237.543 6.88383V14.9903Z" stroke="#1F3969" stroke-width="4" stroke-miterlimit="10" stroke-linecap="round" stroke-linejoin="round"/>
<path d="M237.543 14.9903H126.263V6.88383C126.263 4.55255 128.216 2.64514 130.603 2.64514H233.202C235.59 2.64514 237.543 4.55255 237.543 6.88383V14.9903Z" stroke="#1F3969" stroke-width="4" stroke-miterlimit="10" stroke-linecap="round" stroke-linejoin="round"/>
<path d="M233.202 89.6987H130.603C128.216 89.6987 126.263 87.7913 126.263 85.46V6.93816C126.263 4.60688 128.216 2.69946 130.603 2.69946H233.202C235.59 2.69946 237.543 4.60688 237.543 6.93816V85.513C237.543 87.8442 235.59 89.6987 233.202 89.6987Z" stroke="#1F3969" stroke-width="4" stroke-miterlimit="10" stroke-linecap="round" stroke-linejoin="round"/>
<path opacity="0.28" d="M286.753 108.455H223.815C221.428 108.455 219.475 106.548 219.475 104.216V39.0994C219.475 36.7681 221.428 34.8607 223.815 34.8607H286.753C289.14 34.8607 291.093 36.7681 291.093 39.0994V104.216C291.093 106.601 289.14 108.455 286.753 108.455Z" fill="#1F3969" stroke="#1F3969" stroke-width="4" stroke-miterlimit="10" stroke-linecap="round" stroke-linejoin="round"/>
<path d="M291.092 104.745H228.154C225.767 104.745 223.813 102.838 223.813 100.507V35.3897C223.813 33.0584 225.767 31.151 228.154 31.151H291.092C293.479 31.151 295.432 33.0584 295.432 35.3897V100.507C295.432 102.891 293.479 104.745 291.092 104.745Z" fill="#2AA1FF"/>
<path d="M291.092 104.745H228.154C225.767 104.745 223.813 102.838 223.813 100.507V35.3897C223.813 33.0584 225.767 31.151 228.154 31.151H291.092C293.479 31.151 295.432 33.0584 295.432 35.3897V100.507C295.432 102.891 293.479 104.745 291.092 104.745Z" stroke="#1F3969" stroke-width="4" stroke-miterlimit="10" stroke-linecap="round" stroke-linejoin="round"/>
<path opacity="0.34" d="M281.703 51.3386H237.43C235.856 51.3386 234.608 50.12 234.608 48.5834V44.4507C234.608 42.9142 235.856 41.6956 237.43 41.6956H281.703C283.277 41.6956 284.524 42.9142 284.524 44.4507V48.5834C284.524 50.12 283.277 51.3386 281.703 51.3386Z" stroke="white" stroke-width="2" stroke-miterlimit="10" stroke-linecap="round" stroke-linejoin="round"/>
<g opacity="0.34">
<path opacity="0.34" d="M262.284 66.8628H237.543C235.97 66.8628 234.722 65.6441 234.722 64.1076V59.9749C234.722 58.4383 235.97 57.2197 237.543 57.2197H262.284C263.857 57.2197 265.105 58.4383 265.105 59.9749V64.1076C265.051 65.6441 263.803 66.8628 262.284 66.8628Z" stroke="white" stroke-width="2" stroke-miterlimit="10" stroke-linecap="round" stroke-linejoin="round"/>
<path opacity="0.34" d="M281.755 66.8628H272.151C270.578 66.8628 269.33 65.6441 269.33 64.1076V59.9749C269.33 58.4383 270.578 57.2197 272.151 57.2197H281.755C283.328 57.2197 284.576 58.4383 284.576 59.9749V64.1076C284.576 65.6441 283.328 66.8628 281.755 66.8628Z" stroke="white" stroke-width="2" stroke-miterlimit="10" stroke-linecap="round" stroke-linejoin="round"/>
</g>
<path d="M234.669 82.9681H284.531" stroke="white" stroke-width="2" stroke-miterlimit="10" stroke-linecap="round" stroke-linejoin="round"/>
<path d="M234.669 88.691H284.531" stroke="white" stroke-width="2" stroke-miterlimit="10" stroke-linecap="round" stroke-linejoin="round"/>
<path d="M234.669 94.4135H265.053" stroke="white" stroke-width="2" stroke-miterlimit="10" stroke-linecap="round" stroke-linejoin="round"/>
<path d="M137.158 10.9645C138.356 10.9645 139.328 10.0157 139.328 8.84517C139.328 7.67469 138.356 6.72583 137.158 6.72583C135.959 6.72583 134.987 7.67469 134.987 8.84517C134.987 10.0157 135.959 10.9645 137.158 10.9645Z" fill="#1F3969"/>
<path d="M144.701 10.9645C145.899 10.9645 146.871 10.0157 146.871 8.84517C146.871 7.67469 145.899 6.72583 144.701 6.72583C143.502 6.72583 142.53 7.67469 142.53 8.84517C142.53 10.0157 143.502 10.9645 144.701 10.9645Z" fill="#1F3969"/>
<path d="M152.247 10.9645C153.446 10.9645 154.418 10.0157 154.418 8.84517C154.418 7.67469 153.446 6.72583 152.247 6.72583C151.049 6.72583 150.077 7.67469 150.077 8.84517C150.077 10.0157 151.049 10.9645 152.247 10.9645Z" fill="#1F3969"/>
<path d="M190.162 24.7931H197.215" stroke="white" stroke-width="4" stroke-miterlimit="10" stroke-linecap="round" stroke-linejoin="round"/>
<path d="M154.404 24.7931H184.951" stroke="#7BFFA0" stroke-width="4" stroke-miterlimit="10" stroke-linecap="round" stroke-linejoin="round"/>
<path d="M139.327 24.7931H150.07" stroke="#9169FF" stroke-width="4" stroke-miterlimit="10" stroke-linecap="round" stroke-linejoin="round"/>
<path d="M153.328 76.9818H176.658" stroke="#9169FF" stroke-width="4" stroke-miterlimit="10" stroke-linecap="round" stroke-linejoin="round"/>
<path d="M139.327 76.9818H146.869" stroke="#7BFFA0" stroke-width="4" stroke-miterlimit="10" stroke-linecap="round" stroke-linejoin="round"/>
<path d="M184.967 31.3094H189.362" stroke="white" stroke-width="4" stroke-miterlimit="10" stroke-linecap="round" stroke-linejoin="round"/>
<path d="M165.001 31.3094H179.759" stroke="#9169FF" stroke-width="4" stroke-miterlimit="10" stroke-linecap="round" stroke-linejoin="round"/>
<path d="M144.707 31.3094H159.736" stroke="#FFC47D" stroke-width="4" stroke-miterlimit="10" stroke-linecap="round" stroke-linejoin="round"/>
<path d="M167.969 37.8256H180.936" stroke="white" stroke-width="4" stroke-miterlimit="10" stroke-linecap="round" stroke-linejoin="round"/>
<path d="M151.701 37.8254H163.909" stroke="#FF5757" stroke-width="4" stroke-miterlimit="10" stroke-linecap="round" stroke-linejoin="round"/>
<path d="M169.728 44.3425H172.386" stroke="white" stroke-width="4" stroke-miterlimit="10" stroke-linecap="round" stroke-linejoin="round"/>
<path d="M158.976 44.3425H164.998" stroke="#9169FF" stroke-width="4" stroke-miterlimit="10" stroke-linecap="round" stroke-linejoin="round"/>
<path d="M144.707 44.3425H154.419" stroke="#7BFFA0" stroke-width="4" stroke-miterlimit="10" stroke-linecap="round" stroke-linejoin="round"/>
<path d="M165.54 50.9127H182.848" stroke="#FFC47D" stroke-width="4" stroke-miterlimit="10" stroke-linecap="round" stroke-linejoin="round"/>
<path d="M144.707 50.9127H160.224" stroke="#FF5757" stroke-width="4" stroke-miterlimit="10" stroke-linecap="round" stroke-linejoin="round"/>
<path d="M185.549 57.4298H194.935" stroke="#9169FF" stroke-width="4" stroke-miterlimit="10" stroke-linecap="round" stroke-linejoin="round"/>
<path d="M165.526 57.4298H180.555" stroke="#FF5757" stroke-width="4" stroke-miterlimit="10" stroke-linecap="round" stroke-linejoin="round"/>
<path d="M151.701 57.4298H160.219" stroke="#7BFFA0" stroke-width="4" stroke-miterlimit="10" stroke-linecap="round" stroke-linejoin="round"/>
<path d="M172.368 63.9459H180.561" stroke="white" stroke-width="4" stroke-miterlimit="10" stroke-linecap="round" stroke-linejoin="round"/>
<path d="M151.701 63.9459H166.73" stroke="#9169FF" stroke-width="4" stroke-miterlimit="10" stroke-linecap="round" stroke-linejoin="round"/>
<path d="M193.705 70.4653H203.091" stroke="white" stroke-width="4" stroke-miterlimit="10" stroke-linecap="round" stroke-linejoin="round"/>
<path d="M165.001 70.4653H188.603" stroke="#FFC47D" stroke-width="4" stroke-miterlimit="10" stroke-linecap="round" stroke-linejoin="round"/>
<path d="M144.707 70.4653H159.736" stroke="white" stroke-width="4" stroke-miterlimit="10" stroke-linecap="round" stroke-linejoin="round"/>
<path d="M29.6826 154.656H146.605" stroke="#1F3969" stroke-width="4" stroke-miterlimit="10" stroke-linecap="round" stroke-linejoin="round"/>
<path d="M29.6826 158.894H146.605" stroke="#1F3969" stroke-width="4" stroke-miterlimit="10" stroke-linecap="round" stroke-linejoin="round"/>
<path d="M147.69 150.998H28.3252C29.0305 152.694 29.4103 154.813 29.4103 157.038C29.4103 159.264 29.0305 161.33 28.3252 163.078H147.635C146.93 161.383 146.55 159.264 146.55 157.038C146.604 154.76 146.984 152.694 147.69 150.998Z" stroke="#1F3969" stroke-width="4" stroke-miterlimit="10" stroke-linecap="round" stroke-linejoin="round"/>
<path d="M308.264 107.802L302.983 108.407L307.576 146.612L312.857 146.006L308.264 107.802Z" fill="#FFA364"/>
<path d="M308.27 107.843L302.989 108.448L303.457 112.342L308.738 111.737L308.27 107.843Z" fill="#2AA1FF"/>
<path d="M308.27 107.843L302.989 108.448L303.457 112.342L308.738 111.737L308.27 107.843Z" stroke="#1F3969" stroke-width="4" stroke-miterlimit="10" stroke-linecap="round" stroke-linejoin="round"/>
<path d="M308.264 107.802L302.983 108.407L307.576 146.612L312.857 146.006L308.264 107.802Z" stroke="#1F3969" stroke-width="4" stroke-miterlimit="10" stroke-linecap="round" stroke-linejoin="round"/>
<path d="M322.739 115.627L317.453 115.066L313.195 153.305L318.481 153.866L322.739 115.627Z" fill="#FF5252"/>
<path d="M322.739 115.627L317.453 115.066L313.195 153.305L318.481 153.866L322.739 115.627Z" stroke="#1F3969" stroke-width="4" stroke-miterlimit="10" stroke-linecap="round" stroke-linejoin="round"/>
<path d="M322.781 115.635L317.495 115.073L317.061 118.971L322.347 119.532L322.781 115.635Z" fill="#2D425E"/>
<path d="M322.781 115.635L317.495 115.073L317.061 118.971L322.347 119.532L322.781 115.635Z" stroke="#1F3969" stroke-width="4" stroke-miterlimit="10" stroke-linecap="round" stroke-linejoin="round"/>
<path d="M326.027 166.366H304.704L301.231 134.469H329.499L326.027 166.366Z" fill="#6567C3"/>
<path d="M301.231 134.469L301.286 135.052H322.826L319.407 166.366H326.027L329.499 134.469H301.231Z" fill="#6567C3"/>
<path d="M326.027 166.366H304.704L301.231 134.469H329.499L326.027 166.366Z" stroke="#1F3969" stroke-width="4" stroke-miterlimit="10" stroke-linecap="round" stroke-linejoin="round"/>
</svg>
